<svg width="36" height="36" viewBox="0 0 36 36" fill="none" xmlns="http://www.w3.org/2000/svg">
<circle cx="18" cy="18" r="18" fill="#2EB67D"/>
<g filter="url(#filter0_dd)">
<path d="M25.5804 21.7424L23.3429 19.5095C22.5438 18.7121 21.1853 19.0311 20.8656 20.0677C20.6259 20.7855 19.8267 21.1842 19.1075 21.0247C17.5093 20.626 15.3517 18.5526 14.9521 16.878C14.7124 16.1602 15.1918 15.3628 15.911 15.1236C16.9499 14.8046 17.2696 13.4489 16.4704 12.6515L14.2329 10.4187C13.5936 9.86045 12.6346 9.86045 12.0752 10.4187L10.5569 11.9338C9.03858 13.5287 10.7167 17.7551 14.4726 21.5031C18.2285 25.2511 22.4639 27.0055 24.0621 25.4106L25.5804 23.8955C26.1399 23.2575 26.1399 22.3006 25.5804 21.7424Z" fill="white"/>
</g>
<defs>
<filter id="filter0_dd" x="7" y="8" width="22" height="22" filterUnits="userSpaceOnUse" color-interpolation-filters="sRGB">
<feFlood flood-opacity="0" result="BackgroundImageFix"/>
<feColorMatrix in="SourceAlpha" type="matrix" values="0 0 0 0 0 0 0 0 0 0 0 0 0 0 0 0 0 0 127 0"/>
<feOffset dy="1"/>
<feGaussianBlur stdDeviation="0.5"/>
<feColorMatrix type="matrix" values="0 0 0 0 0 0 0 0 0 0 0 0 0 0 0 0 0 0 0.03 0"/>
<feBlend mode="normal" in2="BackgroundImageFix" result="effect1_dropShadow"/>
<feColorMatrix in="SourceAlpha" type="matrix" values="0 0 0 0 0 0 0 0 0 0 0 0 0 0 0 0 0 0 127 0"/>
<feOffset dy="1"/>
<feGaussianBlur stdDeviation="1"/>
<feColorMatrix type="matrix" values="0 0 0 0 0 0 0 0 0 0 0 0 0 0 0 0 0 0 0.03 0"/>
<feBlend mode="normal" in2="effect1_dropShadow" result="effect2_dropShadow"/>
<feBlend mode="normal" in="SourceGraphic" in2="effect2_dropShadow" result="shape"/>
</filter>
</defs>
</svg>
