<svg width="4" height="15" viewBox="0 0 4 15" fill="none" xmlns="http://www.w3.org/2000/svg">
<path d="M3.20081 14.4508C3.93304 13.7186 3.93304 12.5314 3.20081 11.7992C2.46859 11.0669 1.2814 11.0669 0.549172 11.7992C-0.183057 12.5314 -0.183057 13.7186 0.549172 14.4508C1.28137 15.1831 2.46856 15.1831 3.20081 14.4508Z" fill="black"/>
<path d="M3.20081 8.82583C3.93304 8.0936 3.93304 6.90641 3.20081 6.17418C2.46859 5.44196 1.2814 5.44196 0.549172 6.17418C-0.183057 6.90641 -0.183057 8.0936 0.549172 8.82583C1.28137 9.55806 2.46856 9.55806 3.20081 8.82583Z" fill="black"/>
<path d="M3.20081 3.20083C3.93304 2.4686 3.93304 1.28141 3.20081 0.549179C2.46859 -0.183052 1.2814 -0.183052 0.549172 0.549179C-0.183057 1.28141 -0.183057 2.4686 0.549172 3.20083C1.28137 3.93306 2.46856 3.93306 3.20081 3.20083Z" fill="black"/>
</svg>
