<svg width="16" height="20" viewBox="0 0 16 20" fill="none" xmlns="http://www.w3.org/2000/svg">
<path d="M15.9567 8.38859C15.8592 8.18665 15.7617 7.98472 15.5668 7.78278C15.3718 7.68181 15.0794 7.58084 14.8845 7.68181C14.6895 7.78278 14.4946 7.88375 14.2997 8.08568L10.0109 15.7593C9.42605 16.769 8.45133 17.5768 7.37914 17.8797C6.20947 18.1826 5.03981 18.0816 4.06509 17.4758C2.01817 16.2642 1.2384 13.437 2.50553 11.3167L6.89178 3.34015C7.28166 2.63337 7.8665 2.2295 8.64627 2.02756C9.32858 1.82562 10.1084 1.92659 10.6932 2.33046C11.3755 2.73434 11.7654 3.34015 11.9603 4.04693C12.1553 4.75372 12.0578 5.56147 11.6679 6.16728L7.57408 13.437C7.28166 13.9419 6.59936 14.1438 6.01453 13.8409C5.52717 13.538 5.33222 12.8312 5.62464 12.2254L9.52352 5.25856C9.62099 5.05662 9.71847 4.75372 9.62099 4.55178C9.62099 4.45081 9.42605 4.24887 9.23111 4.04693C9.03616 3.94596 8.74375 3.94596 8.5488 3.94596C8.25639 4.04693 8.06144 4.24887 7.96397 4.45081L4.06509 11.4177C3.6752 12.1244 3.57773 12.9322 3.77267 13.7399C3.96761 14.5477 4.45498 15.1535 5.13728 15.5574C5.81958 15.9612 6.59936 16.0622 7.37914 15.8603C8.15891 15.6583 8.74375 15.1535 9.13363 14.4467L13.2275 7.076C13.8123 5.96534 14.0072 4.75371 13.7148 3.44112C13.4224 2.12853 12.6426 1.21981 11.5704 0.613995C10.4982 0.00818218 9.32858 -0.193755 8.15891 0.21012C6.98925 0.513026 6.01453 1.32078 5.33222 2.33046L0.848509 10.307C-0.905989 13.3361 0.166204 17.2738 3.09037 19.0913C4.06509 19.6971 5.13728 20 6.20947 20C6.7943 20 7.28166 19.899 7.8665 19.7981C9.42605 19.3942 10.7907 18.2835 11.6679 16.769L15.9567 9.09537C15.9567 8.89343 16.0541 8.6915 15.9567 8.38859Z" fill="#D2D2D2"/>
</svg>
