<svg width="8" height="15" viewBox="0 0 8 15" fill="none" xmlns="http://www.w3.org/2000/svg">
<path d="M7.71506 12.3456L2.35119 6.99957L7.71407 1.65457C7.80469 1.56462 7.8766 1.45772 7.92567 1.34C7.97474 1.22227 8 1.09605 8 0.968567C8 0.841085 7.97474 0.714859 7.92567 0.597135C7.8766 0.479412 7.80469 0.37251 7.71407 0.282568C7.53106 0.101567 7.2837 0 7.0259 0C6.7681 0 6.52074 0.101567 6.33773 0.282568L0.284694 6.31656C0.10239 6.49861 0 6.74533 0 7.00257C0 7.2598 0.10239 7.50652 0.284694 7.68857L6.33572 13.7196C6.47176 13.8556 6.64525 13.9483 6.83421 13.986C7.02316 14.0236 7.21907 14.0045 7.39711 13.931C7.57514 13.8575 7.72729 13.733 7.83426 13.5732C7.94122 13.4135 7.99819 13.2256 7.99795 13.0336C7.99895 12.9059 7.97445 12.7793 7.92588 12.6612C7.87732 12.5431 7.80565 12.4358 7.71506 12.3456Z" fill="#222222"/>
</svg>
