<svg xmlns="http://www.w3.org/2000/svg" width="23.745" height="14.039" viewBox="0 0 23.745 14.039">
  <path id="video-camera_1" d="M3.644,21.239A1.372,1.372,0,0,1,2.2,19.875V8.644A1.438,1.438,0,0,1,3.644,7.2H19.688a1.438,1.438,0,0,1,1.444,1.444v2.808l3.851-2.567c.08,0,.241-.08.321-.08h.321a.537.537,0,0,1,.321.562v9.626a.69.69,0,0,1-.642.642h0c-.16,0-.241,0-.321-.08l-3.851-2.567v2.808a1.438,1.438,0,0,1-1.444,1.444H3.644Zm-.16-1.2H19.849V8.484H3.484Zm17.649-7.059v2.487l3.53,2.326v-7.22L21.132,12.9h0Z" transform="translate(-2.2 -7.2)" fill="#fff"/>
</svg>
