<svg width="19" height="18" viewBox="0 0 19 18" fill="none" xmlns="http://www.w3.org/2000/svg">
<path d="M17.727 16.3957L13.2898 11.9383C14.3909 10.6711 15.0114 9.07914 15.0487 7.42535C15.086 5.77157 14.538 4.15497 13.4951 2.8427C12.4522 1.53043 10.9769 0.601023 9.31299 0.208049C7.64907 -0.184926 5.89611 -0.0179447 4.34377 0.6814C2.79143 1.38074 1.53261 2.5706 0.775332 4.05435C0.0180498 5.53809 -0.192376 7.22694 0.178825 8.84181C0.550026 10.4567 1.48064 11.9009 2.81689 12.9359C4.15314 13.9709 5.81505 14.5347 7.528 14.534C9.07202 14.5381 10.5792 14.0785 11.8408 13.2189L16.3136 17.7094C16.4031 17.7991 16.5099 17.8709 16.6281 17.9208C16.7462 17.9706 16.8734 17.9975 17.0023 17.9998C17.1312 18.0022 17.2594 17.98 17.3794 17.9346C17.4995 17.8891 17.6091 17.8213 17.7019 17.7349C17.7948 17.6486 17.8692 17.5454 17.9208 17.4313C17.9724 17.3172 18.0002 17.1944 18.0027 17.0699C18.0051 16.9454 17.9822 16.8217 17.9351 16.7057C17.8881 16.5898 17.8178 16.484 17.7284 16.3943L17.727 16.3957ZM7.528 1.89197C8.62818 1.89224 9.70357 2.20752 10.6182 2.79794C11.5329 3.38836 12.2457 4.22741 12.6666 5.20902C13.0875 6.19062 13.1975 7.27069 12.9828 8.31269C12.7681 9.35468 12.2383 10.3118 11.4603 11.0631C10.6824 11.8143 9.69127 12.3259 8.61225 12.5333C7.53323 12.7406 6.41477 12.6343 5.39829 12.2279C4.38181 11.8214 3.51294 11.1331 2.90154 10.2498C2.29014 9.36656 1.96366 8.32807 1.96338 7.26565C1.96565 5.84113 2.55265 4.47559 3.59572 3.4683C4.6388 2.46102 6.05287 1.89416 7.528 1.89197Z" fill="#D2D2D2"/>
</svg>
