<svg width="19" height="11" viewBox="0 0 19 11" fill="none" xmlns="http://www.w3.org/2000/svg">
<path d="M9.49981 11C9.67541 10.9995 9.84913 10.9638 10.0107 10.8952C10.1724 10.8265 10.3186 10.7262 10.4408 10.6002L18.6108 2.30554C18.8607 2.05042 19.0006 1.70763 19.0006 1.35065C19.0006 0.993661 18.8607 0.650879 18.6108 0.395761C18.4883 0.270478 18.3419 0.170933 18.1803 0.102971C18.0187 0.0350085 17.8451 2.0083e-06 17.6698 2.02362e-06C17.4945 2.03893e-06 17.3209 0.0350086 17.1593 0.102971C16.9978 0.170933 16.8514 0.270478 16.7288 0.395761L9.49981 7.74307L2.2708 0.405757C2.14825 0.280628 2.00194 0.181206 1.84043 0.113334C1.67893 0.0454622 1.5055 0.0105024 1.3303 0.0105025C1.1551 0.0105025 0.98166 0.0454623 0.820159 0.113334C0.658658 0.181206 0.512342 0.280628 0.389796 0.405758C0.139928 0.660877 -8.74471e-07 1.00366 -8.43242e-07 1.36065C-8.12013e-07 1.71763 0.139928 2.06041 0.389796 2.31553L8.55881 10.6102C8.68187 10.7344 8.82847 10.8329 8.99004 10.8998C9.15161 10.9667 9.32491 11.0008 9.49981 11Z" fill="#C6C6C6"/>
</svg>
