<svg width="144" height="35" viewBox="0 0 144 35" fill="none" xmlns="http://www.w3.org/2000/svg">
<g opacity="0.1" clip-path="url(#clip0)">
<path d="M16.9891 0.908383C16.7173 0.628942 16.4455 0.559082 16.0378 0.559082H10.1255H7.27135H1.29117C0.883435 0.559082 0.611609 0.698803 0.339783 0.908383C0.135913 1.11796 0 1.46727 0 1.88643C0 2.30559 0.135913 2.58503 0.339783 2.86447C0.611609 3.14391 0.883435 3.21377 1.29117 3.21377H7.2034V21.098C7.2034 21.5172 7.33931 21.8665 7.61114 22.1459C7.88296 22.4254 8.22274 22.5651 8.63048 22.5651C9.03822 22.5651 9.37801 22.4254 9.64983 22.1459C9.92166 21.8665 10.0576 21.5172 10.0576 21.098V3.21377H15.9698C16.3775 3.21377 16.6494 3.07405 16.9212 2.86447C17.193 2.58503 17.261 2.30559 17.261 1.88643C17.3289 1.46727 17.261 1.11796 16.9891 0.908383Z" fill="white"/>
<path d="M29.493 10.8286C28.8134 9.64102 27.93 8.73284 26.7747 8.03423C25.6194 7.33563 24.3283 6.98633 22.9012 6.98633C21.4741 6.98633 20.1829 7.33563 19.0277 8.03423C17.8724 8.73284 16.989 9.64102 16.3094 10.8286C15.6298 12.0163 15.29 13.3436 15.29 14.8107C15.29 16.2777 15.6298 17.6051 16.2414 18.7927C16.853 19.9803 17.6685 20.8885 18.7558 21.5871C19.8431 22.2857 20.9984 22.635 22.3575 22.635C23.7167 22.635 24.8719 22.2857 25.9592 21.5871C26.6388 21.168 27.1824 20.6789 27.6581 20.0502V21.0981C27.6581 21.5173 27.794 21.8666 28.0659 22.146C28.3377 22.4255 28.6775 22.5652 29.0852 22.5652C29.493 22.5652 29.8327 22.4255 30.1046 22.146C30.3764 21.8666 30.5123 21.5173 30.5123 21.0981V14.8107C30.5123 13.3436 30.1725 12.0163 29.493 10.8286ZM25.4835 19.4913C24.736 19.9803 23.9205 20.1899 22.9691 20.1899C22.0857 20.1899 21.2023 19.9803 20.4547 19.4913C19.7072 19.0023 19.0956 18.3736 18.6879 17.6051C18.2801 16.8366 18.0083 15.9284 18.0083 14.8805C18.0083 13.8326 18.2122 12.9245 18.6879 12.156C19.0956 11.3875 19.7072 10.6889 20.4547 10.2698C21.2023 9.78074 22.0177 9.57116 22.9691 9.57116C23.9205 9.57116 24.736 9.78074 25.4835 10.2698C26.231 10.7588 26.7747 11.3875 27.1824 12.156C27.5902 12.9245 27.794 13.8326 27.794 14.8805C27.794 15.8586 27.5902 16.7668 27.1824 17.6051C26.7747 18.3736 26.231 19.0023 25.4835 19.4913Z" fill="white"/>
<path d="M45.5982 16.0682C45.2584 15.5093 44.6468 15.0203 43.8993 14.5312C43.0838 14.1121 41.9965 13.7628 40.6374 13.4833C39.618 13.2738 38.8705 13.0642 38.3948 12.8546C37.8511 12.645 37.5114 12.3656 37.3754 12.0861C37.1716 11.8067 37.1036 11.5272 37.1036 11.1779C37.1036 10.6191 37.3754 10.1999 37.9191 9.92046C38.4627 9.64102 39.1423 9.5013 39.9578 9.5013C40.6374 9.5013 41.249 9.57116 41.7926 9.78074C42.3363 9.92046 42.812 10.2698 43.2877 10.6889C43.5595 10.9684 43.8993 11.1081 44.307 11.1779C44.7147 11.2478 45.0545 11.1779 45.3264 10.9684C45.5982 10.7588 45.8021 10.4793 45.8021 10.13C45.8021 9.78074 45.7341 9.5013 45.4623 9.152C44.9186 8.4534 44.1711 7.89451 43.2197 7.54521C42.2683 7.12605 41.181 6.98633 40.0257 6.98633C39.0744 6.98633 38.1909 7.12605 37.3075 7.47535C36.4241 7.75479 35.7445 8.24381 35.2008 8.87256C34.6572 9.5013 34.3854 10.2698 34.3854 11.2478C34.3854 12.3656 34.7931 13.2738 35.6086 14.0422C36.4241 14.8107 37.7832 15.3696 39.618 15.7189C41.0451 15.9983 42.0644 16.3476 42.6081 16.7668C43.1517 17.1859 43.4236 17.675 43.4236 18.2338C43.4236 18.7927 43.0838 19.2817 42.5401 19.631C41.9965 19.9803 41.181 20.1899 40.0937 20.1899C39.2782 20.1899 38.4627 20.0502 37.7832 19.7009C37.1036 19.4215 36.6279 19.0722 36.2881 18.7229C36.0163 18.3736 35.7445 18.2338 35.3368 18.164C34.997 18.0941 34.5892 18.2338 34.2494 18.5133C33.9097 18.7927 33.7738 19.0722 33.7058 19.4913C33.6378 19.9105 33.7738 20.1899 34.0456 20.5392C34.6572 21.168 35.4727 21.657 36.56 22.0762C37.6473 22.4953 38.8705 22.7049 40.0937 22.7049C41.3849 22.7049 42.4722 22.4953 43.3556 22.0762C44.239 21.657 44.9186 21.0981 45.3264 20.3995C45.802 19.7009 46.0059 18.9324 46.0059 18.0243C46.0739 17.3257 45.938 16.6271 45.5982 16.0682Z" fill="white"/>
<path d="M61.0249 20.5391L55.7243 13.8325L60.7531 9.22176C61.0249 8.94232 61.1608 8.66287 61.1608 8.31357C61.1608 7.96427 61.0929 7.68483 60.8211 7.40539C60.5492 7.12595 60.2774 6.98623 59.9376 6.98623C59.5978 6.98623 59.2581 7.05609 58.9862 7.33553L52.3265 13.4134V1.88643C52.3265 1.46727 52.1906 1.11796 51.9867 0.908383C51.7149 0.628942 51.4431 0.559082 51.0353 0.559082C50.6276 0.559082 50.2878 0.698803 50.0839 0.908383C49.8121 1.18782 49.7441 1.46727 49.7441 1.88643V21.1679C49.7441 21.587 49.8801 21.9363 50.0839 22.1459C50.2878 22.3555 50.6276 22.4952 51.0353 22.4952C51.4431 22.4952 51.7828 22.3555 51.9867 22.1459C52.2585 21.8665 52.3265 21.587 52.3265 21.1679V16.8365L53.6856 15.579L58.9183 22.2158C59.1901 22.4952 59.4619 22.7048 59.8017 22.7048C60.1415 22.7048 60.4813 22.6349 60.7531 22.3555C61.0929 22.076 61.2288 21.7966 61.2288 21.4473C61.3647 21.1679 61.2288 20.8186 61.0249 20.5391Z" fill="white"/>
<path d="M67.0052 7.12598C66.5975 7.12598 66.2577 7.2657 65.9859 7.54514C65.714 7.82458 65.5781 8.17388 65.5781 8.59304V21.1679C65.5781 21.5871 65.714 21.9364 65.9859 22.2158C66.2577 22.4952 66.5975 22.635 67.0052 22.635C67.413 22.635 67.7527 22.4952 68.0246 22.2158C68.2964 21.9364 68.4323 21.5871 68.4323 21.1679V8.59304C68.4323 8.17388 68.2964 7.82458 68.0246 7.54514C67.7527 7.2657 67.413 7.12598 67.0052 7.12598Z" fill="white"/>
<path d="M67.0053 4.61083C67.481 4.61083 67.9567 4.40125 68.2965 4.05195C68.6363 3.70265 68.8401 3.21363 68.8401 2.72461C68.8401 2.23558 68.6363 1.81642 68.2285 1.39726C67.8888 1.04796 67.4131 0.838379 66.9374 0.838379C66.4617 0.838379 65.986 1.04796 65.6462 1.39726C65.3064 1.74656 65.1025 2.23558 65.1025 2.72461C65.1025 3.21363 65.3064 3.70265 65.6462 4.05195C66.0539 4.40125 66.4617 4.61083 67.0053 4.61083Z" fill="white"/>
<path d="M86.8478 10.2698C86.3041 9.22186 85.4887 8.38353 84.4693 7.82465C83.45 7.26577 82.3627 6.98633 81.0715 6.98633C79.8483 6.98633 78.761 7.26577 77.8096 7.82465C77.2659 8.10409 76.7902 8.45339 76.3825 8.87256V8.59312C76.3825 8.17395 76.2466 7.82465 75.9748 7.54521C75.7029 7.26577 75.3632 7.12605 74.9554 7.12605C74.5477 7.12605 74.2079 7.26577 73.9361 7.54521C73.6642 7.82465 73.5283 8.17395 73.5283 8.59312V21.2378C73.5283 21.657 73.6642 22.0063 73.9361 22.2857C74.2079 22.5652 74.5477 22.7049 74.9554 22.7049C75.3632 22.7049 75.7029 22.5652 75.9748 22.2857C76.2466 22.0063 76.3825 21.657 76.3825 21.2378V13.2039C76.3825 12.5053 76.5864 11.8766 76.9261 11.3177C77.2659 10.7588 77.8096 10.3396 78.4212 10.0602C79.0328 9.71088 79.7124 9.57116 80.5278 9.57116C81.3433 9.57116 82.0908 9.71088 82.7704 10.0602C83.45 10.4095 83.9257 10.8985 84.3334 11.5971C84.7411 12.2957 84.945 13.134 84.945 14.2518V21.2378C84.945 21.657 85.0809 22.0063 85.3528 22.2857C85.6246 22.5652 85.9644 22.7049 86.3721 22.7049C86.7798 22.7049 87.1196 22.5652 87.3915 22.2857C87.6633 22.0063 87.7992 21.657 87.7992 21.2378V14.2518C87.7312 12.645 87.3915 11.3177 86.8478 10.2698Z" fill="white"/>
<path d="M105.74 10.8286C105.06 9.64102 104.177 8.73284 103.022 8.03423C101.867 7.33563 100.575 6.98633 99.1482 6.98633C97.7212 6.98633 96.43 7.33563 95.2747 8.03423C94.1195 8.73284 93.236 9.64102 92.5565 10.8286C91.8769 12.0163 91.5371 13.3436 91.5371 14.8107C91.5371 16.2777 91.8769 17.6051 92.4885 18.7927C93.1001 19.9803 93.9156 20.8885 95.0029 21.5871C96.0902 22.2857 97.2455 22.635 98.6046 22.635C99.9637 22.635 101.119 22.2857 102.206 21.5871C102.886 21.168 103.43 20.6789 103.905 20.0502V21.0981C103.905 21.5173 104.041 21.8666 104.313 22.146C104.585 22.4255 104.925 22.5652 105.332 22.5652C105.74 22.5652 106.08 22.4255 106.352 22.146C106.623 21.8666 106.759 21.5173 106.759 21.0981V14.8107C106.759 13.3436 106.42 12.0163 105.74 10.8286ZM101.663 19.4913C100.915 19.9803 100.1 20.1899 99.1482 20.1899C98.2648 20.1899 97.3814 19.9803 96.6339 19.4913C95.8863 19.0023 95.2747 18.3736 94.867 17.6051C94.4592 16.8366 94.1874 15.9284 94.1874 14.8805C94.1874 13.8326 94.3913 12.9245 94.867 12.156C95.2747 11.3875 95.8863 10.6889 96.6339 10.2698C97.3814 9.78074 98.1969 9.57116 99.1482 9.57116C100.1 9.57116 100.915 9.78074 101.663 10.2698C102.41 10.7588 102.954 11.3875 103.362 12.156C103.769 12.9245 103.973 13.8326 103.973 14.8805C103.973 15.8586 103.769 16.7668 103.362 17.6051C103.022 18.3736 102.41 19.0023 101.663 19.4913Z" fill="white"/>
<path d="M126.671 6.49678C121.303 7.19538 115.526 7.54468 109.41 7.61454C115.594 11.5267 121.438 13.0636 127.079 12.365C132.719 11.6664 138.02 8.66245 143.117 3.2832C137.544 4.75027 132.04 5.79817 126.671 6.49678Z" fill="white"/>
<path d="M123.681 17.2555C121.71 22.8443 119.4 28.1537 116.817 33.1138C122.933 29.2016 127.011 24.4511 128.914 18.9321C130.816 13.4132 130.68 7.12575 128.438 0C127.215 5.93812 125.652 11.6667 123.681 17.2555Z" fill="white"/>
<path d="M125.72 16.487C124.497 21.9361 122.934 27.8743 121.031 34.3014C126.672 29.6208 130.137 24.4511 131.429 18.7226C132.72 12.994 131.768 6.77645 128.71 0C127.963 5.51896 126.943 10.9681 125.72 16.487Z" fill="white"/>
<path d="M128.166 8.10362C122.797 9.78026 117.293 11.2473 111.517 12.5048C118.244 15.2294 124.292 15.7184 129.729 14.0417C135.165 12.2952 139.922 8.38306 144 2.23535C138.835 4.40102 133.535 6.35711 128.166 8.10362Z" fill="white"/>
<path d="M7.40659 32.415C7.33864 32.415 7.27068 32.415 7.20272 32.3451C7.13477 32.2753 7.13477 32.2054 7.13477 32.1355V24.3112C7.13477 24.2413 7.13477 24.1715 7.20272 24.1016C7.27068 24.0317 7.33864 24.0317 7.40659 24.0317C7.47455 24.0317 7.5425 24.0317 7.61046 24.1016C7.67842 24.1715 7.67842 24.2413 7.67842 24.3112V27.8741H12.979V24.3112C12.979 24.2413 12.979 24.1715 13.047 24.1016C13.1149 24.0317 13.1829 24.0317 13.2509 24.0317C13.3188 24.0317 13.3868 24.0317 13.4547 24.1016C13.5227 24.1715 13.5227 24.2413 13.5227 24.3112V32.0657C13.5227 32.1355 13.5227 32.2054 13.4547 32.2753C13.3868 32.3451 13.3188 32.3451 13.2509 32.3451C13.1829 32.3451 13.1149 32.3451 13.047 32.2753C12.979 32.2054 12.979 32.1355 12.979 32.0657V28.4329H7.67842V32.0657C7.67842 32.1355 7.67842 32.2054 7.61046 32.2753C7.5425 32.3451 7.47455 32.415 7.40659 32.415Z" fill="white"/>
<path d="M17.8034 32.485C17.2597 32.485 16.784 32.3453 16.3084 32.1357C15.9006 31.8563 15.5608 31.507 15.289 31.0878C15.0851 30.5289 14.9492 30.0399 14.9492 29.481C14.9492 28.9222 15.0851 28.3633 15.289 27.9441C15.4929 27.525 15.8327 27.1058 16.2404 26.8962C16.6481 26.6168 17.1238 26.4771 17.6675 26.4771C18.2111 26.4771 18.6189 26.6168 19.0266 26.8264C19.4344 27.1058 19.7062 27.3852 19.978 27.8743C20.1819 28.2934 20.3178 28.7824 20.3178 29.4112C20.3178 29.481 20.3178 29.5509 20.2498 29.6208C20.1819 29.6906 20.1139 29.6906 20.046 29.6906H15.4249V29.1317H20.1819L19.7062 29.481C19.7062 28.992 19.6382 28.5729 19.5023 28.2236C19.3664 27.8743 19.0946 27.5948 18.7548 27.3852C18.415 27.1757 18.0752 27.1058 17.6675 27.1058C17.2597 27.1058 16.92 27.1757 16.5802 27.3852C16.2404 27.5948 16.0365 27.8743 15.8327 28.2236C15.6288 28.5729 15.5608 28.992 15.5608 29.481C15.5608 29.9701 15.6288 30.3892 15.8327 30.7385C16.0365 31.0878 16.3084 31.3673 16.6481 31.5768C16.9879 31.7864 17.3957 31.8563 17.8034 31.8563C18.0752 31.8563 18.347 31.7864 18.6189 31.7166C18.8907 31.6467 19.0946 31.507 19.2984 31.3673C19.3664 31.2974 19.4344 31.2974 19.5023 31.2974C19.5703 31.2974 19.6382 31.2974 19.7062 31.3673C19.7741 31.4371 19.8421 31.507 19.8421 31.5768C19.8421 31.6467 19.8421 31.7166 19.7741 31.7864C19.5703 31.996 19.2305 32.1357 18.8907 32.2755C18.483 32.4152 18.1432 32.485 17.8034 32.485Z" fill="white"/>
<path d="M22.4929 32.415C22.2211 32.415 22.0172 32.3451 21.8134 32.2054C21.6095 32.0657 21.4736 31.8561 21.3377 31.5766C21.2017 31.2972 21.1338 31.0178 21.1338 30.6685V24.3112C21.1338 24.2413 21.1338 24.1016 21.2017 24.1016C21.2697 24.0317 21.3377 24.0317 21.4056 24.0317C21.4736 24.0317 21.6095 24.0317 21.6095 24.1016C21.6774 24.1715 21.6774 24.2413 21.6774 24.3112V30.6685C21.6774 31.0178 21.7454 31.2972 21.8813 31.5068C22.0172 31.7164 22.2211 31.8561 22.425 31.8561H22.6968C22.7647 31.8561 22.8327 31.8561 22.9007 31.926C22.9686 31.9958 22.9686 32.0657 22.9686 32.1355C22.9686 32.2054 22.9686 32.2753 22.9007 32.3451C22.8327 32.415 22.7647 32.415 22.6968 32.415H22.4929Z" fill="white"/>
<path d="M24.1244 34.9302C24.0564 34.9302 23.9885 34.9302 23.9205 34.8603C23.8525 34.7905 23.8525 34.7206 23.8525 34.6507V29.4112C23.8525 28.8523 23.9885 28.3633 24.2603 27.8743C24.5321 27.4551 24.8719 27.1058 25.2796 26.8264C25.6874 26.5469 26.231 26.4072 26.7747 26.4072C27.3183 26.4072 27.862 26.5469 28.2697 26.8264C28.7454 27.1058 29.0852 27.4551 29.2891 27.8743C29.5609 28.3633 29.6968 28.8523 29.6968 29.4112C29.6968 29.9701 29.5609 30.4591 29.2891 30.9481C29.0172 31.4372 28.6775 31.7865 28.2697 31.9961C27.794 32.2755 27.3183 32.4152 26.7747 32.4152C26.299 32.4152 25.8233 32.2755 25.4155 32.0659C25.0078 31.8563 24.668 31.5769 24.4641 31.1577V34.511C24.4641 34.5809 24.4642 34.6507 24.3962 34.7206C24.3282 34.9302 24.2603 34.9302 24.1244 34.9302ZM26.7747 31.8563C27.1824 31.8563 27.5902 31.7166 27.9299 31.507C28.2697 31.2974 28.5415 31.018 28.7454 30.6687C28.9493 30.3194 29.0172 29.9002 29.0172 29.4112C29.0172 28.9222 28.9493 28.5729 28.7454 28.1537C28.5415 27.8044 28.2697 27.525 27.9299 27.3154C27.5902 27.1058 27.1824 26.9661 26.7747 26.9661C26.3669 26.9661 25.9592 27.1058 25.6194 27.3154C25.2796 27.525 25.0078 27.8044 24.8039 28.1537C24.6001 28.503 24.5321 28.9222 24.5321 29.4112C24.5321 29.8304 24.6001 30.2495 24.8039 30.6687C25.0078 31.018 25.2796 31.2974 25.6194 31.507C25.9592 31.7865 26.299 31.8563 26.7747 31.8563Z" fill="white"/>
<path d="M30.8515 34.0917C30.7835 34.0917 30.7156 34.0917 30.7156 34.0218C30.6476 34.0218 30.6476 33.952 30.6476 33.8821C30.6476 33.8123 30.6476 33.7424 30.7156 33.6725C30.7835 33.6027 30.8515 33.5328 30.8515 33.3931C30.9195 33.3232 30.9195 33.1835 30.9195 33.0438C30.9195 32.9041 30.9195 32.7644 30.8515 32.6945C30.7835 32.6246 30.7835 32.5548 30.7156 32.4849C30.6476 32.4151 30.5797 32.3452 30.5797 32.2753C30.5117 32.2055 30.5117 32.0658 30.5117 31.9959C30.5117 31.8562 30.5797 31.7165 30.6476 31.5767C30.7835 31.5069 30.8515 31.437 30.9874 31.437C31.1913 31.437 31.3272 31.5069 31.4631 31.6466C31.599 31.7863 31.667 31.9959 31.667 32.3452C31.667 32.5548 31.667 32.7644 31.599 32.9041C31.5311 33.1137 31.4631 33.2534 31.3952 33.463C31.3272 33.6027 31.2592 33.7424 31.1233 33.8821C31.0554 34.0218 30.9874 34.0917 30.8515 34.0917Z" fill="white"/>
<path d="M38.1907 32.485C37.647 32.485 37.1034 32.3453 36.6956 32.0659C36.2199 31.7864 35.8802 31.4371 35.6763 31.018C35.4045 30.5289 35.2686 30.0399 35.2686 29.481C35.2686 28.9222 35.4045 28.3633 35.6763 27.9441C35.9481 27.4551 36.2879 27.1058 36.6956 26.8962C37.1713 26.6168 37.647 26.4771 38.1907 26.4771C38.7343 26.4771 39.278 26.6168 39.6857 26.8962C40.0935 27.1757 40.5012 27.525 40.7051 27.9441C40.9769 28.4331 41.1128 28.9222 41.1128 29.481C41.1128 30.0399 40.9769 30.5289 40.7051 31.018C40.4332 31.507 40.0935 31.8563 39.6857 32.0659C39.21 32.3453 38.7343 32.485 38.1907 32.485ZM38.1907 31.8563C38.5984 31.8563 39.0062 31.7166 39.3459 31.507C39.6857 31.2974 39.9576 31.018 40.1614 30.6687C40.3653 30.3194 40.4332 29.9002 40.4332 29.4112C40.4332 28.992 40.3653 28.5729 40.1614 28.1537C39.9576 27.8044 39.6857 27.525 39.3459 27.3154C39.0062 27.1058 38.5984 26.9661 38.1907 26.9661C37.7829 26.9661 37.3752 27.1058 37.0354 27.3154C36.6956 27.525 36.4238 27.8044 36.2199 28.1537C36.0161 28.503 35.9481 28.9222 35.9481 29.4112C35.9481 29.8303 36.0161 30.2495 36.2199 30.6687C36.4238 31.018 36.6956 31.2974 37.0354 31.507C37.3752 31.7864 37.715 31.8563 38.1907 31.8563Z" fill="white"/>
<path d="M42.6761 32.4151C42.6082 32.4151 42.5402 32.4151 42.4723 32.3453C42.4043 32.2754 42.4043 32.2056 42.4043 32.1357V26.8962C42.4043 26.8263 42.4043 26.6866 42.4723 26.6866C42.5402 26.6167 42.6082 26.6167 42.6761 26.6167C42.7441 26.6167 42.88 26.6167 42.88 26.6866C42.9479 26.7565 42.9479 26.8263 42.9479 26.8962V32.1357C42.9479 32.2056 42.9479 32.2754 42.88 32.3453C42.812 32.3453 42.7441 32.4151 42.6761 32.4151ZM47.2972 32.4151C47.2292 32.4151 47.1613 32.4151 47.0933 32.3453C47.0254 32.2754 47.0253 32.2056 47.0253 32.1357V29.2016C47.0253 28.7125 46.9574 28.3632 46.7535 28.0139C46.5497 27.7345 46.3458 27.4551 46.006 27.3153C45.7342 27.1756 45.3264 27.1058 44.9866 27.1058C44.5789 27.1058 44.2391 27.1756 43.9673 27.3153C43.6955 27.4551 43.4236 27.6646 43.2198 27.9441C43.0159 28.2235 42.9479 28.503 42.9479 28.8523H42.4043C42.4043 28.4331 42.5402 28.0139 42.812 27.6646C43.0159 27.3153 43.3557 27.0359 43.6955 26.8263C44.0353 26.6167 44.443 26.5469 44.9187 26.5469C45.3944 26.5469 45.8701 26.6866 46.2778 26.8962C46.6856 27.1058 47.0254 27.3852 47.2292 27.8044C47.4331 28.2235 47.569 28.7125 47.569 29.3413V32.2754C47.569 32.3453 47.569 32.4151 47.501 32.485C47.501 32.3453 47.3651 32.4151 47.2972 32.4151Z" fill="white"/>
<path d="M53.7526 32.2756C53.6847 32.3454 53.5488 32.3454 53.4808 32.2756C53.4128 32.2756 53.3449 32.2057 53.3449 32.1358L51.0344 26.9662C50.9664 26.8963 50.9664 26.7566 51.0344 26.6867C51.0344 26.6169 51.1023 26.547 51.1703 26.547C51.2382 26.4772 51.3741 26.4772 51.4421 26.547C51.5101 26.547 51.578 26.6169 51.578 26.6867L53.8885 31.8564C53.9565 31.9263 53.9565 32.066 53.8885 32.1358C53.9565 32.1358 53.8885 32.2057 53.7526 32.2756ZM52.6653 35.0001C52.5974 35.0001 52.5974 35.0001 52.5294 35.0001C52.3255 34.9302 52.2576 34.7905 52.3935 34.5809L55.9272 26.6867C55.9952 26.4772 56.1311 26.4772 56.335 26.547C56.5389 26.6169 56.6068 26.7566 56.4709 26.9662L52.9372 34.8604C52.8692 34.9302 52.8012 35.0001 52.6653 35.0001Z" fill="white"/>
<path d="M59.5979 32.485C59.0543 32.485 58.5106 32.3453 58.1029 32.0659C57.6272 31.7864 57.2874 31.4371 57.0835 31.018C56.8117 30.5289 56.6758 30.0399 56.6758 29.481C56.6758 28.9222 56.8117 28.3633 57.0835 27.9441C57.3553 27.4551 57.6951 27.1058 58.1029 26.8962C58.5786 26.6168 59.0543 26.4771 59.5979 26.4771C60.1416 26.4771 60.6852 26.6168 61.093 26.8962C61.5007 27.1757 61.9084 27.525 62.1123 27.9441C62.3841 28.4331 62.52 28.9222 62.52 29.481C62.52 30.0399 62.3841 30.5289 62.1123 31.018C61.8405 31.507 61.5007 31.8563 61.093 32.0659C60.6852 32.3453 60.1416 32.485 59.5979 32.485ZM59.5979 31.8563C60.0056 31.8563 60.4134 31.7166 60.7532 31.507C61.093 31.2974 61.3648 31.018 61.5686 30.6687C61.7725 30.3194 61.8405 29.9002 61.8405 29.4112C61.8405 28.992 61.7725 28.5729 61.5686 28.1537C61.3648 27.8044 61.093 27.525 60.7532 27.3154C60.4134 27.1058 60.0056 26.9661 59.5979 26.9661C59.1902 26.9661 58.7824 27.1058 58.4426 27.3154C58.1029 27.525 57.831 27.8044 57.6272 28.1537C57.4233 28.503 57.3553 28.9222 57.3553 29.4112C57.3553 29.8303 57.4233 30.2495 57.6272 30.6687C57.831 31.018 58.1029 31.2974 58.4426 31.507C58.7824 31.7864 59.1902 31.8563 59.5979 31.8563Z" fill="white"/>
<path d="M66.3261 32.485C65.8504 32.485 65.3747 32.3453 64.967 32.1357C64.5592 31.9261 64.2194 31.6467 64.0156 31.2275C63.8117 30.8083 63.6758 30.3193 63.6758 29.7604V26.8263C63.6758 26.7565 63.6758 26.6866 63.7437 26.6167C63.8117 26.5469 63.8797 26.5469 63.9476 26.5469C64.0156 26.5469 64.0835 26.5469 64.1515 26.6167C64.2194 26.6866 64.2194 26.7565 64.2194 26.8263V29.7604C64.2194 30.2495 64.2874 30.5988 64.4913 30.9481C64.6951 31.2275 64.899 31.5069 65.2388 31.6467C65.5106 31.7864 65.9184 31.8562 66.2581 31.8562C66.6659 31.8562 67.0057 31.7864 67.2775 31.6467C67.5493 31.5069 67.8211 31.2974 68.025 31.0179C68.2289 30.7385 68.2968 30.459 68.2968 30.1796H68.8405C68.8405 30.5988 68.7046 31.0179 68.4327 31.3672C68.2289 31.7165 67.8891 31.996 67.5493 32.2055C67.1416 32.4151 66.7338 32.485 66.3261 32.485ZM68.6366 32.4151C68.5687 32.4151 68.5007 32.4151 68.4327 32.3453C68.3648 32.2754 68.3648 32.2056 68.3648 32.1357V26.8962C68.3648 26.8263 68.3648 26.6866 68.4327 26.6866C68.5007 26.6167 68.5687 26.6167 68.6366 26.6167C68.7046 26.6167 68.8405 26.6167 68.8405 26.6866C68.9084 26.7565 68.9084 26.8263 68.9084 26.8962V32.1357C68.9084 32.2056 68.9084 32.2754 68.8405 32.3453C68.7725 32.3453 68.7046 32.4151 68.6366 32.4151Z" fill="white"/>
<path d="M70.8109 32.4152C70.7429 32.4152 70.675 32.4152 70.607 32.3453C70.5391 32.2755 70.5391 32.2056 70.5391 32.1358V26.8962C70.5391 26.8264 70.5391 26.6867 70.607 26.6867C70.675 26.6168 70.7429 26.6168 70.8109 26.6168C70.8788 26.6168 71.0148 26.6168 71.0148 26.6867C71.0827 26.7565 71.0827 26.8264 71.0827 26.8962V32.1358C71.0827 32.2056 71.0827 32.2755 71.0148 32.3453C70.9468 32.3453 70.8788 32.4152 70.8109 32.4152ZM70.675 28.7825C70.7429 28.2935 70.8109 27.9442 71.0148 27.525C71.2186 27.1757 71.4905 26.8962 71.8302 26.6867C72.17 26.4771 72.5098 26.4072 72.9175 26.4072C73.1894 26.4072 73.3932 26.4072 73.5292 26.4771C73.6651 26.5469 73.733 26.6867 73.6651 26.8264C73.6651 26.9661 73.5971 26.9661 73.5292 27.036C73.4612 27.036 73.3253 27.036 73.2573 27.036C73.1214 27.036 73.0535 27.036 72.9175 27.036C72.5778 27.036 72.238 27.1058 71.9662 27.2456C71.6943 27.3853 71.4905 27.5949 71.3545 27.8743C71.2186 28.1537 71.1507 28.4332 71.1507 28.7825H70.675Z" fill="white"/>
<path d="M76.9945 27.3153C76.9265 27.3153 76.8586 27.3153 76.7906 27.2455C76.7227 27.1756 76.7227 27.1058 76.7227 27.0359C76.7227 26.966 76.7227 26.8962 76.7906 26.8263C76.8586 26.7565 76.9265 26.7565 76.9945 26.7565H79.8487C79.9166 26.7565 79.9846 26.7565 80.0525 26.8263C80.1205 26.8962 80.1205 26.966 80.1205 27.0359C80.1205 27.1058 80.1205 27.1756 80.0525 27.2455C79.9846 27.3153 79.9166 27.3153 79.8487 27.3153H76.9945ZM79.7807 32.4151C79.373 32.4151 79.0332 32.3453 78.7614 32.1357C78.4895 31.9261 78.2177 31.7165 78.0818 31.3672C77.9459 31.0878 77.81 30.6686 77.81 30.3193V24.9401C77.81 24.8702 77.81 24.7305 77.8779 24.7305C77.9459 24.6606 78.0138 24.6606 78.0818 24.6606C78.1497 24.6606 78.2857 24.6606 78.2857 24.7305C78.3536 24.8004 78.3536 24.8702 78.3536 24.9401V30.3193C78.3536 30.7385 78.4895 31.0878 78.7614 31.3672C79.0332 31.6467 79.373 31.7864 79.7128 31.7864H79.9166C79.9846 31.7864 80.1205 31.7864 80.1205 31.8563C80.1884 31.9261 80.1884 31.996 80.1884 32.0658C80.1884 32.1357 80.1884 32.2056 80.1205 32.2754C80.0525 32.3453 79.9846 32.3453 79.9166 32.3453H79.7807V32.4151Z" fill="white"/>
<path d="M83.8591 32.485C83.3154 32.485 82.8397 32.3453 82.364 32.1357C81.9563 31.8562 81.6165 31.5069 81.3447 31.0878C81.0728 30.6686 81.0049 30.1097 81.0049 29.5509C81.0049 28.992 81.1408 28.4331 81.3447 28.0139C81.5485 27.5948 81.8883 27.1756 82.2961 26.966C82.7038 26.6866 83.1795 26.5469 83.7232 26.5469C84.2668 26.5469 84.6746 26.6866 85.0823 26.8962C85.49 27.1756 85.7619 27.4551 86.0337 27.9441C86.2376 28.3632 86.3735 28.8523 86.3735 29.481C86.3735 29.5509 86.3735 29.6207 86.3055 29.6906C86.2376 29.7604 86.1696 29.7604 86.1017 29.7604H81.4806V29.2016H86.2376L85.7619 29.5509C85.7619 29.0618 85.6939 28.6427 85.558 28.2934C85.4221 27.9441 85.1503 27.6646 84.8105 27.4551C84.4707 27.2455 84.1309 27.1756 83.7232 27.1756C83.3154 27.1756 82.9756 27.2455 82.6359 27.4551C82.2961 27.6646 82.0922 27.9441 81.8883 28.2934C81.6845 28.6427 81.6165 29.0618 81.6165 29.5509C81.6165 30.0399 81.6845 30.459 81.8883 30.8083C82.0922 31.1576 82.364 31.4371 82.7038 31.6467C83.0436 31.8562 83.4513 31.9261 83.8591 31.9261C84.1309 31.9261 84.4027 31.8562 84.6746 31.7864C84.9464 31.7165 85.1503 31.5768 85.3541 31.4371C85.4221 31.3672 85.49 31.3672 85.558 31.3672C85.626 31.3672 85.6939 31.3672 85.7619 31.4371C85.8298 31.5069 85.8978 31.5768 85.8978 31.6467C85.8978 31.7165 85.8978 31.7864 85.8298 31.8562C85.626 32.0658 85.2862 32.2055 84.9464 32.3453C84.6066 32.485 84.1989 32.485 83.8591 32.485Z" fill="white"/>
<path d="M87.6644 32.4152C87.5964 32.4152 87.5285 32.4152 87.4605 32.3453C87.3926 32.2755 87.3926 32.2056 87.3926 32.1358V26.8962C87.3926 26.8264 87.3926 26.6867 87.4605 26.6867C87.5285 26.6168 87.5964 26.6168 87.6644 26.6168C87.7324 26.6168 87.8683 26.6168 87.8683 26.6867C87.9362 26.7565 87.9362 26.8264 87.9362 26.8962V32.1358C87.9362 32.2056 87.9362 32.2755 87.8683 32.3453C87.8683 32.3453 87.8003 32.4152 87.6644 32.4152ZM87.5964 28.7825C87.6644 28.2935 87.7324 27.9442 87.9362 27.525C88.1401 27.1757 88.4119 26.8962 88.7517 26.6867C89.0915 26.4771 89.4313 26.4072 89.839 26.4072C90.1108 26.4072 90.3147 26.4072 90.4506 26.4771C90.5865 26.5469 90.6545 26.6867 90.5865 26.8264C90.5865 26.9661 90.5186 26.9661 90.4506 27.036C90.3827 27.036 90.2468 27.036 90.1788 27.036C90.0429 27.036 89.9749 27.036 89.839 27.036C89.4992 27.036 89.1594 27.1058 88.8876 27.2456C88.6158 27.3853 88.4119 27.5949 88.276 27.8743C88.1401 28.1537 88.0721 28.4332 88.0721 28.7825H87.5964Z" fill="white"/>
<path d="M91.9447 32.4152C91.8767 32.4152 91.8088 32.4152 91.7408 32.3453C91.6729 32.2755 91.6729 32.2056 91.6729 32.1357V26.8962C91.6729 26.8264 91.6729 26.6866 91.7408 26.6866C91.8088 26.6168 91.8767 26.6168 91.9447 26.6168C92.0126 26.6168 92.1486 26.6168 92.1486 26.6866C92.2165 26.7565 92.2165 26.8264 92.2165 26.8962V32.1357C92.2165 32.2056 92.2165 32.2755 92.1486 32.3453C92.1486 32.3453 92.0806 32.4152 91.9447 32.4152ZM95.7502 32.4152C95.6823 32.4152 95.6143 32.4152 95.5464 32.3453C95.4784 32.2755 95.4784 32.2056 95.4784 32.1357V28.992C95.4784 28.4331 95.3425 28.014 95.0707 27.6647C94.7989 27.3154 94.3911 27.1058 93.9834 27.1058C93.5077 27.1058 93.0999 27.2455 92.8281 27.5948C92.4883 27.9441 92.3524 28.2934 92.3524 28.8523H91.7408C91.7408 28.3633 91.8767 28.014 92.0806 27.6647C92.2845 27.3154 92.5563 27.0359 92.8281 26.8264C93.1679 26.6168 93.5077 26.5469 93.9154 26.5469C94.3232 26.5469 94.7309 26.6866 95.0707 26.8962C95.4105 27.1058 95.6143 27.3852 95.8182 27.8044C96.0221 28.1537 96.09 28.6427 96.09 29.1317V32.2755C96.09 32.3453 96.09 32.4152 96.0221 32.485C95.9541 32.3453 95.8862 32.4152 95.7502 32.4152ZM99.5558 32.4152C99.4879 32.4152 99.4199 32.4152 99.3519 32.3453C99.284 32.2755 99.284 32.2056 99.284 32.1357V28.992C99.284 28.4331 99.1481 28.014 98.8763 27.6647C98.6044 27.3154 98.1967 27.1058 97.7889 27.1058C97.3132 27.1058 96.9055 27.2455 96.6337 27.5948C96.3619 27.9441 96.158 28.3633 96.2259 28.9222H95.6143C95.6143 28.4331 95.7502 28.014 95.9541 27.5948C96.158 27.2455 96.4298 26.9661 96.7696 26.7565C97.1094 26.5469 97.5171 26.4771 97.9249 26.4771C98.3326 26.4771 98.7403 26.6168 99.0801 26.8264C99.4199 27.0359 99.6238 27.3154 99.8276 27.7345C100.032 28.0838 100.099 28.5729 100.099 29.0619V32.2056C100.099 32.2755 100.099 32.3453 100.032 32.4152C99.6917 32.3453 99.6238 32.4152 99.5558 32.4152Z" fill="white"/>
<path d="M103.158 32.4851C102.818 32.4851 102.41 32.4152 102.002 32.2755C101.595 32.1358 101.255 31.9262 100.983 31.5769C100.915 31.507 100.915 31.4372 100.915 31.3673C100.915 31.2974 100.983 31.2276 101.051 31.1577C101.119 31.0879 101.187 31.0879 101.255 31.0879C101.323 31.0879 101.391 31.1577 101.459 31.2276C101.663 31.507 101.934 31.6468 102.206 31.7166C102.478 31.7865 102.818 31.8563 103.158 31.8563C103.769 31.8563 104.177 31.7166 104.381 31.507C104.653 31.2974 104.721 31.018 104.721 30.7386C104.721 30.4591 104.585 30.2495 104.313 30.04C104.041 29.8304 103.633 29.6907 103.09 29.6208C102.41 29.5509 101.866 29.3414 101.527 29.0619C101.187 28.7825 101.051 28.4332 101.051 28.0839C101.051 27.7346 101.119 27.3853 101.323 27.1757C101.527 26.8963 101.731 26.7565 102.07 26.6168C102.342 26.4771 102.75 26.4072 103.09 26.4072C103.565 26.4072 103.973 26.4771 104.313 26.6867C104.653 26.8962 104.924 27.1058 105.128 27.3853C105.196 27.4551 105.196 27.525 105.196 27.5949C105.196 27.6647 105.128 27.7346 105.06 27.8044C104.992 27.8743 104.925 27.8743 104.857 27.8044C104.789 27.8044 104.721 27.7346 104.653 27.6647C104.449 27.4551 104.245 27.2456 104.041 27.1757C103.769 27.036 103.497 26.9661 103.158 26.9661C102.75 26.9661 102.342 27.036 102.138 27.2456C101.934 27.4551 101.798 27.6647 101.798 27.9442C101.798 28.1537 101.866 28.2935 101.934 28.4332C102.002 28.5729 102.206 28.7126 102.41 28.7825C102.614 28.8523 102.954 28.9921 103.361 28.9921C103.905 29.0619 104.313 29.2016 104.585 29.3414C104.857 29.4811 105.128 29.6907 105.264 29.9701C105.4 30.1797 105.468 30.4591 105.468 30.6687C105.468 31.018 105.332 31.2974 105.128 31.5769C104.924 31.8563 104.653 31.9961 104.313 32.1358C103.973 32.4152 103.565 32.4851 103.158 32.4851Z" fill="white"/>
<path d="M106.555 32.415C106.419 32.415 106.284 32.3451 106.148 32.2753C106.08 32.2054 106.012 32.0657 106.012 31.8561C106.012 31.7164 106.08 31.5766 106.148 31.4369C106.284 31.3671 106.352 31.2972 106.555 31.2972C106.691 31.2972 106.827 31.3671 106.895 31.4369C106.963 31.5068 107.031 31.6465 107.031 31.7862C107.031 31.926 106.963 32.0657 106.895 32.2054C106.827 32.3451 106.759 32.415 106.555 32.415ZM106.555 30.5287C106.487 30.5287 106.419 30.5287 106.352 30.4589C106.284 30.389 106.284 30.3192 106.284 30.2493V24.3112C106.284 24.2413 106.284 24.1016 106.352 24.1016C106.419 24.0317 106.487 24.0317 106.555 24.0317C106.623 24.0317 106.691 24.0317 106.759 24.1016C106.827 24.1715 106.827 24.2413 106.827 24.3112V30.2493C106.827 30.3192 106.827 30.389 106.759 30.4589C106.691 30.5287 106.691 30.5287 106.555 30.5287Z" fill="white"/>
<path d="M108.051 20.2594H107.983V20.1895V20.1197H108.051H109.207H109.275V20.1895V20.2594H109.207H108.051ZM108.595 21.7963H108.527V21.7264V20.0498H108.731V21.7264V21.7963C108.663 21.7963 108.663 21.7963 108.595 21.7963Z" fill="white"/>
<path d="M109.546 21.7963H109.479V21.7264V20.1895V20.1196H109.546C109.614 20.1196 109.614 20.1196 109.614 20.1895L110.294 21.5867H110.226L110.906 20.1895C110.906 20.1196 110.974 20.1196 110.974 20.1196H111.042V20.1895V21.7264C111.042 21.7264 111.042 21.7963 110.974 21.7963H110.906H110.838V21.7264V20.5388H110.906L110.294 21.7264C110.294 21.7963 110.226 21.7963 110.226 21.7963C110.158 21.7963 110.158 21.7963 110.09 21.7264L109.546 20.5388H109.614V21.7264V21.7963H109.546Z" fill="white"/>
</g>
<defs>
<clipPath id="clip0">
<rect width="144" height="35" fill="white"/>
</clipPath>
</defs>
</svg>
