<svg width="144" height="35" viewBox="0 0 144 35" fill="none" xmlns="http://www.w3.org/2000/svg">
<g clip-path="url(#clip0)">
<path d="M16.9891 0.9082C16.7173 0.628759 16.4455 0.558899 16.0378 0.558899H10.1255H7.27135H1.29117C0.883435 0.558899 0.611609 0.698619 0.339783 0.9082C0.135913 1.11778 0 1.46708 0 1.88624C0 2.30541 0.135913 2.58485 0.339783 2.86429C0.611609 3.14373 0.883435 3.21359 1.29117 3.21359H7.2034V21.0978C7.2034 21.517 7.33931 21.8663 7.61114 22.1457C7.88296 22.4252 8.22274 22.5649 8.63048 22.5649C9.03822 22.5649 9.37801 22.4252 9.64983 22.1457C9.92166 21.8663 10.0576 21.517 10.0576 21.0978V3.21359H15.9698C16.3775 3.21359 16.6494 3.07387 16.9212 2.86429C17.193 2.58485 17.261 2.30541 17.261 1.88624C17.3289 1.46708 17.261 1.11778 16.9891 0.9082Z" fill="#4C002E"/>
<path d="M29.4931 10.8283C28.8136 9.64071 27.9301 8.73253 26.7749 8.03393C25.6196 7.33532 24.3284 6.98602 22.9014 6.98602C21.4743 6.98602 20.1831 7.33532 19.0278 8.03393C17.8726 8.73253 16.9891 9.64071 16.3096 10.8283C15.63 12.016 15.2902 13.3433 15.2902 14.8104C15.2902 16.2774 15.63 17.6048 16.2416 18.7924C16.8532 19.98 17.6687 20.8882 18.756 21.5868C19.8433 22.2854 20.9986 22.6347 22.3577 22.6347C23.7168 22.6347 24.8721 22.2854 25.9594 21.5868C26.639 21.1677 27.1826 20.6786 27.6583 20.0499V21.0978C27.6583 21.517 27.7942 21.8663 28.0661 22.1457C28.3379 22.4251 28.6777 22.5649 29.0854 22.5649C29.4931 22.5649 29.8329 22.4251 30.1048 22.1457C30.3766 21.8663 30.5125 21.517 30.5125 21.0978V14.8104C30.5125 13.3433 30.1727 12.016 29.4931 10.8283ZM25.4837 19.491C24.7362 19.98 23.9207 20.1896 22.9693 20.1896C22.0859 20.1896 21.2024 19.98 20.4549 19.491C19.7074 19.002 19.0958 18.3733 18.6881 17.6048C18.2803 16.8363 18.0085 15.9281 18.0085 14.8802C18.0085 13.8323 18.2124 12.9241 18.6881 12.1557C19.0958 11.3872 19.7074 10.6886 20.4549 10.2695C21.2024 9.78043 22.0179 9.57085 22.9693 9.57085C23.9207 9.57085 24.7362 9.78043 25.4837 10.2695C26.2312 10.7585 26.7749 11.3872 27.1826 12.1557C27.5904 12.9241 27.7942 13.8323 27.7942 14.8802C27.7942 15.8583 27.5904 16.7665 27.1826 17.6048C26.7749 18.3733 26.2312 19.002 25.4837 19.491Z" fill="#4C002E"/>
<path d="M45.5989 16.0679C45.2591 15.509 44.6475 15.02 43.9 14.5309C43.0845 14.1118 41.9972 13.7625 40.638 13.483C39.6187 13.2734 38.8712 13.0639 38.3955 12.8543C37.8518 12.6447 37.512 12.3653 37.3761 12.0858C37.1723 11.8064 37.1043 11.5269 37.1043 11.1776C37.1043 10.6188 37.3761 10.1996 37.9198 9.92016C38.4634 9.64071 39.143 9.50099 39.9585 9.50099C40.638 9.50099 41.2496 9.57085 41.7933 9.78043C42.337 9.92016 42.8126 10.2695 43.2883 10.6886C43.5602 10.9681 43.9 11.1078 44.3077 11.1776C44.7154 11.2475 45.0552 11.1776 45.327 10.9681C45.5989 10.7585 45.8027 10.479 45.8027 10.1297C45.8027 9.78043 45.7348 9.50099 45.463 9.15169C44.9193 8.45309 44.1718 7.89421 43.2204 7.54491C42.269 7.12574 41.1817 6.98602 40.0264 6.98602C39.075 6.98602 38.1916 7.12574 37.3082 7.47504C36.4247 7.75449 35.7452 8.24351 35.2015 8.87225C34.6579 9.50099 34.386 10.2695 34.386 11.2475C34.386 12.3653 34.7938 13.2734 35.6093 14.0419C36.4247 14.8104 37.7839 15.3693 39.6187 15.7186C41.0458 15.998 42.0651 16.3473 42.6088 16.7665C43.1524 17.1856 43.4243 17.6746 43.4243 18.2335C43.4243 18.7924 43.0845 19.2814 42.5408 19.6307C41.9972 19.98 41.1817 20.1896 40.0944 20.1896C39.2789 20.1896 38.4634 20.0499 37.7839 19.7006C37.1043 19.4212 36.6286 19.0719 36.2888 18.7226C36.017 18.3733 35.7452 18.2335 35.3374 18.1637C34.9976 18.0938 34.5899 18.2335 34.2501 18.513C33.9103 18.7924 33.7744 19.0719 33.7065 19.491C33.6385 19.9102 33.7744 20.1896 34.0462 20.5389C34.6579 21.1677 35.4733 21.6567 36.5606 22.0758C37.6479 22.495 38.8712 22.7046 40.0944 22.7046C41.3856 22.7046 42.4729 22.495 43.3563 22.0758C44.2397 21.6567 44.9193 21.0978 45.327 20.3992C45.8027 19.7006 46.0066 18.9321 46.0066 18.0239C46.0746 17.3253 45.9386 16.6267 45.5989 16.0679Z" fill="#4C002E"/>
<path d="M61.025 20.5389L55.7244 13.8324L60.7532 9.22157C61.025 8.94213 61.1609 8.66269 61.1609 8.31339C61.1609 7.96409 61.093 7.68465 60.8211 7.40521C60.5493 7.12577 60.2775 6.98604 59.9377 6.98604C59.5979 6.98604 59.2581 7.0559 58.9863 7.33535L52.3266 13.4132V1.88624C52.3266 1.46708 52.1906 1.11778 51.9868 0.9082C51.7149 0.628759 51.4431 0.558899 51.0354 0.558899C50.6276 0.558899 50.2879 0.698619 50.084 0.9082C49.8122 1.18764 49.7442 1.46708 49.7442 1.88624V21.1677C49.7442 21.5868 49.8801 21.9361 50.084 22.1457C50.2879 22.3553 50.6276 22.495 51.0354 22.495C51.4431 22.495 51.7829 22.3553 51.9868 22.1457C52.2586 21.8663 52.3266 21.5868 52.3266 21.1677V16.8363L53.6857 15.5789L58.9183 22.2156C59.1902 22.495 59.462 22.7046 59.8018 22.7046C60.1416 22.7046 60.4813 22.6347 60.7532 22.3553C61.093 22.0759 61.2289 21.7964 61.2289 21.4471C61.3648 21.1677 61.2289 20.8184 61.025 20.5389Z" fill="#4C002E"/>
<path d="M67.0052 7.12576C66.5974 7.12576 66.2577 7.26548 65.9858 7.54492C65.714 7.82437 65.5781 8.17367 65.5781 8.59283V21.1677C65.5781 21.5868 65.714 21.9361 65.9858 22.2156C66.2577 22.495 66.5974 22.6347 67.0052 22.6347C67.4129 22.6347 67.7527 22.495 68.0245 22.2156C68.2964 21.9361 68.4323 21.5868 68.4323 21.1677V8.59283C68.4323 8.17367 68.2964 7.82437 68.0245 7.54492C67.7527 7.26548 67.4129 7.12576 67.0052 7.12576Z" fill="#4C002E"/>
<path d="M67.0052 4.6108C67.4809 4.6108 67.9566 4.40122 68.2964 4.05192C68.6362 3.70262 68.84 3.2136 68.84 2.72458C68.84 2.23555 68.6362 1.81639 68.2284 1.39723C67.8886 1.04793 67.4129 0.838348 66.9372 0.838348C66.4615 0.838348 65.9859 1.04793 65.6461 1.39723C65.3063 1.74653 65.1024 2.23555 65.1024 2.72458C65.1024 3.2136 65.3063 3.70262 65.6461 4.05192C66.0538 4.40122 66.4615 4.6108 67.0052 4.6108Z" fill="#4C002E"/>
<path d="M86.8485 10.2695C86.3049 9.22155 85.4894 8.38323 84.47 7.82435C83.4507 7.26546 82.3634 6.98602 81.0722 6.98602C79.849 6.98602 78.7617 7.26546 77.8103 7.82435C77.2666 8.10379 76.7909 8.45309 76.3832 8.87225V8.59281C76.3832 8.17365 76.2473 7.82435 75.9755 7.54491C75.7036 7.26546 75.3639 7.12574 74.9561 7.12574C74.5484 7.12574 74.2086 7.26546 73.9368 7.54491C73.6649 7.82435 73.529 8.17365 73.529 8.59281V21.2375C73.529 21.6567 73.6649 22.006 73.9368 22.2854C74.2086 22.5649 74.5484 22.7046 74.9561 22.7046C75.3639 22.7046 75.7036 22.5649 75.9755 22.2854C76.2473 22.006 76.3832 21.6567 76.3832 21.2375V13.2036C76.3832 12.505 76.5871 11.8762 76.9268 11.3174C77.2666 10.7585 77.8103 10.3393 78.4219 10.0599C79.0335 9.71057 79.7131 9.57085 80.5285 9.57085C81.344 9.57085 82.0916 9.71057 82.7711 10.0599C83.4507 10.4092 83.9264 10.8982 84.3341 11.5968C84.7419 12.2954 84.9457 13.1337 84.9457 14.2515V21.2375C84.9457 21.6567 85.0816 22.006 85.3535 22.2854C85.6253 22.5649 85.9651 22.7046 86.3728 22.7046C86.7805 22.7046 87.1203 22.5649 87.3922 22.2854C87.664 22.006 87.7999 21.6567 87.7999 21.2375V14.2515C87.7319 12.6447 87.3922 11.3174 86.8485 10.2695Z" fill="#4C002E"/>
<path d="M105.74 10.8283C105.061 9.64071 104.177 8.73253 103.022 8.03393C101.867 7.33532 100.576 6.98602 99.1486 6.98602C97.7216 6.98602 96.4304 7.33532 95.2751 8.03393C94.1199 8.73253 93.2364 9.64071 92.5569 10.8283C91.8773 12.016 91.5375 13.3433 91.5375 14.8104C91.5375 16.2774 91.8773 17.6048 92.4889 18.7924C93.1005 19.98 93.916 20.8882 95.0033 21.5868C96.0906 22.2854 97.2459 22.6347 98.605 22.6347C99.9641 22.6347 101.119 22.2854 102.207 21.5868C102.886 21.1677 103.43 20.6786 103.906 20.0499V21.0978C103.906 21.517 104.042 21.8663 104.313 22.1457C104.585 22.4251 104.925 22.5649 105.333 22.5649C105.74 22.5649 106.08 22.4251 106.352 22.1457C106.624 21.8663 106.76 21.517 106.76 21.0978V14.8104C106.76 13.3433 106.42 12.016 105.74 10.8283ZM101.663 19.491C100.916 19.98 100.1 20.1896 99.1486 20.1896C98.2652 20.1896 97.3818 19.98 96.6342 19.491C95.8867 19.002 95.2751 18.3733 94.8674 17.6048C94.4596 16.8363 94.1878 15.9281 94.1878 14.8802C94.1878 13.8323 94.3917 12.9241 94.8674 12.1557C95.2751 11.3872 95.8867 10.6886 96.6342 10.2695C97.3818 9.78043 98.1972 9.57085 99.1486 9.57085C100.1 9.57085 100.916 9.78043 101.663 10.2695C102.411 10.7585 102.954 11.3872 103.362 12.1557C103.77 12.9241 103.974 13.8323 103.974 14.8802C103.974 15.8583 103.77 16.7665 103.362 17.6048C103.022 18.3733 102.411 19.002 101.663 19.491Z" fill="#4C002E"/>
<path d="M126.671 6.49699C121.302 7.19559 115.526 7.54489 109.41 7.61475C115.594 11.5269 121.438 13.0639 127.079 12.3653C132.719 11.6667 138.02 8.66266 143.117 3.28342C137.544 4.75048 132.04 5.79839 126.671 6.49699Z" fill="#ECB32E"/>
<path d="M123.681 17.2555C121.71 22.8443 119.4 28.1537 116.817 33.1138C122.933 29.2016 127.011 24.4511 128.914 18.9321C130.816 13.4132 130.681 7.12575 128.438 0C127.215 5.93812 125.652 11.6667 123.681 17.2555Z" fill="#2EB67D"/>
<path d="M125.72 16.487C124.496 21.9361 122.933 27.8743 121.031 34.3014C126.671 29.6208 130.137 24.4511 131.428 18.7226C132.719 12.994 131.768 6.77645 128.71 0C127.962 5.51896 126.943 10.9681 125.72 16.487Z" fill="#34C5F0"/>
<path d="M128.166 8.1038C122.798 9.78045 117.293 11.2475 111.517 12.505C118.244 15.2295 124.293 15.7186 129.729 14.0419C135.166 12.2954 139.923 8.38324 144 2.23553C138.835 4.4012 133.535 6.35729 128.166 8.1038Z" fill="#E0245A"/>
<path d="M7.40726 32.4152C7.33931 32.4152 7.27135 32.4152 7.20339 32.3453C7.13544 32.2755 7.13544 32.2056 7.13544 32.1357V24.3114C7.13544 24.2415 7.13544 24.1717 7.20339 24.1018C7.27135 24.032 7.33931 24.032 7.40726 24.032C7.47522 24.032 7.54318 24.032 7.61113 24.1018C7.67909 24.1717 7.67909 24.2415 7.67909 24.3114V27.8743H12.9797V24.3114C12.9797 24.2415 12.9797 24.1717 13.0477 24.1018C13.1156 24.032 13.1836 24.032 13.2515 24.032C13.3195 24.032 13.3874 24.032 13.4554 24.1018C13.5234 24.1717 13.5234 24.2415 13.5234 24.3114V32.0659C13.5234 32.1357 13.5234 32.2056 13.4554 32.2755C13.3874 32.3453 13.3195 32.3453 13.2515 32.3453C13.1836 32.3453 13.1156 32.3453 13.0477 32.2755C12.9797 32.2056 12.9797 32.1357 12.9797 32.0659V28.4332H7.67909V32.0659C7.67909 32.1357 7.67909 32.2056 7.61113 32.2755C7.54318 32.3453 7.47522 32.4152 7.40726 32.4152Z" fill="#4C002E"/>
<path d="M17.8046 32.485C17.261 32.485 16.7853 32.3453 16.3096 32.1357C15.9018 31.8563 15.562 31.507 15.2902 31.0878C15.0864 30.5289 14.9504 30.0399 14.9504 29.481C14.9504 28.9222 15.0864 28.3633 15.2902 27.9441C15.4941 27.525 15.8339 27.1058 16.2416 26.8962C16.6494 26.6168 17.1251 26.4771 17.6687 26.4771C18.2124 26.4771 18.6201 26.6168 19.0278 26.8264C19.4356 27.1058 19.7074 27.3852 19.9792 27.8743C20.1831 28.2934 20.319 28.7824 20.319 29.4112C20.319 29.481 20.319 29.5509 20.2511 29.6208C20.1831 29.6906 20.1151 29.6906 20.0472 29.6906H15.4261V29.1317H20.1831L19.7074 29.481C19.7074 28.992 19.6394 28.5729 19.5035 28.2236C19.3676 27.8743 19.0958 27.5948 18.756 27.3852C18.4162 27.1757 18.0764 27.1058 17.6687 27.1058C17.261 27.1058 16.9212 27.1757 16.5814 27.3852C16.2416 27.5948 16.0377 27.8743 15.8339 28.2236C15.63 28.5729 15.562 28.992 15.562 29.481C15.562 29.9701 15.63 30.3892 15.8339 30.7385C16.0377 31.0878 16.3096 31.3673 16.6494 31.5768C16.9891 31.7864 17.3969 31.8563 17.8046 31.8563C18.0764 31.8563 18.3483 31.7864 18.6201 31.7166C18.8919 31.6467 19.0958 31.507 19.2997 31.3673C19.3676 31.2974 19.4356 31.2974 19.5035 31.2974C19.5715 31.2974 19.6394 31.2974 19.7074 31.3673C19.7754 31.4371 19.8433 31.507 19.8433 31.5768C19.8433 31.6467 19.8433 31.7166 19.7754 31.7864C19.5715 31.996 19.2317 32.1357 18.8919 32.2754C18.4842 32.4152 18.1444 32.485 17.8046 32.485Z" fill="#4C002E"/>
<path d="M22.4936 32.4152C22.2218 32.4152 22.018 32.3453 21.8141 32.2056C21.6102 32.0659 21.4743 31.8563 21.3384 31.5769C21.2025 31.2974 21.1345 31.018 21.1345 30.6687V24.3114C21.1345 24.2415 21.1345 24.1018 21.2025 24.1018C21.2704 24.032 21.3384 24.032 21.4063 24.032C21.4743 24.032 21.6102 24.032 21.6102 24.1018C21.6782 24.1717 21.6782 24.2415 21.6782 24.3114V30.6687C21.6782 31.018 21.7461 31.2974 21.882 31.507C22.018 31.7166 22.2218 31.8563 22.4257 31.8563H22.6975C22.7655 31.8563 22.8334 31.8563 22.9014 31.9262C22.9693 31.996 22.9693 32.0659 22.9693 32.1357C22.9693 32.2056 22.9693 32.2755 22.9014 32.3453C22.8334 32.4152 22.7655 32.4152 22.6975 32.4152H22.4936Z" fill="#4C002E"/>
<path d="M24.1246 34.9302C24.0567 34.9302 23.9887 34.9302 23.9207 34.8603C23.8528 34.7904 23.8528 34.7206 23.8528 34.6507V29.4112C23.8528 28.8523 23.9887 28.3633 24.2605 27.8743C24.5324 27.4551 24.8721 27.1058 25.2799 26.8264C25.6876 26.5469 26.2313 26.4072 26.7749 26.4072C27.3186 26.4072 27.8622 26.5469 28.27 26.8264C28.7457 27.1058 29.0854 27.4551 29.2893 27.8743C29.5611 28.3633 29.6971 28.8523 29.6971 29.4112C29.6971 29.9701 29.5611 30.4591 29.2893 30.9481C29.0175 31.4371 28.6777 31.7864 28.27 31.996C27.7943 32.2755 27.3186 32.4152 26.7749 32.4152C26.2992 32.4152 25.8235 32.2755 25.4158 32.0659C25.008 31.8563 24.6683 31.5769 24.4644 31.1577V34.511C24.4644 34.5809 24.4644 34.6507 24.3964 34.7206C24.3285 34.9302 24.2605 34.9302 24.1246 34.9302ZM26.7749 31.8563C27.1827 31.8563 27.5904 31.7166 27.9302 31.507C28.27 31.2974 28.5418 31.018 28.7457 30.6687C28.9495 30.3194 29.0175 29.9002 29.0175 29.4112C29.0175 28.9222 28.9495 28.5729 28.7457 28.1537C28.5418 27.8044 28.27 27.525 27.9302 27.3154C27.5904 27.1058 27.1827 26.9661 26.7749 26.9661C26.3672 26.9661 25.9594 27.1058 25.6197 27.3154C25.2799 27.525 25.008 27.8044 24.8042 28.1537C24.6003 28.503 24.5323 28.9222 24.5323 29.4112C24.5323 29.8304 24.6003 30.2495 24.8042 30.6687C25.008 31.018 25.2799 31.2974 25.6197 31.507C25.9594 31.7864 26.2992 31.8563 26.7749 31.8563Z" fill="#4C002E"/>
<path d="M30.8523 34.0918C30.7843 34.0918 30.7164 34.0918 30.7164 34.022C30.6484 34.022 30.6484 33.9521 30.6484 33.8822C30.6484 33.8124 30.6484 33.7425 30.7164 33.6727C30.7843 33.6028 30.8523 33.5329 30.8523 33.3932C30.9202 33.3234 30.9202 33.1836 30.9202 33.0439C30.9202 32.9042 30.9202 32.7645 30.8523 32.6946C30.7843 32.6248 30.7843 32.5549 30.7164 32.485C30.6484 32.4152 30.5804 32.3453 30.5804 32.2755C30.5125 32.2056 30.5125 32.0659 30.5125 31.996C30.5125 31.8563 30.5804 31.7166 30.6484 31.5769C30.7843 31.507 30.8523 31.4371 30.9882 31.4371C31.192 31.4371 31.328 31.507 31.4639 31.6467C31.5998 31.7864 31.6677 31.996 31.6677 32.3453C31.6677 32.5549 31.6677 32.7645 31.5998 32.9042C31.5318 33.1138 31.4639 33.2535 31.3959 33.4631C31.328 33.6028 31.26 33.7425 31.1241 33.8822C31.0561 34.022 30.9882 34.0918 30.8523 34.0918Z" fill="#4C002E"/>
<path d="M38.1916 32.485C37.6479 32.485 37.1043 32.3453 36.6965 32.0659C36.2208 31.7864 35.881 31.4371 35.6772 31.018C35.4054 30.5289 35.2694 30.0399 35.2694 29.481C35.2694 28.9222 35.4054 28.3633 35.6772 27.9441C35.949 27.4551 36.2888 27.1058 36.6965 26.8962C37.1722 26.6168 37.6479 26.4771 38.1916 26.4771C38.7352 26.4771 39.2789 26.6168 39.6866 26.8962C40.0944 27.1757 40.5021 27.525 40.706 27.9441C40.9778 28.4331 41.1137 28.9222 41.1137 29.481C41.1137 30.0399 40.9778 30.5289 40.706 31.018C40.4341 31.507 40.0944 31.8563 39.6866 32.0659C39.2109 32.3453 38.7352 32.485 38.1916 32.485ZM38.1916 31.8563C38.5993 31.8563 39.0071 31.7166 39.3468 31.507C39.6866 31.2974 39.9584 31.018 40.1623 30.6687C40.3662 30.3194 40.4341 29.9002 40.4341 29.4112C40.4341 28.992 40.3662 28.5729 40.1623 28.1537C39.9584 27.8044 39.6866 27.525 39.3468 27.3154C39.0071 27.1058 38.5993 26.9661 38.1916 26.9661C37.7838 26.9661 37.3761 27.1058 37.0363 27.3154C36.6965 27.525 36.4247 27.8044 36.2208 28.1537C36.017 28.503 35.949 28.9222 35.949 29.4112C35.949 29.8303 36.017 30.2495 36.2208 30.6687C36.4247 31.018 36.6965 31.2974 37.0363 31.507C37.3761 31.7864 37.7159 31.8563 38.1916 31.8563Z" fill="#4C002E"/>
<path d="M42.6767 32.4152C42.6087 32.4152 42.5408 32.4152 42.4728 32.3453C42.4049 32.2754 42.4049 32.2056 42.4049 32.1357V26.8962C42.4049 26.8263 42.4049 26.6866 42.4728 26.6866C42.5408 26.6168 42.6087 26.6168 42.6767 26.6168C42.7447 26.6168 42.8806 26.6168 42.8806 26.6866C42.9485 26.7565 42.9485 26.8263 42.9485 26.8962V32.1357C42.9485 32.2056 42.9485 32.2754 42.8806 32.3453C42.8126 32.3453 42.7447 32.4152 42.6767 32.4152ZM47.2977 32.4152C47.2298 32.4152 47.1618 32.4152 47.0939 32.3453C47.0259 32.2754 47.0259 32.2056 47.0259 32.1357V29.2016C47.0259 28.7126 46.958 28.3633 46.7541 28.014C46.5502 27.7345 46.3464 27.4551 46.0066 27.3154C45.7347 27.1756 45.327 27.1058 44.9872 27.1058C44.5795 27.1058 44.2397 27.1756 43.9679 27.3154C43.696 27.4551 43.4242 27.6647 43.2204 27.9441C43.0165 28.2236 42.9485 28.503 42.9485 28.8523H42.4049C42.4049 28.4331 42.5408 28.014 42.8126 27.6647C43.0165 27.3154 43.3563 27.0359 43.6961 26.8263C44.0358 26.6168 44.4436 26.5469 44.9193 26.5469C45.395 26.5469 45.8707 26.6866 46.2784 26.8962C46.6861 27.1058 47.0259 27.3852 47.2298 27.8044C47.4337 28.2236 47.5696 28.7126 47.5696 29.3413V32.2754C47.5696 32.3453 47.5696 32.4152 47.5016 32.485C47.5016 32.3453 47.3657 32.4152 47.2977 32.4152Z" fill="#4C002E"/>
<path d="M53.7536 32.2754C53.6857 32.3453 53.5498 32.3453 53.4818 32.2754C53.4138 32.2754 53.3459 32.2056 53.3459 32.1357L51.0354 26.9661C50.9674 26.8962 50.9674 26.7565 51.0354 26.6866C51.0354 26.6168 51.1033 26.5469 51.1713 26.5469C51.2392 26.477 51.3752 26.477 51.4431 26.5469C51.5111 26.5469 51.579 26.6168 51.579 26.6866L53.8895 31.8563C53.9575 31.9261 53.9575 32.0659 53.8895 32.1357C53.9575 32.1357 53.8895 32.2056 53.7536 32.2754ZM52.6663 35C52.5984 35 52.5984 35 52.5304 35C52.3265 34.9301 52.2586 34.7904 52.3945 34.5808L55.9282 26.6866C55.9962 26.477 56.1321 26.477 56.336 26.5469C56.5399 26.6168 56.6078 26.7565 56.4719 26.9661L52.9382 34.8603C52.8702 34.9301 52.8022 35 52.6663 35Z" fill="#4C002E"/>
<path d="M59.5979 32.485C59.0543 32.485 58.5106 32.3453 58.1029 32.0659C57.6272 31.7864 57.2874 31.4371 57.0835 31.018C56.8117 30.5289 56.6758 30.0399 56.6758 29.481C56.6758 28.9222 56.8117 28.3633 57.0835 27.9441C57.3553 27.4551 57.6951 27.1058 58.1029 26.8962C58.5786 26.6168 59.0543 26.4771 59.5979 26.4771C60.1416 26.4771 60.6852 26.6168 61.093 26.8962C61.5007 27.1757 61.9084 27.525 62.1123 27.9441C62.3841 28.4331 62.52 28.9222 62.52 29.481C62.52 30.0399 62.3841 30.5289 62.1123 31.018C61.8405 31.507 61.5007 31.8563 61.093 32.0659C60.6852 32.3453 60.1416 32.485 59.5979 32.485ZM59.5979 31.8563C60.0056 31.8563 60.4134 31.7166 60.7532 31.507C61.093 31.2974 61.3648 31.018 61.5686 30.6687C61.7725 30.3194 61.8405 29.9002 61.8405 29.4112C61.8405 28.992 61.7725 28.5729 61.5686 28.1537C61.3648 27.8044 61.093 27.525 60.7532 27.3154C60.4134 27.1058 60.0056 26.9661 59.5979 26.9661C59.1902 26.9661 58.7824 27.1058 58.4426 27.3154C58.1029 27.525 57.831 27.8044 57.6272 28.1537C57.4233 28.503 57.3553 28.9222 57.3553 29.4112C57.3553 29.8303 57.4233 30.2495 57.6272 30.6687C57.831 31.018 58.1029 31.2974 58.4426 31.507C58.7824 31.7864 59.1902 31.8563 59.5979 31.8563Z" fill="#4C002E"/>
<path d="M66.3256 32.485C65.8499 32.485 65.3742 32.3453 64.9665 32.1357C64.5587 31.9261 64.2189 31.6467 64.0151 31.2275C63.8112 30.8084 63.6753 30.3193 63.6753 29.7604V26.8263C63.6753 26.7565 63.6753 26.6866 63.7433 26.6167C63.8112 26.5469 63.8792 26.5469 63.9471 26.5469C64.0151 26.5469 64.083 26.5469 64.151 26.6167C64.2189 26.6866 64.2189 26.7565 64.2189 26.8263V29.7604C64.2189 30.2495 64.2869 30.5988 64.4908 30.9481C64.6946 31.2275 64.8985 31.507 65.2383 31.6467C65.5101 31.7864 65.9179 31.8563 66.2576 31.8563C66.6654 31.8563 67.0052 31.7864 67.277 31.6467C67.5488 31.507 67.8207 31.2974 68.0245 31.0179C68.2284 30.7385 68.2964 30.459 68.2964 30.1796H68.84C68.84 30.5988 68.7041 31.0179 68.4323 31.3672C68.2284 31.7165 67.8886 31.996 67.5488 32.2056C67.1411 32.4151 66.7333 32.485 66.3256 32.485ZM68.6361 32.4151C68.5682 32.4151 68.5002 32.4151 68.4323 32.3453C68.3643 32.2754 68.3643 32.2056 68.3643 32.1357V26.8962C68.3643 26.8263 68.3643 26.6866 68.4323 26.6866C68.5002 26.6167 68.5682 26.6167 68.6361 26.6167C68.7041 26.6167 68.84 26.6167 68.84 26.6866C68.908 26.7565 68.908 26.8263 68.908 26.8962V32.1357C68.908 32.2056 68.908 32.2754 68.84 32.3453C68.7721 32.3453 68.7041 32.4151 68.6361 32.4151Z" fill="#4C002E"/>
<path d="M70.8108 32.4151C70.7428 32.4151 70.6749 32.4151 70.6069 32.3453C70.5389 32.2754 70.5389 32.2056 70.5389 32.1357V26.8962C70.5389 26.8263 70.5389 26.6866 70.6069 26.6866C70.6749 26.6167 70.7428 26.6167 70.8108 26.6167C70.8787 26.6167 71.0146 26.6167 71.0146 26.6866C71.0826 26.7565 71.0826 26.8263 71.0826 26.8962V32.1357C71.0826 32.2056 71.0826 32.2754 71.0146 32.3453C70.9467 32.3453 70.8787 32.4151 70.8108 32.4151ZM70.6749 28.7824C70.7428 28.2934 70.8108 27.9441 71.0146 27.5249C71.2185 27.1756 71.4903 26.8962 71.8301 26.6866C72.1699 26.477 72.5097 26.4072 72.9174 26.4072C73.1893 26.4072 73.3931 26.4072 73.529 26.477C73.6649 26.5469 73.7329 26.6866 73.665 26.8263C73.665 26.966 73.597 26.966 73.529 27.0359C73.4611 27.0359 73.3252 27.0359 73.2572 27.0359C73.1213 27.0359 73.0533 27.0359 72.9174 27.0359C72.5776 27.0359 72.2379 27.1058 71.966 27.2455C71.6942 27.3852 71.4903 27.5948 71.3544 27.8742C71.2185 28.1537 71.1505 28.4331 71.1505 28.7824H70.6749Z" fill="#4C002E"/>
<path d="M76.9948 27.3154C76.9268 27.3154 76.8589 27.3154 76.7909 27.2455C76.723 27.1756 76.723 27.1058 76.723 27.0359C76.723 26.9661 76.723 26.8962 76.7909 26.8263C76.8589 26.7565 76.9268 26.7565 76.9948 26.7565H79.849C79.9169 26.7565 79.9849 26.7565 80.0528 26.8263C80.1208 26.8962 80.1208 26.9661 80.1208 27.0359C80.1208 27.1058 80.1208 27.1756 80.0528 27.2455C79.9849 27.3154 79.9169 27.3154 79.849 27.3154H76.9948ZM79.781 32.4152C79.3733 32.4152 79.0335 32.3453 78.7617 32.1357C78.4898 31.9261 78.218 31.7166 78.0821 31.3673C77.9462 31.0878 77.8103 30.6687 77.8103 30.3194V24.9401C77.8103 24.8703 77.8103 24.7305 77.8782 24.7305C77.9462 24.6607 78.0141 24.6607 78.0821 24.6607C78.1501 24.6607 78.286 24.6607 78.286 24.7305C78.3539 24.8004 78.3539 24.8703 78.3539 24.9401V30.3194C78.3539 30.7385 78.4898 31.0878 78.7617 31.3673C79.0335 31.6467 79.3733 31.7864 79.7131 31.7864H79.9169C79.9849 31.7864 80.1208 31.7864 80.1208 31.8563C80.1888 31.9261 80.1888 31.996 80.1888 32.0659C80.1888 32.1357 80.1888 32.2056 80.1208 32.2754C80.0528 32.3453 79.9849 32.3453 79.9169 32.3453H79.781V32.4152Z" fill="#4C002E"/>
<path d="M83.8584 32.485C83.3148 32.485 82.8391 32.3453 82.3634 32.1357C81.9556 31.8563 81.6159 31.507 81.344 31.0878C81.0722 30.6686 81.0042 30.1097 81.0042 29.5509C81.0042 28.992 81.1402 28.4331 81.344 28.0139C81.5479 27.5948 81.8877 27.1756 82.2954 26.966C82.7032 26.6866 83.1789 26.5469 83.7225 26.5469C84.2662 26.5469 84.6739 26.6866 85.0817 26.8962C85.4894 27.1756 85.7612 27.4551 86.033 27.9441C86.2369 28.3632 86.3728 28.8523 86.3728 29.481C86.3728 29.5509 86.3728 29.6207 86.3049 29.6906C86.2369 29.7604 86.169 29.7604 86.101 29.7604H81.4799V29.2016H86.2369L85.7612 29.5509C85.7612 29.0618 85.6933 28.6427 85.5574 28.2934C85.4214 27.9441 85.1496 27.6646 84.8098 27.4551C84.47 27.2455 84.1303 27.1756 83.7225 27.1756C83.3148 27.1756 82.975 27.2455 82.6352 27.4551C82.2954 27.6646 82.0916 27.9441 81.8877 28.2934C81.6838 28.6427 81.6159 29.0618 81.6159 29.5509C81.6159 30.0399 81.6838 30.459 81.8877 30.8083C82.0916 31.1577 82.3634 31.4371 82.7032 31.6467C83.0429 31.8563 83.4507 31.9261 83.8584 31.9261C84.1303 31.9261 84.4021 31.8563 84.6739 31.7864C84.9457 31.7165 85.1496 31.5768 85.3535 31.4371C85.4214 31.3672 85.4894 31.3672 85.5574 31.3672C85.6253 31.3672 85.6933 31.3672 85.7612 31.4371C85.8292 31.507 85.8971 31.5768 85.8971 31.6467C85.8971 31.7165 85.8971 31.7864 85.8292 31.8563C85.6253 32.0658 85.2855 32.2056 84.9457 32.3453C84.606 32.485 84.1982 32.485 83.8584 32.485Z" fill="#4C002E"/>
<path d="M87.664 32.4151C87.596 32.4151 87.5281 32.4151 87.4601 32.3453C87.3921 32.2754 87.3922 32.2056 87.3922 32.1357V26.8962C87.3922 26.8263 87.3921 26.6866 87.4601 26.6866C87.5281 26.6167 87.596 26.6167 87.664 26.6167C87.7319 26.6167 87.8678 26.6167 87.8678 26.6866C87.9358 26.7565 87.9358 26.8263 87.9358 26.8962V32.1357C87.9358 32.2056 87.9358 32.2754 87.8678 32.3453C87.8678 32.3453 87.7999 32.4151 87.664 32.4151ZM87.596 28.7824C87.664 28.2934 87.7319 27.9441 87.9358 27.5249C88.1397 27.1756 88.4115 26.8962 88.7513 26.6866C89.0911 26.477 89.4308 26.4072 89.8386 26.4072C90.1104 26.4072 90.3143 26.4072 90.4502 26.477C90.5861 26.5469 90.6541 26.6866 90.5861 26.8263C90.5861 26.966 90.5182 26.966 90.4502 27.0359C90.3822 27.0359 90.2463 27.0359 90.1784 27.0359C90.0425 27.0359 89.9745 27.0359 89.8386 27.0359C89.4988 27.0359 89.159 27.1058 88.8872 27.2455C88.6154 27.3852 88.4115 27.5948 88.2756 27.8742C88.1397 28.1537 88.0717 28.4331 88.0717 28.7824H87.596Z" fill="#4C002E"/>
<path d="M91.9452 32.4152C91.8773 32.4152 91.8093 32.4152 91.7414 32.3453C91.6734 32.2755 91.6734 32.2056 91.6734 32.1357V26.8962C91.6734 26.8264 91.6734 26.6866 91.7414 26.6866C91.8093 26.6168 91.8773 26.6168 91.9452 26.6168C92.0132 26.6168 92.1491 26.6168 92.1491 26.6866C92.2171 26.7565 92.2171 26.8264 92.2171 26.8962V32.1357C92.2171 32.2056 92.2171 32.2755 92.1491 32.3453C92.1491 32.3453 92.0811 32.4152 91.9452 32.4152ZM95.7508 32.4152C95.6828 32.4152 95.6149 32.4152 95.5469 32.3453C95.479 32.2755 95.479 32.2056 95.479 32.1357V28.992C95.479 28.4331 95.343 28.014 95.0712 27.6647C94.7994 27.3154 94.3917 27.1058 93.9839 27.1058C93.5082 27.1058 93.1005 27.2455 92.8287 27.5948C92.4889 27.9441 92.353 28.2934 92.353 28.8523H91.7414C91.7414 28.3633 91.8773 28.014 92.0811 27.6647C92.285 27.3154 92.5568 27.0359 92.8287 26.8264C93.1685 26.6168 93.5082 26.5469 93.916 26.5469C94.3237 26.5469 94.7314 26.6866 95.0712 26.8962C95.411 27.1058 95.6149 27.3852 95.8187 27.8044C96.0226 28.1537 96.0906 28.6427 96.0906 29.1317V32.2755C96.0906 32.3453 96.0906 32.4152 96.0226 32.485C95.9547 32.3453 95.8867 32.4152 95.7508 32.4152ZM99.5564 32.4152C99.4884 32.4152 99.4204 32.4152 99.3525 32.3453C99.2845 32.2755 99.2845 32.2056 99.2845 32.1357V28.992C99.2845 28.4331 99.1486 28.014 98.8768 27.6647C98.605 27.3154 98.1972 27.1058 97.7895 27.1058C97.3138 27.1058 96.906 27.2455 96.6342 27.5948C96.3624 27.9441 96.1585 28.3633 96.2265 28.9222H95.6149C95.6149 28.4331 95.7508 28.014 95.9547 27.5948C96.1585 27.2455 96.4304 26.9661 96.7701 26.7565C97.1099 26.5469 97.5177 26.4771 97.9254 26.4771C98.3331 26.4771 98.7409 26.6168 99.0807 26.8264C99.4204 27.0359 99.6243 27.3154 99.8282 27.7345C100.032 28.0838 100.1 28.5729 100.1 29.0619V32.2056C100.1 32.2755 100.1 32.3453 100.032 32.4152C99.6923 32.3453 99.6243 32.4152 99.5564 32.4152Z" fill="#4C002E"/>
<path d="M103.158 32.485C102.818 32.485 102.411 32.4152 102.003 32.2755C101.595 32.1357 101.255 31.9262 100.983 31.5769C100.916 31.507 100.916 31.4371 100.916 31.3673C100.916 31.2974 100.983 31.2276 101.051 31.1577C101.119 31.0878 101.187 31.0878 101.255 31.0878C101.323 31.0878 101.391 31.1577 101.459 31.2276C101.663 31.507 101.935 31.6467 102.207 31.7166C102.479 31.7864 102.818 31.8563 103.158 31.8563C103.77 31.8563 104.177 31.7166 104.381 31.507C104.653 31.2974 104.721 31.018 104.721 30.7385C104.721 30.4591 104.585 30.2495 104.313 30.0399C104.042 29.8304 103.634 29.6906 103.09 29.6208C102.411 29.5509 101.867 29.3413 101.527 29.0619C101.187 28.7824 101.051 28.4331 101.051 28.0838C101.051 27.7345 101.119 27.3852 101.323 27.1757C101.527 26.8962 101.731 26.7565 102.071 26.6168C102.343 26.4771 102.75 26.4072 103.09 26.4072C103.566 26.4072 103.974 26.4771 104.313 26.6866C104.653 26.8962 104.925 27.1058 105.129 27.3852C105.197 27.4551 105.197 27.525 105.197 27.5948C105.197 27.6647 105.129 27.7345 105.061 27.8044C104.993 27.8743 104.925 27.8743 104.857 27.8044C104.789 27.8044 104.721 27.7345 104.653 27.6647C104.449 27.4551 104.245 27.2455 104.042 27.1757C103.77 27.0359 103.498 26.9661 103.158 26.9661C102.75 26.9661 102.343 27.0359 102.139 27.2455C101.935 27.4551 101.799 27.6647 101.799 27.9441C101.799 28.1537 101.867 28.2934 101.935 28.4331C102.003 28.5729 102.207 28.7126 102.411 28.7824C102.614 28.8523 102.954 28.992 103.362 28.992C103.906 29.0619 104.313 29.2016 104.585 29.3413C104.857 29.481 105.129 29.6906 105.265 29.9701C105.401 30.1797 105.469 30.4591 105.469 30.6687C105.469 31.018 105.333 31.2974 105.129 31.5769C104.925 31.8563 104.653 31.996 104.313 32.1357C103.974 32.4152 103.566 32.485 103.158 32.485Z" fill="#4C002E"/>
<path d="M106.556 32.4152C106.42 32.4152 106.284 32.3453 106.148 32.2755C106.08 32.2056 106.012 32.0659 106.012 31.8563C106.012 31.7166 106.08 31.5769 106.148 31.4371C106.284 31.3673 106.352 31.2974 106.556 31.2974C106.692 31.2974 106.828 31.3673 106.896 31.4371C106.964 31.507 107.032 31.6467 107.032 31.7864C107.032 31.9262 106.964 32.0659 106.896 32.2056C106.828 32.3453 106.76 32.4152 106.556 32.4152ZM106.556 30.529C106.488 30.529 106.42 30.529 106.352 30.4591C106.284 30.3892 106.284 30.3194 106.284 30.2495V24.3114C106.284 24.2415 106.284 24.1018 106.352 24.1018C106.42 24.032 106.488 24.032 106.556 24.032C106.624 24.032 106.692 24.032 106.76 24.1018C106.828 24.1717 106.828 24.2415 106.828 24.3114V30.2495C106.828 30.3194 106.828 30.3892 106.76 30.4591C106.692 30.529 106.692 30.529 106.556 30.529Z" fill="#4C002E"/>
<path d="M108.051 20.2595H107.983V20.1896V20.1198H108.051H109.206H109.274V20.1896V20.2595H109.206H108.051ZM108.595 21.7964H108.527V21.7265V20.0499H108.731V21.7265V21.7964C108.663 21.7964 108.663 21.7964 108.595 21.7964Z" fill="#4C002E"/>
<path d="M109.546 21.7964H109.478V21.7266V20.1896V20.1198H109.546C109.614 20.1198 109.614 20.1198 109.614 20.1896L110.294 21.5869H110.226L110.905 20.1896C110.905 20.1198 110.973 20.1198 110.973 20.1198H111.041V20.1896V21.7266C111.041 21.7266 111.041 21.7964 110.973 21.7964H110.905H110.837V21.7266V20.5389H110.905L110.294 21.7266C110.294 21.7964 110.226 21.7964 110.226 21.7964C110.158 21.7964 110.158 21.7964 110.09 21.7266L109.546 20.5389H109.614V21.7266V21.7964H109.546Z" fill="#4C002E"/>
</g>
<defs>
<clipPath id="clip0">
<rect width="144" height="35" fill="white"/>
</clipPath>
</defs>
</svg>
