<svg width="20" height="20" viewBox="0 0 20 20" fill="none" xmlns="http://www.w3.org/2000/svg">
<path d="M17.1 2.9C15.2 1 12.7 0 10 0C7.3 0 4.8 1 2.9 2.9C1 4.8 0 7.3 0 10C0 12.7 1 15.2 2.9 17.1C4.8 19 7.3 20 10 20C12.7 20 15.2 19 17.1 17.1C19 15.2 20 12.7 20 10C20 7.3 19 4.8 17.1 2.9ZM18.1 10C18.1 14.5 14.5 18.1 10 18.1C5.5 18.1 1.9 14.5 1.9 10C1.9 5.5 5.5 1.9 10 1.9C14.5 1.9 18.1 5.5 18.1 10Z" fill="#D2D2D2"/>
<path d="M14.1 11.0998C14.1 11.0998 13.8 11.8998 13.2 12.6998C12.4 13.6998 11.3 14.1998 10.1 14.1998C8.8 14.1998 7.7 13.6998 6.9 12.6998C6.2 11.8998 5.9 11.0998 5.9 11.0998L5.8 10.8998L4 11.4998V11.6998C4 11.6998 4.4 12.7998 5.3 13.7998C6.6 15.1998 8.2 15.9998 10 15.9998C11.8 15.9998 13.4 15.1998 14.6 13.7998C15.5 12.6998 15.8 11.6998 15.8 11.5998L15.9 11.3998L14.1 10.7998V11.0998Z" fill="#D2D2D2"/>
<path d="M6.59995 8.5002C7.37315 8.5002 7.99995 7.87339 7.99995 7.1002C7.99995 6.327 7.37315 5.7002 6.59995 5.7002C5.82675 5.7002 5.19995 6.327 5.19995 7.1002C5.19995 7.87339 5.82675 8.5002 6.59995 8.5002Z" fill="#D2D2D2"/>
<path d="M13.4 8.5002C14.1732 8.5002 14.8 7.87339 14.8 7.1002C14.8 6.327 14.1732 5.7002 13.4 5.7002C12.6268 5.7002 12 6.327 12 7.1002C12 7.87339 12.6268 8.5002 13.4 8.5002Z" fill="#D2D2D2"/>
</svg>
