<svg width="29" height="26" viewBox="0 0 29 26" fill="none" xmlns="http://www.w3.org/2000/svg">
<g filter="url(#filter0_dd)">
<path d="M14.2645 7.99586C15.9228 7.94907 17.5528 8.43347 18.9164 9.37837C19.1311 9.53542 19.2581 9.78533 19.2585 10.0513V11.9116C19.2584 12.2992 19.5259 12.6355 19.9036 12.7227L23.9312 13.652C24.3493 13.7485 24.7722 13.5114 24.908 13.1043L26.2918 9.36922C26.4026 9.03978 26.2961 8.67617 26.025 8.45864C24.4885 7.23593 20.5395 4.6665 14.2645 4.6665C7.98947 4.6665 4.04044 7.23593 2.50519 8.45947C2.23398 8.67655 2.12698 9.03977 2.23718 9.36922L3.61969 13.1035C3.75545 13.5105 4.17836 13.7477 4.59644 13.6512L8.62413 12.7219C9.00197 12.6352 9.26997 12.2992 9.27044 11.9116V10.0513C9.27081 9.78533 9.39785 9.53542 9.61253 9.37837C10.9762 8.43347 12.6061 7.94907 14.2645 7.99586Z" fill="white"/>
<path d="M16.3452 16.7364V13.407C16.3452 12.9474 15.9726 12.5747 15.5129 12.5747H13.0159C12.5562 12.5747 12.1835 12.9474 12.1835 13.407V16.7364C12.1835 16.9662 11.9972 17.1526 11.7673 17.1526H10.5426C10.3832 17.1526 10.2379 17.2436 10.1683 17.3869C10.0987 17.5302 10.117 17.7007 10.2155 17.8259L13.9373 22.5628C14.0162 22.6631 14.1367 22.7217 14.2644 22.7217C14.392 22.7217 14.5126 22.6631 14.5915 22.5628L18.3133 17.8263C18.412 17.7011 18.4305 17.5304 18.3608 17.387C18.2912 17.2435 18.1456 17.1525 17.9862 17.1526H16.7614C16.5315 17.1526 16.3452 16.9662 16.3452 16.7364Z" fill="white"/>
</g>
<defs>
<filter id="filter0_dd" x="-0.5" y="-0.5" width="29" height="29" filterUnits="userSpaceOnUse" color-interpolation-filters="sRGB">
<feFlood flood-opacity="0" result="BackgroundImageFix"/>
<feColorMatrix in="SourceAlpha" type="matrix" values="0 0 0 0 0 0 0 0 0 0 0 0 0 0 0 0 0 0 127 0"/>
<feOffset dy="1"/>
<feGaussianBlur stdDeviation="0.5"/>
<feColorMatrix type="matrix" values="0 0 0 0 0 0 0 0 0 0 0 0 0 0 0 0 0 0 0.03 0"/>
<feBlend mode="normal" in2="BackgroundImageFix" result="effect1_dropShadow"/>
<feColorMatrix in="SourceAlpha" type="matrix" values="0 0 0 0 0 0 0 0 0 0 0 0 0 0 0 0 0 0 127 0"/>
<feOffset dy="1"/>
<feGaussianBlur stdDeviation="1"/>
<feColorMatrix type="matrix" values="0 0 0 0 0 0 0 0 0 0 0 0 0 0 0 0 0 0 0.03 0"/>
<feBlend mode="normal" in2="effect1_dropShadow" result="effect2_dropShadow"/>
<feBlend mode="normal" in="SourceGraphic" in2="effect2_dropShadow" result="shape"/>
</filter>
</defs>
</svg>
