<svg width="20" height="20" viewBox="0 0 20 20" fill="none" xmlns="http://www.w3.org/2000/svg">
<path d="M17.0732 2.92556C15.6738 1.52799 13.8914 0.576531 11.9512 0.191453C10.0111 -0.193625 8.00024 0.00496646 6.17295 0.762123C4.34565 1.51928 2.78393 2.80101 1.68518 4.44529C0.586437 6.08958 0 8.02259 0 10C0 11.9774 0.586437 13.9104 1.68518 15.5547C2.78393 17.199 4.34565 18.4807 6.17295 19.2379C8.00024 19.995 10.0111 20.1936 11.9512 19.8085C13.8914 19.4235 15.6738 18.472 17.0732 17.0744C18.9474 15.1968 20 12.6526 20 10C20 7.34744 18.9474 4.80322 17.0732 2.92556ZM13.9433 13.9456C13.8719 14.017 13.787 14.0737 13.6937 14.1124C13.6003 14.1511 13.5003 14.171 13.3992 14.171C13.2982 14.171 13.1981 14.1511 13.1048 14.1124C13.0114 14.0737 12.9266 14.017 12.8552 13.9456L9.99646 11.0878L7.00217 14.0811C6.93201 14.1581 6.84696 14.22 6.75218 14.2631C6.6574 14.3063 6.55485 14.3298 6.45072 14.3322C6.3466 14.3346 6.24307 14.3159 6.14639 14.2772C6.04971 14.2384 5.96189 14.1805 5.88825 14.1069C5.8146 14.0333 5.75666 13.9455 5.71792 13.8488C5.67918 13.7522 5.66044 13.6487 5.66285 13.5446C5.66527 13.4405 5.68877 13.338 5.73194 13.2432C5.77511 13.1485 5.83706 13.0635 5.91404 12.9933L8.90833 10L6.04964 7.14334C5.91618 6.99696 5.84428 6.80482 5.84886 6.60682C5.85345 6.40883 5.93417 6.22021 6.07426 6.08017C6.21434 5.94013 6.40302 5.85943 6.60108 5.85485C6.79914 5.85027 6.99135 5.92215 7.13776 6.05556L9.99646 8.91222L12.7184 6.19111C12.8649 6.0577 13.0571 5.98582 13.2551 5.99041C13.4532 5.99499 13.6419 6.07569 13.782 6.21573C13.922 6.35577 14.0028 6.54438 14.0073 6.74238C14.0119 6.94037 13.94 7.13252 13.8066 7.27889L11.0846 10L13.9422 12.8567C14.0139 12.928 14.0708 13.0128 14.1097 13.1062C14.1486 13.1996 14.1687 13.2997 14.1688 13.4009C14.1689 13.502 14.149 13.6022 14.1103 13.6957C14.0716 13.7891 14.0149 13.8741 13.9433 13.9456Z" fill="#C6C6C6"/>
</svg>
