<svg width="16" height="16" viewBox="0 0 16 16" fill="none" xmlns="http://www.w3.org/2000/svg">
<path d="M8.00002 0C6.41777 0 4.87104 0.469192 3.55545 1.34824C2.23985 2.22729 1.21447 3.47672 0.608968 4.93853C0.00346625 6.40034 -0.154961 8.00887 0.153722 9.56072C0.462404 11.1126 1.22433 12.538 2.34315 13.6569C3.46197 14.7757 4.88743 15.5376 6.43929 15.8463C7.99114 16.155 9.59967 15.9965 11.0615 15.391C12.5233 14.7855 13.7727 13.7602 14.6518 12.4446C15.5308 11.129 16 9.58225 16 8C15.9976 5.879 15.154 3.84555 13.6542 2.34578C12.1545 0.846003 10.121 0.00238211 8.00002 0ZM14.335 8C14.335 9.25294 13.9635 10.4778 13.2674 11.5195C12.5713 12.5613 11.5819 13.3733 10.4243 13.8528C9.26675 14.3323 7.99299 14.4577 6.76411 14.2133C5.53524 13.9688 4.40645 13.3655 3.52049 12.4795C2.63452 11.5936 2.03117 10.4648 1.78674 9.2359C1.5423 8.00703 1.66774 6.73327 2.14722 5.5757C2.62671 4.41813 3.43868 3.42874 4.48047 2.73264C5.52225 2.03654 6.74707 1.665 8.00002 1.665C9.67969 1.66712 11.2899 2.33537 12.4776 3.52317C13.6652 4.71097 14.3332 6.32133 14.335 8.001V8Z" fill="#00A4D2"/>
<path d="M8.00002 3.33936C7.78579 3.33896 7.57625 3.40212 7.39792 3.52083C7.21958 3.63955 7.08046 3.80849 6.99815 4.00629C6.91585 4.20409 6.89405 4.42185 6.93553 4.63204C6.97701 4.84222 7.0799 5.03538 7.23118 5.18708C7.38246 5.33878 7.57533 5.44221 7.78539 5.48427C7.99546 5.52633 8.2133 5.50515 8.41132 5.42339C8.60935 5.34163 8.77866 5.20298 8.89787 5.02497C9.01708 4.84696 9.08083 4.63759 9.08102 4.42335C9.08103 4.13638 8.96723 3.86112 8.76459 3.65791C8.56195 3.45471 8.287 3.34015 8.00002 3.33936Z" fill="#00A4D2"/>
<path d="M7.99998 6.6499C7.77684 6.6499 7.56282 6.73847 7.40494 6.89616C7.24706 7.05385 7.15822 7.26776 7.15796 7.4909V11.8349C7.15796 12.058 7.24657 12.2719 7.40429 12.4296C7.56201 12.5873 7.77593 12.6759 7.99898 12.6759C8.22203 12.6759 8.43595 12.5873 8.59367 12.4296C8.75139 12.2719 8.84 12.058 8.84 11.8349V7.4859C8.83868 7.2639 8.74963 7.05142 8.59227 6.89481C8.4349 6.7382 8.222 6.65016 7.99998 6.6499Z" fill="#00A4D2"/>
</svg>
