<svg width="12" height="12" viewBox="0 0 12 12" fill="none" xmlns="http://www.w3.org/2000/svg">
<path d="M6 0C4.81331 0 3.65327 0.351894 2.66658 1.01118C1.67988 1.67047 0.910851 2.60754 0.456725 3.7039C0.00259969 4.80026 -0.11622 6.00665 0.115291 7.17054C0.346802 8.33443 0.918243 9.40353 1.75736 10.2426C2.59647 11.0818 3.66557 11.6532 4.82945 11.8847C5.99334 12.1162 7.19974 11.9974 8.2961 11.5433C9.39246 11.0891 10.3295 10.3201 10.9888 9.33342C11.6481 8.34672 12 7.18669 12 6C11.9982 4.40925 11.3655 2.88416 10.2407 1.75933C9.11584 0.634502 7.59075 0.00178658 6 0ZM10.7512 6C10.7512 6.93971 10.4726 7.85831 9.95052 8.63965C9.42845 9.42099 8.68641 10.03 7.81823 10.3896C6.95005 10.7492 5.99473 10.8433 5.07308 10.66C4.15142 10.4766 3.30483 10.0241 2.64036 9.35964C1.97589 8.69517 1.52338 7.84857 1.34005 6.92692C1.15672 6.00527 1.2508 5.04995 1.61042 4.18178C1.97003 3.3136 2.579 2.57155 3.36034 2.04948C4.14168 1.52741 5.06029 1.24875 6 1.24875C7.25975 1.25034 8.46745 1.75153 9.35816 2.64238C10.2489 3.53323 10.7499 4.741 10.7512 6.00075V6Z" fill="#F64D4D"/>
<path d="M6.00002 2.50452C5.83934 2.50422 5.68219 2.55159 5.54844 2.64062C5.41468 2.72966 5.31034 2.85637 5.24861 3.00472C5.18689 3.15307 5.17054 3.31639 5.20165 3.47403C5.23276 3.63167 5.30993 3.77654 5.42339 3.89031C5.53685 4.00409 5.68149 4.08166 5.83904 4.1132C5.9966 4.14475 6.15997 4.12886 6.30849 4.06754C6.45701 4.00622 6.584 3.90224 6.6734 3.76873C6.76281 3.63522 6.81062 3.47819 6.81077 3.31751C6.81077 3.10228 6.72542 2.89584 6.57344 2.74343C6.42146 2.59103 6.21524 2.50511 6.00002 2.50452Z" fill="#F64D4D"/>
<path d="M6.00005 4.98743C5.83269 4.98743 5.67218 5.05386 5.55377 5.17212C5.43536 5.29039 5.36873 5.45082 5.36853 5.61818V8.87618C5.36853 9.04346 5.43498 9.2039 5.55328 9.32219C5.67157 9.44048 5.83201 9.50693 5.99929 9.50693C6.16658 9.50693 6.32702 9.44048 6.44531 9.32219C6.5636 9.2039 6.63006 9.04346 6.63006 8.87618V5.61443C6.62907 5.44792 6.56228 5.28856 6.44426 5.1711C6.32624 5.05365 6.16656 4.98762 6.00005 4.98743Z" fill="#F64D4D"/>
</svg>
