<svg width="18" height="18" viewBox="0 0 18 18" fill="none" xmlns="http://www.w3.org/2000/svg">
<path d="M15.39 2.61C13.68 0.9 11.43 0 9 0C6.57 0 4.32 0.9 2.61 2.61C0.9 4.32 0 6.57 0 9C0 11.43 0.9 13.68 2.61 15.39C4.32 17.1 6.57 18 9 18C11.43 18 13.68 17.1 15.39 15.39C17.1 13.68 18 11.43 18 9C18 6.57 17.1 4.32 15.39 2.61ZM9 16.29C4.95 16.29 1.71 13.05 1.71 9C1.71 4.95 4.95 1.71 9 1.71C13.05 1.71 16.29 4.95 16.29 9C16.29 13.05 13.05 16.29 9 16.29Z" fill="#737373"/>
<path d="M12.6901 6.1201C12.6901 5.9401 12.6001 5.7601 12.5101 5.6701L12.3301 5.4901C12.0601 5.2201 11.7001 5.2201 11.4301 5.4901L9.18008 7.7401L6.84008 5.4901C6.57008 5.2201 6.21008 5.2201 5.94008 5.4901L5.76008 5.6701C5.58008 5.7601 5.58008 5.9401 5.58008 6.1201C5.58008 6.3001 5.67008 6.4801 5.76008 6.5701L8.01008 8.8201L5.76008 11.0701C5.67008 11.1601 5.58008 11.3401 5.58008 11.5201C5.58008 11.7001 5.67008 11.8801 5.76008 11.9701L5.94008 12.1501C6.21008 12.4201 6.57008 12.4201 6.84008 12.1501L9.09008 9.9001L11.3401 12.1501C11.4301 12.2401 11.6101 12.3301 11.7901 12.3301C11.9701 12.3301 12.1501 12.2401 12.2401 12.1501L12.4201 11.9701C12.5101 11.8801 12.6001 11.7001 12.6001 11.5201C12.6001 11.3401 12.5101 11.1601 12.4201 11.0701L10.1701 8.8201L12.4201 6.5701C12.6001 6.4801 12.6901 6.3001 12.6901 6.1201Z" fill="#737373"/>
</svg>
