<svg width="20" height="20" viewBox="0 0 20 20" fill="none" xmlns="http://www.w3.org/2000/svg">
<path fill-rule="evenodd" clip-rule="evenodd" d="M9.10508 0.600006C9.30655 0.200006 9.7095 0 10.1124 0C10.2132 0 10.4146 6.10203e-06 10.4146 0.100006C10.6161 0.200006 10.8176 0.400006 10.9183 0.600006L13.2352 5.39999C13.336 5.69999 13.6382 5.9 14.0412 6L19.078 6.79999C19.6824 6.89999 20.0853 7.50001 19.9846 8.10001C19.9846 8.30001 19.8838 8.50001 19.6824 8.70001L15.9551 12.4C15.7537 12.7 15.5522 13 15.6529 13.4L16.5596 18.7C16.7611 19.3 16.3581 19.9 15.7536 20H15.5522C15.3507 20 15.25 20 15.0485 19.9L10.5154 17.4C10.3139 17.3 10.2132 17.3 10.0117 17.3C9.81026 17.3 9.70952 17.3 9.50805 17.4L4.97493 19.9C4.77345 20 4.67272 20 4.47124 20C4.0683 20 3.66536 19.8 3.46388 19.4C3.36315 19.2 3.26237 18.9 3.36311 18.7L4.26976 13.4C4.3705 13 4.26977 12.7 3.96756 12.4L0.341027 8.70001C-0.162653 8.30001 -0.0619171 7.50001 0.341027 7.10001C0.5425 6.90001 0.744009 6.79999 0.945481 6.79999L5.98229 6C6.2845 6 6.58669 5.69999 6.78816 5.39999L9.10508 0.600006Z" fill="#F9CC19"/>
</svg>
