<svg width="17" height="20" viewBox="0 0 17 20" fill="none" xmlns="http://www.w3.org/2000/svg">
<path d="M7 8.5C3.1 8.5 0 11.7 0 15.6V17.3C0 18.8 1.2 20 2.7 20H11.4C12.9 20 14.1 18.8 14.1 17.3V15.6C14.1 11.7 10.9 8.5 7 8.5ZM7 10.5C9.8 10.5 12.1 12.8 12.1 15.6V17.3C12.1 17.7 11.7 18.1 11.3 18.1H2.7C2.3 18.1 1.9 17.7 1.9 17.3V15.6C1.9 12.8 4.2 10.5 7 10.5Z" fill="#D2D2D2"/>
<path d="M7.00039 8.3C9.30039 8.3 11.1004 6.4 11.1004 4.1C11.1004 1.8 9.30039 0 7.00039 0C4.70039 0 2.90039 1.9 2.90039 4.2C2.90039 6.5 4.70039 8.3 7.00039 8.3ZM7.00039 1.9C8.20039 1.9 9.20039 2.9 9.20039 4.1C9.20039 5.3 8.20039 6.4 7.00039 6.4C5.80039 6.4 4.80039 5.4 4.80039 4.2C4.80039 3 5.80039 1.9 7.00039 1.9Z" fill="#D2D2D2"/>
<path d="M16.2002 6.7001H14.9002V5.4001C14.9002 5.0001 14.5002 4.6001 14.1002 4.6001C13.7002 4.6001 13.3002 4.9001 13.3002 5.4001V6.7001H12.0002C11.6002 6.7001 11.2002 7.1001 11.2002 7.5001C11.2002 7.9001 11.5002 8.3001 12.0002 8.3001H13.3002V9.6001C13.3002 10.0001 13.6002 10.4001 14.1002 10.4001C14.5002 10.4001 14.9002 10.0001 14.9002 9.6001V8.3001H16.2002C16.6002 8.3001 17.0002 8.0001 17.0002 7.5001C17.0002 7.0001 16.6002 6.7001 16.2002 6.7001Z" fill="#D2D2D2"/>
</svg>
