<svg width="18" height="18" viewBox="0 0 18 18" fill="none" xmlns="http://www.w3.org/2000/svg">
<path d="M12.8698 6.75012C12.7798 6.66012 12.6898 6.66012 12.6898 6.75012L8.99977 10.4401L5.30977 6.75012C5.21977 6.66012 5.12977 6.66012 5.12977 6.75012L4.13977 7.74012C4.04977 7.83012 4.04977 7.92012 4.13977 7.92012L8.90977 12.6901L8.99977 12.7801C8.99977 12.7801 9.08977 12.7801 9.08977 12.6901L13.8598 7.92012C13.9498 7.83012 13.9498 7.74012 13.8598 7.74012L12.8698 6.75012Z" fill="#737373"/>
<path d="M15.39 2.61C13.68 0.9 11.43 0 9 0C6.57 0 4.32 0.9 2.61 2.61C0.9 4.32 0 6.57 0 9C0 11.43 0.9 13.68 2.61 15.39C4.32 17.1 6.57 18 9 18C11.43 18 13.68 17.1 15.39 15.39C17.1 13.68 18 11.43 18 9C18 6.57 17.1 4.32 15.39 2.61ZM16.29 9C16.29 13.05 13.05 16.29 9 16.29C4.95 16.29 1.71 13.05 1.71 9C1.71 4.95 4.95 1.71 9 1.71C13.05 1.71 16.29 4.95 16.29 9Z" fill="#737373"/>
</svg>
