<svg width="18" height="18" viewBox="0 0 18 18" fill="none" xmlns="http://www.w3.org/2000/svg">
<circle cx="9" cy="9" r="9" fill="#E94848"/>
<g clip-path="url(#clip0)">
<path d="M13.3271 12.8883L11.4902 11.0485C11.9739 10.4757 12.2401 9.7507 12.2419 9.001C12.2419 8.92343 12.2111 8.84903 12.1563 8.79417C12.1014 8.73932 12.027 8.7085 11.9494 8.7085C11.8719 8.7085 11.7975 8.73932 11.7426 8.79417C11.6878 8.84903 11.6569 8.92343 11.6569 9.001C11.6538 9.59852 11.4475 10.1772 11.0719 10.6419L10.3202 9.8785C10.6125 9.55857 10.7761 9.14182 10.7794 8.7085V6.3685C10.7794 5.90305 10.5945 5.45666 10.2654 5.12753C9.93629 4.7984 9.48989 4.6135 9.02444 4.6135C8.55898 4.6135 8.11259 4.7984 7.78347 5.12753C7.45434 5.45666 7.26944 5.90305 7.26944 6.3685V6.83358L5.13711 4.69833C5.08204 4.64325 5.00733 4.6123 4.92944 4.6123C4.85155 4.6123 4.77684 4.64325 4.72176 4.69833C4.66669 4.75341 4.63574 4.82811 4.63574 4.906C4.63574 4.98389 4.66669 5.0586 4.72176 5.11368L12.9118 13.3037C12.939 13.3311 12.9713 13.3529 13.007 13.3677C13.0426 13.3826 13.0808 13.3902 13.1194 13.3902C13.1581 13.3902 13.1963 13.3826 13.2319 13.3677C13.2676 13.3529 13.2999 13.3311 13.3271 13.3037C13.3545 13.2765 13.3763 13.2441 13.3911 13.2085C13.406 13.1728 13.4136 13.1346 13.4136 13.096C13.4136 13.0574 13.406 13.0192 13.3911 12.9835C13.3763 12.9479 13.3545 12.9155 13.3271 12.8883Z" fill="white"/>
<path d="M9.23806 10.4631L7.26953 8.48291V8.70814C7.26953 9.17359 7.45443 9.61998 7.78356 9.94911C8.11268 10.2782 8.55908 10.4631 9.02453 10.4631C9.09564 10.4676 9.16695 10.4676 9.23806 10.4631Z" fill="white"/>
<path d="M9.02417 11.633C8.32599 11.633 7.6564 11.3557 7.16271 10.862C6.66902 10.3683 6.39167 9.69869 6.39167 9.00051C6.39167 8.92293 6.36085 8.84853 6.306 8.79368C6.25114 8.73882 6.17674 8.70801 6.09917 8.70801C6.02159 8.70801 5.94719 8.73882 5.89234 8.79368C5.83749 8.84853 5.80667 8.92293 5.80667 9.00051C5.80334 9.8055 6.10188 10.5825 6.64338 11.1782C7.18489 11.7738 7.93 12.1448 8.73167 12.218V13.0955C8.73167 13.1731 8.76249 13.2475 8.81734 13.3023C8.87219 13.3572 8.94659 13.388 9.02417 13.388C9.10174 13.388 9.17614 13.3572 9.231 13.3023C9.28585 13.2475 9.31667 13.1731 9.31667 13.0955V12.218C9.76492 12.1761 10.1994 12.0406 10.592 11.8202L10.1591 11.3873C9.80377 11.5527 9.41604 11.6366 9.02417 11.633Z" fill="white"/>
</g>
<defs>
<clipPath id="clip0">
<rect width="9.36" height="9.36" fill="white" transform="translate(4.32031 4.32031)"/>
</clipPath>
</defs>
</svg>
