<svg width="15" height="9" viewBox="0 0 15 9" fill="none" xmlns="http://www.w3.org/2000/svg">
<path d="M7.02395 8.02288C6.89514 8.02297 6.7676 7.99758 6.64866 7.94815C6.52972 7.89872 6.42174 7.82623 6.33095 7.73488L0.311946 1.69988C0.215679 1.61003 0.138467 1.50173 0.0849039 1.38143C0.0313408 1.26113 0.00252076 1.13128 0.000158081 0.999615C-0.00220459 0.867951 0.0219384 0.737162 0.0711508 0.615018C0.120363 0.492873 0.19364 0.381874 0.286621 0.288625C0.379603 0.195375 0.49039 0.121773 0.612392 0.0722092C0.734394 0.0226449 0.865119 -0.00187184 0.996789 0.000111393C1.12846 0.00209462 1.25839 0.0305363 1.37884 0.0837524C1.49929 0.136969 1.60782 0.213872 1.69795 0.30988L7.02395 5.64988L12.3499 0.30988C12.5362 0.135999 12.7828 0.0413461 13.0376 0.0459183C13.2924 0.0504904 13.5354 0.153925 13.7154 0.334378C13.8953 0.514831 13.9981 0.758164 14.0019 1.01297C14.0057 1.26777 13.9104 1.51409 13.7359 1.69988L7.71595 7.73488C7.62527 7.82611 7.51745 7.89853 7.39869 7.94796C7.27994 7.99738 7.15258 8.02284 7.02395 8.02288Z" fill="#222222"/>
</svg>
