<svg width="14" height="14" viewBox="0 0 14 14" fill="none" xmlns="http://www.w3.org/2000/svg">
<path d="M13.453 12.436C13.5981 12.436 13.7372 12.3784 13.8398 12.2758C13.9424 12.1732 14 12.0341 14 11.889V3.281C13.9992 2.70122 13.7685 2.1454 13.3586 1.73543C12.9486 1.32546 12.3928 1.09479 11.813 1.094H11.1V0.547C11.1 0.475167 11.0859 0.404037 11.0584 0.337672C11.0309 0.271307 10.9906 0.211006 10.9398 0.160213C10.889 0.109419 10.8287 0.0691272 10.7623 0.0416379C10.696 0.0141486 10.6248 0 10.553 0C10.4812 0 10.41 0.0141486 10.3437 0.0416379C10.2773 0.0691272 10.217 0.109419 10.1662 0.160213C10.1154 0.211006 10.0751 0.271307 10.0476 0.337672C10.0201 0.404037 10.006 0.475167 10.006 0.547V1.094H7.52V0.547C7.52 0.401927 7.46237 0.262795 7.35979 0.160213C7.25721 0.0576302 7.11807 3.26037e-08 6.973 3.26037e-08C6.82793 3.26037e-08 6.6888 0.0576302 6.58621 0.160213C6.48363 0.262795 6.426 0.401927 6.426 0.547V1.094H3.965V0.547C3.965 0.401927 3.90737 0.262795 3.80479 0.160213C3.7022 0.0576302 3.56307 3.26037e-08 3.418 3.26037e-08C3.27293 3.26037e-08 3.1338 0.0576302 3.03121 0.160213C2.92863 0.262795 2.871 0.401927 2.871 0.547V1.094H2.188C1.60804 1.09453 1.05197 1.32508 0.641788 1.73508C0.231602 2.14508 0.000794222 2.70104 0 3.281L0 11.812C0.000529559 12.3921 0.23122 12.9483 0.641435 13.3586C1.05165 13.7688 1.60787 13.9995 2.188 14H11.813C12.3928 13.9992 12.9486 13.7685 13.3586 13.3586C13.7685 12.9486 13.9992 12.3928 14 11.813C14 11.6679 13.9424 11.5288 13.8398 11.4262C13.7372 11.3236 13.5981 11.266 13.453 11.266C13.3079 11.266 13.1688 11.3236 13.0662 11.4262C12.9636 11.5288 12.906 11.6679 12.906 11.813C12.9044 12.1027 12.7887 12.38 12.5838 12.5848C12.379 12.7897 12.1017 12.9054 11.812 12.907H2.188C1.89834 12.9054 1.62099 12.7897 1.41617 12.5848C1.21134 12.38 1.09558 12.1027 1.094 11.813V3.281C1.09584 2.99151 1.21172 2.71442 1.41652 2.50981C1.62131 2.3052 1.89851 2.18957 2.188 2.188H2.872V2.735C2.872 2.88007 2.92963 3.0192 3.03221 3.12179C3.13479 3.22437 3.27393 3.282 3.419 3.282C3.56407 3.282 3.7032 3.22437 3.80579 3.12179C3.90837 3.0192 3.966 2.88007 3.966 2.735V2.188H6.426V2.735C6.426 2.88007 6.48363 3.0192 6.58621 3.12179C6.6888 3.22437 6.82793 3.282 6.973 3.282C7.11807 3.282 7.25721 3.22437 7.35979 3.12179C7.46237 3.0192 7.52 2.88007 7.52 2.735V2.188H10.008V2.735C10.008 2.88007 10.0656 3.0192 10.1682 3.12179C10.2708 3.22437 10.4099 3.282 10.555 3.282C10.7001 3.282 10.8392 3.22437 10.9418 3.12179C11.0444 3.0192 11.102 2.88007 11.102 2.735V2.188H11.813C12.1027 2.18958 12.38 2.30534 12.5848 2.51017C12.7897 2.71499 12.9054 2.99234 12.907 3.282V11.89C12.9073 12.0347 12.9649 12.1735 13.0672 12.2758C13.1695 12.3781 13.3083 12.4357 13.453 12.436Z" fill="#222222"/>
<path d="M3.48828 6.97803C4.04057 6.97803 4.48828 6.53031 4.48828 5.97803C4.48828 5.42574 4.04057 4.97803 3.48828 4.97803C2.936 4.97803 2.48828 5.42574 2.48828 5.97803C2.48828 6.53031 2.936 6.97803 3.48828 6.97803Z" fill="#222222"/>
<path d="M3.48828 10.4062C4.04057 10.4062 4.48828 9.95853 4.48828 9.40625C4.48828 8.85397 4.04057 8.40625 3.48828 8.40625C2.936 8.40625 2.48828 8.85397 2.48828 9.40625C2.48828 9.95853 2.936 10.4062 3.48828 10.4062Z" fill="#222222"/>
<path d="M6.91797 6.97803C7.47025 6.97803 7.91797 6.53031 7.91797 5.97803C7.91797 5.42574 7.47025 4.97803 6.91797 4.97803C6.36568 4.97803 5.91797 5.42574 5.91797 5.97803C5.91797 6.53031 6.36568 6.97803 6.91797 6.97803Z" fill="#222222"/>
<path d="M6.91797 10.4062C7.47025 10.4062 7.91797 9.95853 7.91797 9.40625C7.91797 8.85397 7.47025 8.40625 6.91797 8.40625C6.36568 8.40625 5.91797 8.85397 5.91797 9.40625C5.91797 9.95853 6.36568 10.4062 6.91797 10.4062Z" fill="#222222"/>
<path d="M10.3457 6.97803C10.898 6.97803 11.3457 6.53031 11.3457 5.97803C11.3457 5.42574 10.898 4.97803 10.3457 4.97803C9.79342 4.97803 9.3457 5.42574 9.3457 5.97803C9.3457 6.53031 9.79342 6.97803 10.3457 6.97803Z" fill="#222222"/>
<path d="M10.3457 10.4062C10.898 10.4062 11.3457 9.95853 11.3457 9.40625C11.3457 8.85397 10.898 8.40625 10.3457 8.40625C9.79342 8.40625 9.3457 8.85397 9.3457 9.40625C9.3457 9.95853 9.79342 10.4062 10.3457 10.4062Z" fill="#222222"/>
</svg>
