<svg width="20" height="20" viewBox="0 0 20 20" fill="none" xmlns="http://www.w3.org/2000/svg">
<path d="M10.1124 3.29999L11.5228 6.29999C11.9257 7.19999 12.8323 7.90001 13.8397 8.10001L17.164 8.60001L14.6456 11.1C13.9404 11.8 13.6382 12.8 13.8397 13.8L14.4441 17.2L11.6235 15.6C11.2205 15.4 10.6161 15.2 10.1124 15.2C9.60876 15.2 9.10508 15.3 8.6014 15.6L5.7808 17.2L6.38519 13.8C6.58667 12.8 6.2845 11.8 5.47861 11.1L2.9602 8.60001L6.38519 8.10001C7.39256 7.90001 8.29917 7.29999 8.70211 6.39999L10.1124 3.29999ZM10.1124 0C9.7095 0 9.30655 0.200006 9.10508 0.600006L6.78816 5.39999C6.58669 5.69999 6.2845 6 5.98229 6L0.945481 6.79999C0.744009 6.79999 0.5425 6.90001 0.341027 7.10001C-0.0619171 7.50001 -0.162653 8.30001 0.341027 8.70001L3.96756 12.4C4.26977 12.7 4.3705 13 4.26976 13.4L3.36311 18.7C3.26237 18.9 3.36315 19.2 3.46388 19.4C3.66536 19.8 4.0683 20 4.47124 20C4.67272 20 4.77345 20 4.97493 19.9L9.50805 17.4C9.70952 17.3 9.81026 17.3 10.0117 17.3C10.2132 17.3 10.3139 17.3 10.5154 17.4L15.0485 19.9C15.25 20 15.3507 20 15.5522 20C15.653 20 15.6529 20 15.7536 20C16.3581 19.9 16.7611 19.3 16.5596 18.7L15.6529 13.4C15.5522 13 15.7537 12.7 15.9551 12.4L19.6824 8.70001C19.8838 8.50001 19.9846 8.30001 19.9846 8.10001C20.0853 7.50001 19.6824 6.89999 19.078 6.79999L14.0412 6C13.6382 5.9 13.336 5.69999 13.2352 5.39999L10.9183 0.600006C10.8176 0.400006 10.6161 0.200006 10.4146 0.100006C10.4146 6.10203e-06 10.2132 0 10.1124 0Z" fill="#D2D2D2"/>
</svg>
