<svg width="18" height="18" viewBox="0 0 18 18" fill="none" xmlns="http://www.w3.org/2000/svg">
<path d="M12.8698 11.25C12.7798 11.34 12.6898 11.34 12.6898 11.25L8.99977 7.55997L5.30977 11.25C5.21977 11.34 5.12977 11.34 5.12977 11.25L4.13977 10.26C4.04977 10.17 4.04977 10.08 4.13977 10.08L8.90977 5.30997L8.99977 5.21997C8.99977 5.21997 9.08977 5.21997 9.08977 5.30997L13.8598 10.08C13.9498 10.17 13.9498 10.26 13.8598 10.26L12.8698 11.25Z" fill="#737373"/>
<path d="M18 9C18 6.57 17.1 4.32 15.39 2.61C13.68 0.9 11.43 0 9 0C6.57 0 4.32 0.9 2.61 2.61C0.9 4.32 0 6.57 0 9C0 11.43 0.9 13.68 2.61 15.39C4.32 17.1 6.57 18 9 18C11.43 18 13.68 17.1 15.39 15.39C17.1 13.68 18 11.43 18 9ZM9 16.29C4.95 16.29 1.71 13.05 1.71 9C1.71 4.95 4.95 1.71 9 1.71C13.05 1.71 16.29 4.95 16.29 9C16.29 13.05 13.05 16.29 9 16.29Z" fill="#737373"/>
</svg>
