<svg width="20" height="20" viewBox="0 0 20 20" fill="none" xmlns="http://www.w3.org/2000/svg">
<path d="M19.7 18.2915L14.8 13.2663C16 11.8593 16.7 10.0503 16.8 8.24121C16.8 6.43216 16.2 4.62312 15.1 3.11558C13.9 1.60804 12.3 0.603015 10.5 0.201005C8.5 -0.201005 6.6 0 4.8 0.80402C3 1.60804 1.7 2.91457 0.8 4.52261C0 6.23116 -0.2 8.0402 0.2 9.84925C0.6 11.6583 1.6 13.2663 3.1 14.3719C4.6 15.4774 6.4 16.1809 8.3 16.1809C10 16.1809 11.7 15.6784 13.1 14.6734L18.1 19.6985C18.2 19.799 18.3 19.8995 18.4 19.8995C18.5 20 18.7 20 18.8 20C18.9 20 19.1 20 19.2 19.8995C19.3 19.799 19.5 19.799 19.6 19.6985C19.7 19.598 19.8 19.4975 19.8 19.397C20 19.2965 20 19.196 20 19.0955C20 18.995 20 18.794 19.9 18.6935C19.9 18.4925 19.8 18.392 19.7 18.2915ZM8.4 2.11055C9.6 2.11055 10.8 2.51256 11.8 3.11558C12.8 3.8191 13.6 4.72362 14.1 5.82915C14.6 6.93467 14.7 8.1407 14.5 9.24623C14.3 10.4523 13.7 11.4573 12.8 12.3618C11.9 13.1658 10.8 13.7688 9.6 13.9698C8.4 14.2714 7.1 14.0704 6 13.6683C4.9 13.1658 3.9 12.4623 3.2 11.4573C2.5 10.4523 2.2 9.34673 2.2 8.1407C2.2 6.53266 2.8 5.02513 4 3.9196C5.2 2.81407 6.7 2.11055 8.4 2.11055Z" fill="#D2D2D2"/>
</svg>
