<svg width="8" height="8" viewBox="0 0 8 8" fill="none" xmlns="http://www.w3.org/2000/svg">
<g clip-path="url(#clip0)">
<path d="M7.90408 6.50587L4.65501 0.738144C4.37796 0.234421 3.62236 0.234421 3.3453 0.738144L0.0962439 6.50587C-0.1808 7.00959 0.171809 7.63926 0.751098 7.63926H7.22404C7.82851 7.61408 8.18112 7.00959 7.90408 6.50587Z" fill="#222222"/>
<path d="M4.00003 1.11621L7.2491 6.88394H0.750977L4.00003 1.11621Z" fill="white"/>
<path d="M3.47115 3.76072L3.67265 5.09561C3.69783 5.24672 3.82376 5.37265 4.00007 5.37265C4.15119 5.37265 4.30232 5.24672 4.3275 5.09561L4.529 3.76072C4.57937 3.43329 4.3275 3.15625 4.00007 3.15625C3.67263 3.15623 3.44595 3.43329 3.47115 3.76072Z" fill="#222222"/>
<path d="M4 6.2539C4.16692 6.2539 4.30224 6.11858 4.30224 5.95166C4.30224 5.78473 4.16692 5.64941 4 5.64941C3.83307 5.64941 3.69775 5.78473 3.69775 5.95166C3.69775 6.11858 3.83307 6.2539 4 6.2539Z" fill="#222222"/>
</g>
<defs>
<clipPath id="clip0">
<rect width="8" height="8" fill="white"/>
</clipPath>
</defs>
</svg>
