<svg width="7" height="7" viewBox="0 0 7 7" fill="none" xmlns="http://www.w3.org/2000/svg">
<path d="M4.27097 3.49925L6.88817 6.11657C6.96016 6.18862 6.99989 6.28474 7 6.38723C7 6.48979 6.96028 6.58602 6.88817 6.65796L6.65882 6.88725C6.58672 6.95947 6.49059 6.99902 6.38798 6.99902C6.28554 6.99902 6.18942 6.95947 6.11732 6.88725L3.50011 4.2701L0.882797 6.88725C0.810805 6.95947 0.714626 6.99902 0.612073 6.99902C0.509634 6.99902 0.413455 6.95947 0.341463 6.88725L0.112 6.65796C-0.0373333 6.50863 -0.0373333 6.26573 0.112 6.11657L2.72926 3.49925L0.112 0.882048C0.0399512 0.809885 0.000284553 0.713763 0.000284553 0.611267C0.000284553 0.508771 0.0399512 0.412649 0.112 0.340544L0.341407 0.111251C0.413398 0.0390882 0.509634 -0.00052166 0.612016 -0.00052166C0.714569 -0.00052166 0.810748 0.0390882 0.88274 0.111251L3.50006 2.72845L6.11726 0.111251C6.18937 0.0390882 6.28549 -0.00052166 6.38793 -0.00052166H6.38804C6.49054 -0.00052166 6.58666 0.0390882 6.65876 0.111251L6.88811 0.340544C6.96011 0.412592 6.99983 0.508771 6.99983 0.611267C6.99983 0.713763 6.96011 0.809885 6.88811 0.881991L4.27097 3.49925Z" fill="#222222"/>
</svg>
