<svg width="20" height="21" viewBox="0 0 20 21" fill="none" xmlns="http://www.w3.org/2000/svg">
<path fill-rule="evenodd" clip-rule="evenodd" d="M7.63086 9.78962C7.44972 9.59895 7.41655 9.15607 7.6506 8.63026C8.52806 6.28477 8.6471 5.84953 8.0848 5.25763L4.47548 1.45835C3.78231 0.728705 2.68097 0.914452 1.99996 1.63131C-0.666652 4.43826 -0.666652 8.96903 1.99996 11.776L8.74233 18.8732C11.4365 21.7092 15.827 21.7092 18.5212 18.8732C19.1798 18.1799 19.3429 17.1083 18.6855 16.4162L15.0761 12.6169C14.4712 11.9802 14.0602 12.1047 11.8056 13.0372C11.2857 13.2911 10.9292 13.2615 10.7707 13.0948L7.63086 9.78962ZM17.0113 17.5577C15.1017 19.5015 12.0782 19.4808 10.1923 17.4957L3.44995 10.3985C1.56023 8.4093 1.51766 5.19273 3.32226 3.14825L6.328 6.31219L6.32107 6.33774C6.22675 6.68264 6.05248 7.19787 5.80014 7.87393C5.28582 9.02477 5.3834 10.3277 6.18086 11.1671L9.32075 14.4723C10.1409 15.3356 11.4429 15.4436 12.6301 14.8581C13.1804 14.6327 13.6471 14.4569 13.9696 14.3559L17.0113 17.5577Z" fill="#D2D2D2"/>
<path d="M11.7 9.20021C11.7 8.75839 11.3418 8.40021 10.9 8.40021C10.3477 8.40021 9.9 7.9525 9.9 7.40021C9.9 6.84793 10.3477 6.40021 10.9 6.40021C12.4464 6.40021 13.7 7.65382 13.7 9.20021C13.7 9.7525 13.2523 10.2002 12.7 10.2002C12.1477 10.2002 11.7 9.7525 11.7 9.20021Z" fill="#D2D2D2"/>
<path d="M10.9 5.70021C12.833 5.70021 14.4 7.26722 14.4 9.20021C14.4 9.7525 14.8477 10.2002 15.4 10.2002C15.9523 10.2002 16.4 9.7525 16.4 9.20021C16.4 6.16265 13.9376 3.70021 10.9 3.70021C10.3477 3.70021 9.9 4.14793 9.9 4.70021C9.9 5.2525 10.3477 5.70021 10.9 5.70021Z" fill="#D2D2D2"/>
<path d="M17.1 9.20021C17.1 5.77605 14.3242 3.00021 10.9 3.00021C10.3477 3.00021 9.9 2.5525 9.9 2.00021C9.9 1.44793 10.3477 1.00021 10.9 1.00021C15.4287 1.00021 19.1 4.67148 19.1 9.20021C19.1 9.7525 18.6523 10.2002 18.1 10.2002C17.5477 10.2002 17.1 9.7525 17.1 9.20021Z" fill="#D2D2D2"/>
</svg>
