<svg width="15" height="14" viewBox="0 0 15 14" fill="none" xmlns="http://www.w3.org/2000/svg">
<path d="M0.840285 1.737H14.1962C14.4148 1.72037 14.6191 1.62166 14.7682 1.46061C14.9172 1.29957 15.0001 1.08809 15.0001 0.8685C15.0001 0.648912 14.9172 0.437425 14.7682 0.276382C14.6191 0.115339 14.4148 0.0166254 14.1962 0H0.840285C0.621655 0.0166254 0.417353 0.115339 0.268298 0.276382C0.119243 0.437425 0.036438 0.648912 0.036438 0.8685C0.036438 1.08809 0.119243 1.29957 0.268298 1.46061C0.417353 1.62166 0.621655 1.72037 0.840285 1.737Z" fill="#222222"/>
<path d="M14.1962 12.2607H0.840285C0.621655 12.2774 0.417353 12.3761 0.268298 12.5371C0.119243 12.6982 0.036438 12.9097 0.036438 13.1292C0.036438 13.3488 0.119243 13.5603 0.268298 13.7214C0.417353 13.8824 0.621655 13.9811 0.840285 13.9977H14.1962C14.4148 13.9811 14.6191 13.8824 14.7682 13.7214C14.9172 13.5603 15.0001 13.3488 15.0001 13.1292C15.0001 12.9097 14.9172 12.6982 14.7682 12.5371C14.6191 12.3761 14.4148 12.2774 14.1962 12.2607Z" fill="#222222"/>
<path d="M0.897121 7.86836H9.05988C9.17624 7.87231 9.2922 7.85278 9.40086 7.81091C9.50952 7.76904 9.60865 7.70571 9.69236 7.62467C9.77607 7.54363 9.84264 7.44655 9.88811 7.33921C9.93357 7.23187 9.957 7.11646 9.957 6.99986C9.957 6.88326 9.93357 6.76785 9.88811 6.66051C9.84264 6.55317 9.77607 6.45609 9.69236 6.37505C9.60865 6.29401 9.50952 6.23067 9.40086 6.1888C9.2922 6.14694 9.17624 6.1274 9.05988 6.13136H0.897121C0.780763 6.1274 0.664803 6.14694 0.556141 6.1888C0.44748 6.23067 0.348357 6.29401 0.264648 6.37505C0.180938 6.45609 0.114361 6.55317 0.0688968 6.66051C0.0234323 6.76785 0 6.88326 0 6.99986C0 7.11646 0.0234323 7.23187 0.0688968 7.33921C0.114361 7.44655 0.180938 7.54363 0.264648 7.62467C0.348357 7.70571 0.44748 7.76904 0.556141 7.81091C0.664803 7.85278 0.780763 7.87231 0.897121 7.86836Z" fill="#222222"/>
</svg>
