<svg width="36" height="36" viewBox="0 0 36 36" fill="none" xmlns="http://www.w3.org/2000/svg">
<g filter="url(#filter0_d)">
<circle cx="18" cy="17" r="12" fill="white"/>
</g>
<g clip-path="url(#clip0)">
<path d="M13.5416 13.2417H22.4589C22.6049 13.2298 22.7413 13.1593 22.8408 13.0443C22.9403 12.9292 22.9956 12.7782 22.9956 12.6213C22.9956 12.4645 22.9403 12.3134 22.8408 12.1984C22.7413 12.0834 22.6049 12.0129 22.4589 12.001H13.5416C13.3956 12.0129 13.2592 12.0834 13.1597 12.1984C13.0602 12.3134 13.0049 12.4645 13.0049 12.6213C13.0049 12.7782 13.0602 12.9292 13.1597 13.0443C13.2592 13.1593 13.3956 13.2298 13.5416 13.2417Z" fill="#222222"/>
<path d="M22.4589 20.7585H13.5416C13.3956 20.7704 13.2592 20.8409 13.1597 20.956C13.0602 21.071 13.0049 21.2221 13.0049 21.3789C13.0049 21.5358 13.0602 21.6868 13.1597 21.8018C13.2592 21.9169 13.3956 21.9874 13.5416 21.9993H22.4589C22.6049 21.9874 22.7413 21.9169 22.8408 21.8018C22.9403 21.6868 22.9956 21.5358 22.9956 21.3789C22.9956 21.2221 22.9403 21.071 22.8408 20.956C22.7413 20.8409 22.6049 20.7704 22.4589 20.7585Z" fill="#222222"/>
<path d="M13.5794 17.6207H19.0295C19.1071 17.6235 19.1846 17.6096 19.2571 17.5797C19.3297 17.5498 19.3959 17.5045 19.4517 17.4466C19.5076 17.3888 19.5521 17.3194 19.5824 17.2427C19.6128 17.1661 19.6284 17.0836 19.6284 17.0004C19.6284 16.9171 19.6128 16.8346 19.5824 16.758C19.5521 16.6813 19.5076 16.6119 19.4517 16.5541C19.3959 16.4962 19.3297 16.4509 19.2571 16.421C19.1846 16.3911 19.1071 16.3772 19.0295 16.38H13.5794C13.5018 16.3772 13.4243 16.3911 13.3518 16.421C13.2792 16.4509 13.2131 16.4962 13.1572 16.5541C13.1013 16.6119 13.0568 16.6813 13.0265 16.758C12.9961 16.8346 12.9805 16.9171 12.9805 17.0004C12.9805 17.0836 12.9961 17.1661 13.0265 17.2427C13.0568 17.3194 13.1013 17.3888 13.1572 17.4466C13.2131 17.5045 13.2792 17.5498 13.3518 17.5797C13.4243 17.6096 13.5018 17.6235 13.5794 17.6207Z" fill="#222222"/>
</g>
<defs>
<filter id="filter0_d" x="0" y="0" width="36" height="36" filterUnits="userSpaceOnUse" color-interpolation-filters="sRGB">
<feFlood flood-opacity="0" result="BackgroundImageFix"/>
<feColorMatrix in="SourceAlpha" type="matrix" values="0 0 0 0 0 0 0 0 0 0 0 0 0 0 0 0 0 0 127 0"/>
<feOffset dy="1"/>
<feGaussianBlur stdDeviation="3"/>
<feColorMatrix type="matrix" values="0 0 0 0 0 0 0 0 0 0 0 0 0 0 0 0 0 0 0.102 0"/>
<feBlend mode="normal" in2="BackgroundImageFix" result="effect1_dropShadow"/>
<feBlend mode="normal" in="SourceGraphic" in2="effect1_dropShadow" result="shape"/>
</filter>
<clipPath id="clip0">
<rect width="10" height="10" fill="white" transform="translate(13 12)"/>
</clipPath>
</defs>
</svg>
