<svg width="102" height="24" viewBox="0 0 102 24" fill="none" xmlns="http://www.w3.org/2000/svg">
<g clip-path="url(#clip0)">
<path d="M12.152 0.622761C11.9575 0.431144 11.7631 0.38324 11.4714 0.38324H7.24257H5.20104H0.923549C0.631902 0.38324 0.437471 0.479048 0.243039 0.622761C0.0972157 0.766473 0 1.00599 0 1.29342C0 1.58084 0.0972157 1.77246 0.243039 1.96408C0.437471 2.15569 0.631902 2.2036 0.923549 2.2036H5.15243V14.4671C5.15243 14.7545 5.24965 14.994 5.44408 15.1856C5.63851 15.3773 5.88155 15.4731 6.17319 15.4731C6.46484 15.4731 6.70788 15.3773 6.90231 15.1856C7.09674 14.994 7.19396 14.7545 7.19396 14.4671V2.2036H11.4228C11.7145 2.2036 11.9089 2.10779 12.1034 1.96408C12.2978 1.77246 12.3464 1.58084 12.3464 1.29342C12.395 1.00599 12.3464 0.766473 12.152 0.622761Z" fill="#4C002E"/>
<path d="M21.0958 7.42514C20.6097 6.61076 19.9778 5.98801 19.1515 5.50897C18.3252 5.02993 17.4016 4.79041 16.3808 4.79041C15.3601 4.79041 14.4365 5.02993 13.6102 5.50897C12.7839 5.98801 12.152 6.61076 11.6659 7.42514C11.1798 8.23951 10.9368 9.14969 10.9368 10.1557C10.9368 11.1617 11.1798 12.0718 11.6173 12.8862C12.0547 13.7006 12.638 14.3233 13.4158 14.8024C14.1935 15.2814 15.0198 15.5209 15.992 15.5209C16.9641 15.5209 17.7905 15.2814 18.5682 14.8024C19.0543 14.515 19.4431 14.1796 19.7834 13.7485V14.4671C19.7834 14.7545 19.8806 14.994 20.075 15.1856C20.2695 15.3772 20.5125 15.473 20.8042 15.473C21.0958 15.473 21.3388 15.3772 21.5333 15.1856C21.7277 14.994 21.8249 14.7545 21.8249 14.4671V10.1557C21.8249 9.14969 21.5819 8.23951 21.0958 7.42514ZM18.2279 13.3653C17.6933 13.7006 17.11 13.8443 16.4295 13.8443C15.7976 13.8443 15.1656 13.7006 14.631 13.3653C14.0963 13.0299 13.6588 12.5988 13.3672 12.0718C13.0755 11.5449 12.8811 10.9221 12.8811 10.2036C12.8811 9.48502 13.0269 8.86226 13.3672 8.33532C13.6588 7.80837 14.0963 7.32933 14.631 7.0419C15.1656 6.70657 15.7489 6.56286 16.4295 6.56286C17.11 6.56286 17.6933 6.70657 18.2279 7.0419C18.7626 7.37723 19.1515 7.80837 19.4431 8.33532C19.7348 8.86226 19.8806 9.48502 19.8806 10.2036C19.8806 10.8742 19.7348 11.497 19.4431 12.0718C19.1515 12.5988 18.7626 13.0299 18.2279 13.3653Z" fill="#4C002E"/>
<path d="M32.6159 11.018C32.3728 10.6347 31.9354 10.2994 31.4007 9.96406C30.8174 9.67663 30.0396 9.43711 29.0675 9.2455C28.3384 9.10178 27.8037 8.95807 27.4634 8.81436C27.0746 8.67064 26.8315 8.47903 26.7343 8.28741C26.5885 8.09579 26.5399 7.90418 26.5399 7.66466C26.5399 7.28142 26.7343 6.994 27.1232 6.80238C27.512 6.61076 27.9981 6.51496 28.5814 6.51496C29.0675 6.51496 29.505 6.56286 29.8938 6.70657C30.2827 6.80238 30.6229 7.0419 30.9632 7.32933C31.1576 7.52094 31.4007 7.61675 31.6923 7.66466C31.984 7.71256 32.227 7.66466 32.4214 7.52094C32.6159 7.37723 32.7617 7.18562 32.7617 6.94609C32.7617 6.70657 32.7131 6.51496 32.5187 6.27544C32.1298 5.79639 31.5951 5.41316 30.9146 5.17364C30.2341 4.88621 29.4564 4.79041 28.63 4.79041C27.9495 4.79041 27.3176 4.88621 26.6857 5.12573C26.0538 5.31735 25.5677 5.65268 25.1789 6.08382C24.79 6.51496 24.5956 7.0419 24.5956 7.71256C24.5956 8.47903 24.8872 9.10178 25.4705 9.62873C26.0538 10.1557 27.026 10.5389 28.3384 10.7784C29.3591 10.97 30.0883 11.2096 30.4771 11.497C30.866 11.7844 31.0604 12.1197 31.0604 12.503C31.0604 12.8862 30.8174 13.2215 30.4285 13.4611C30.0396 13.7006 29.4564 13.8443 28.6786 13.8443C28.0953 13.8443 27.512 13.7485 27.026 13.509C26.5399 13.3174 26.1996 13.0778 25.9566 12.8383C25.7622 12.5988 25.5677 12.503 25.2761 12.4551C25.033 12.4072 24.7414 12.503 24.4984 12.6946C24.2553 12.8862 24.1581 13.0778 24.1095 13.3653C24.0609 13.6527 24.1581 13.8443 24.3525 14.0838C24.79 14.515 25.3733 14.8503 26.151 15.1377C26.9287 15.4251 27.8037 15.5688 28.6786 15.5688C29.6022 15.5688 30.3799 15.4251 31.0118 15.1377C31.6437 14.8503 32.1298 14.4671 32.4214 13.988C32.7617 13.509 32.9075 12.982 32.9075 12.3593C32.9561 11.8802 32.8589 11.4012 32.6159 11.018Z" fill="#4C002E"/>
<path d="M43.6498 14.0838L39.8584 9.48504L43.4554 6.32336C43.6498 6.13174 43.7471 5.94013 43.7471 5.7006C43.7471 5.46108 43.6984 5.26947 43.504 5.07785C43.3096 4.88623 43.1151 4.79043 42.8721 4.79043C42.6291 4.79043 42.386 4.83833 42.1916 5.02995L37.428 9.19761V1.29342C37.428 1.00599 37.3308 0.766473 37.185 0.622761C36.9906 0.431144 36.7961 0.38324 36.5045 0.38324C36.2128 0.38324 35.9698 0.479048 35.824 0.622761C35.6295 0.814377 35.5809 1.00599 35.5809 1.29342V14.515C35.5809 14.8024 35.6781 15.0419 35.824 15.1856C35.9698 15.3293 36.2128 15.4252 36.5045 15.4252C36.7961 15.4252 37.0392 15.3293 37.185 15.1856C37.3794 14.994 37.428 14.8024 37.428 14.515V11.5449L38.4002 10.6826L42.143 15.2335C42.3374 15.4252 42.5319 15.5689 42.7749 15.5689C43.0179 15.5689 43.261 15.521 43.4554 15.3293C43.6984 15.1377 43.7957 14.9461 43.7957 14.7066C43.8929 14.515 43.7957 14.2755 43.6498 14.0838Z" fill="#4C002E"/>
<path d="M47.9273 4.88623C47.6357 4.88623 47.3926 4.98204 47.1982 5.17366C47.0038 5.36527 46.9066 5.60479 46.9066 5.89222V14.515C46.9066 14.8024 47.0038 15.0419 47.1982 15.2335C47.3926 15.4252 47.6357 15.521 47.9273 15.521C48.219 15.521 48.462 15.4252 48.6564 15.2335C48.8509 15.0419 48.9481 14.8024 48.9481 14.515V5.89222C48.9481 5.60479 48.8509 5.36527 48.6564 5.17366C48.462 4.98204 48.219 4.88623 47.9273 4.88623Z" fill="#4C002E"/>
<path d="M47.9273 3.16169C48.2676 3.16169 48.6078 3.01797 48.8509 2.77845C49.0939 2.53893 49.2397 2.2036 49.2397 1.86827C49.2397 1.53294 49.0939 1.24552 48.8022 0.958093C48.5592 0.718572 48.2189 0.57486 47.8787 0.57486C47.5384 0.57486 47.1982 0.718572 46.9551 0.958093C46.7121 1.19761 46.5663 1.53294 46.5663 1.86827C46.5663 2.2036 46.7121 2.53893 46.9551 2.77845C47.2468 3.01797 47.5384 3.16169 47.9273 3.16169Z" fill="#4C002E"/>
<path d="M62.1208 7.0419C61.732 6.32334 61.1487 5.74849 60.4196 5.36526C59.6904 4.98202 58.9127 4.79041 57.9892 4.79041C57.1142 4.79041 56.3365 4.98202 55.656 5.36526C55.2671 5.55687 54.9269 5.79639 54.6352 6.08382V5.8922C54.6352 5.60478 54.538 5.36526 54.3436 5.17364C54.1491 4.98202 53.9061 4.88621 53.6145 4.88621C53.3228 4.88621 53.0798 4.98202 52.8853 5.17364C52.6909 5.36526 52.5937 5.60478 52.5937 5.8922V14.5629C52.5937 14.8503 52.6909 15.0898 52.8853 15.2814C53.0798 15.473 53.3228 15.5688 53.6145 15.5688C53.9061 15.5688 54.1491 15.473 54.3436 15.2814C54.538 15.0898 54.6352 14.8503 54.6352 14.5629V9.05388C54.6352 8.57484 54.781 8.1437 55.0241 7.76047C55.2671 7.37723 55.656 7.08981 56.0935 6.89819C56.5309 6.65867 57.017 6.56286 57.6003 6.56286C58.1836 6.56286 58.7183 6.65867 59.2044 6.89819C59.6904 7.13771 60.0307 7.47304 60.3223 7.95208C60.614 8.43112 60.7598 9.00597 60.7598 9.77244V14.5629C60.7598 14.8503 60.857 15.0898 61.0514 15.2814C61.2459 15.473 61.4889 15.5688 61.7806 15.5688C62.0722 15.5688 62.3153 15.473 62.5097 15.2814C62.7041 15.0898 62.8013 14.8503 62.8013 14.5629V9.77244C62.7527 8.67064 62.5097 7.76047 62.1208 7.0419Z" fill="#4C002E"/>
<path d="M75.6338 7.42514C75.1477 6.61076 74.5158 5.98801 73.6895 5.50897C72.8631 5.02993 71.9396 4.79041 70.9188 4.79041C69.898 4.79041 68.9745 5.02993 68.1482 5.50897C67.3218 5.98801 66.6899 6.61076 66.2038 7.42514C65.7178 8.23951 65.4747 9.14969 65.4747 10.1557C65.4747 11.1617 65.7178 12.0718 66.1552 12.8862C66.5927 13.7006 67.176 14.3233 67.9537 14.8024C68.7315 15.2814 69.5578 15.5209 70.5299 15.5209C71.5021 15.5209 72.3284 15.2814 73.1062 14.8024C73.5922 14.515 73.9811 14.1796 74.3214 13.7485V14.4671C74.3214 14.7545 74.4186 14.994 74.613 15.1856C74.8074 15.3772 75.0505 15.473 75.3421 15.473C75.6338 15.473 75.8768 15.3772 76.0712 15.1856C76.2657 14.994 76.3629 14.7545 76.3629 14.4671V10.1557C76.3629 9.14969 76.1198 8.23951 75.6338 7.42514ZM72.7173 13.3653C72.1826 13.7006 71.5993 13.8443 70.9188 13.8443C70.2869 13.8443 69.655 13.7006 69.1203 13.3653C68.5856 13.0299 68.1482 12.5988 67.8565 12.0718C67.5649 11.5449 67.3704 10.9221 67.3704 10.2036C67.3704 9.48502 67.5163 8.86226 67.8565 8.33532C68.1482 7.80837 68.5856 7.32933 69.1203 7.0419C69.655 6.70657 70.2383 6.56286 70.9188 6.56286C71.5993 6.56286 72.1826 6.70657 72.7173 7.0419C73.252 7.37723 73.6408 7.80837 73.9325 8.33532C74.2241 8.86226 74.37 9.48502 74.37 10.2036C74.37 10.8742 74.2241 11.497 73.9325 12.0718C73.6895 12.5988 73.252 13.0299 72.7173 13.3653Z" fill="#4C002E"/>
<path d="M89.605 4.45509C85.765 4.93413 81.6333 5.17365 77.2586 5.22156C81.6819 7.90419 85.8622 8.95808 89.8966 8.47904C93.9311 8 97.7225 5.94012 101.368 2.2515C97.3823 3.25748 93.445 3.97605 89.605 4.45509Z" fill="#ECB32E"/>
<path d="M87.4663 11.8323C86.0566 15.6647 84.404 19.3054 82.5569 22.7066C86.9316 20.024 89.8481 16.7665 91.2091 12.982C92.5701 9.19761 92.4729 4.88623 90.8688 0C89.9939 4.07186 88.8759 8 87.4663 11.8323Z" fill="#2EB67D"/>
<path d="M88.9245 11.3054C88.0496 15.0419 86.9316 19.1138 85.5706 23.521C89.605 20.3114 92.084 16.7665 93.0076 12.8383C93.9311 8.91018 93.2506 4.64671 91.0632 0C90.5286 3.78443 89.7994 7.52096 88.9245 11.3054Z" fill="#34C5F0"/>
<path d="M90.6744 5.55688C86.8343 6.70658 82.8971 7.71257 78.7654 8.57484C83.5776 10.4431 87.9037 10.7784 91.7923 9.62874C95.681 8.43113 99.0835 5.7485 102 1.53293C98.3058 3.01796 94.5144 4.35928 90.6744 5.55688Z" fill="#E0245A"/>
<path d="M5.29825 22.2275C5.24964 22.2275 5.20104 22.2275 5.15243 22.1796C5.10382 22.1317 5.10382 22.0838 5.10382 22.0359V16.6707C5.10382 16.6227 5.10382 16.5748 5.15243 16.5269C5.20104 16.479 5.24964 16.479 5.29825 16.479C5.34686 16.479 5.39547 16.479 5.44408 16.5269C5.49268 16.5748 5.49268 16.6227 5.49268 16.6707V19.1138H9.28409V16.6707C9.28409 16.6227 9.28409 16.5748 9.3327 16.5269C9.38131 16.479 9.42992 16.479 9.47853 16.479C9.52713 16.479 9.57574 16.479 9.62435 16.5269C9.67296 16.5748 9.67296 16.6227 9.67296 16.6707V21.988C9.67296 22.0359 9.67296 22.0838 9.62435 22.1317C9.57574 22.1796 9.52713 22.1796 9.47853 22.1796C9.42992 22.1796 9.38131 22.1796 9.3327 22.1317C9.28409 22.0838 9.28409 22.0359 9.28409 21.988V19.497H5.49268V21.988C5.49268 22.0359 5.49268 22.0838 5.44408 22.1317C5.39547 22.1796 5.34686 22.2275 5.29825 22.2275Z" fill="#4C002E"/>
<path d="M12.7353 22.2754C12.3464 22.2754 12.0061 22.1796 11.6659 22.0359C11.3742 21.8443 11.1312 21.6048 10.9368 21.3173C10.7909 20.9341 10.6937 20.5988 10.6937 20.2155C10.6937 19.8323 10.7909 19.4491 10.9368 19.1617C11.0826 18.8742 11.3256 18.5868 11.6173 18.4431C11.9089 18.2515 12.2492 18.1557 12.638 18.1557C13.0269 18.1557 13.3185 18.2515 13.6102 18.3952C13.9018 18.5868 14.0963 18.7784 14.2907 19.1138C14.4365 19.4012 14.5337 19.7365 14.5337 20.1676C14.5337 20.2155 14.5337 20.2635 14.4851 20.3114C14.4365 20.3593 14.3879 20.3593 14.3393 20.3593H11.034V19.976H14.4365L14.0963 20.2155C14.0963 19.8802 14.0477 19.5928 13.9505 19.3533C13.8532 19.1138 13.6588 18.9221 13.4158 18.7784C13.1727 18.6347 12.9297 18.5868 12.638 18.5868C12.3464 18.5868 12.1034 18.6347 11.8603 18.7784C11.6173 18.9221 11.4715 19.1138 11.3256 19.3533C11.1798 19.5928 11.1312 19.8802 11.1312 20.2155C11.1312 20.5509 11.1798 20.8383 11.3256 21.0778C11.4715 21.3173 11.6659 21.509 11.9089 21.6527C12.152 21.7964 12.4436 21.8443 12.7353 21.8443C12.9297 21.8443 13.1241 21.7964 13.3185 21.7485C13.513 21.7006 13.6588 21.6048 13.8046 21.509C13.8532 21.4611 13.9018 21.4611 13.9505 21.4611C13.9991 21.4611 14.0477 21.4611 14.0963 21.509C14.1449 21.5569 14.1935 21.6048 14.1935 21.6527C14.1935 21.7006 14.1935 21.7485 14.1449 21.7964C13.9991 21.9401 13.756 22.0359 13.513 22.1317C13.2213 22.2275 12.9783 22.2754 12.7353 22.2754Z" fill="#4C002E"/>
<path d="M16.0892 22.2275C15.8948 22.2275 15.749 22.1796 15.6031 22.0838C15.4573 21.988 15.3601 21.8443 15.2629 21.6527C15.1657 21.4611 15.1171 21.2695 15.1171 21.0299V16.6707C15.1171 16.6227 15.1171 16.5269 15.1657 16.5269C15.2143 16.479 15.2629 16.479 15.3115 16.479C15.3601 16.479 15.4573 16.479 15.4573 16.5269C15.5059 16.5748 15.5059 16.6227 15.5059 16.6707V21.0299C15.5059 21.2695 15.5545 21.4611 15.6518 21.6048C15.749 21.7485 15.8948 21.8443 16.0406 21.8443H16.235C16.2837 21.8443 16.3323 21.8443 16.3809 21.8922C16.4295 21.9401 16.4295 21.988 16.4295 22.0359C16.4295 22.0838 16.4295 22.1317 16.3809 22.1796C16.3323 22.2275 16.2837 22.2275 16.235 22.2275H16.0892Z" fill="#4C002E"/>
<path d="M17.2558 23.9521C17.2072 23.9521 17.1586 23.9521 17.1099 23.9042C17.0613 23.8563 17.0613 23.8084 17.0613 23.7605V20.1677C17.0613 19.7844 17.1586 19.4491 17.353 19.1138C17.5474 18.8264 17.7905 18.5868 18.0821 18.3952C18.3738 18.2036 18.7626 18.1078 19.1515 18.1078C19.5403 18.1078 19.9292 18.2036 20.2208 18.3952C20.5611 18.5868 20.8041 18.8264 20.95 19.1138C21.1444 19.4491 21.2416 19.7844 21.2416 20.1677C21.2416 20.5509 21.1444 20.8862 20.95 21.2216C20.7555 21.5569 20.5125 21.7964 20.2208 21.9401C19.8806 22.1317 19.5403 22.2276 19.1515 22.2276C18.8112 22.2276 18.471 22.1317 18.1793 21.988C17.8877 21.8443 17.6446 21.6527 17.4988 21.3653V23.6647C17.4988 23.7126 17.4988 23.7605 17.4502 23.8084C17.4016 23.9521 17.353 23.9521 17.2558 23.9521ZM19.1515 21.8443C19.4431 21.8443 19.7348 21.7485 19.9778 21.6048C20.2208 21.4611 20.4153 21.2695 20.5611 21.0299C20.7069 20.7904 20.7555 20.503 20.7555 20.1677C20.7555 19.8323 20.7069 19.5928 20.5611 19.3054C20.4153 19.0659 20.2208 18.8743 19.9778 18.7305C19.7348 18.5868 19.4431 18.491 19.1515 18.491C18.8598 18.491 18.5682 18.5868 18.3251 18.7305C18.0821 18.8743 17.8877 19.0659 17.7419 19.3054C17.596 19.5449 17.5474 19.8323 17.5474 20.1677C17.5474 20.4551 17.596 20.7425 17.7419 21.0299C17.8877 21.2695 18.0821 21.4611 18.3251 21.6048C18.5682 21.7964 18.8112 21.8443 19.1515 21.8443Z" fill="#4C002E"/>
<path d="M22.0679 23.3772C22.0193 23.3772 21.9707 23.3772 21.9707 23.3293C21.9221 23.3293 21.9221 23.2814 21.9221 23.2335C21.9221 23.1856 21.9221 23.1377 21.9707 23.0898C22.0193 23.0419 22.0679 22.994 22.0679 22.8982C22.1165 22.8503 22.1165 22.7545 22.1165 22.6587C22.1165 22.5629 22.1165 22.4671 22.0679 22.4192C22.0193 22.3713 22.0193 22.3234 21.9707 22.2754C21.9221 22.2275 21.8735 22.1796 21.8735 22.1317C21.8249 22.0838 21.8249 21.988 21.8249 21.9401C21.8249 21.8443 21.8735 21.7485 21.9221 21.6527C22.0193 21.6048 22.0679 21.5569 22.1651 21.5569C22.311 21.5569 22.4082 21.6048 22.5054 21.7006C22.6026 21.7964 22.6512 21.9401 22.6512 22.1796C22.6512 22.3234 22.6512 22.4671 22.6026 22.5629C22.554 22.7066 22.5054 22.8024 22.4568 22.9461C22.4082 23.0419 22.3596 23.1377 22.2624 23.2335C22.2138 23.3293 22.1651 23.3772 22.0679 23.3772Z" fill="#4C002E"/>
<path d="M27.3176 22.2754C26.9288 22.2754 26.5399 22.1796 26.2482 21.988C25.908 21.7964 25.6649 21.5569 25.5191 21.2694C25.3247 20.9341 25.2275 20.5988 25.2275 20.2155C25.2275 19.8323 25.3247 19.4491 25.5191 19.1617C25.7136 18.8263 25.9566 18.5868 26.2482 18.4431C26.5885 18.2515 26.9288 18.1557 27.3176 18.1557C27.7065 18.1557 28.0953 18.2515 28.387 18.4431C28.6786 18.6347 28.9703 18.8742 29.1161 19.1617C29.3105 19.497 29.4078 19.8323 29.4078 20.2155C29.4078 20.5988 29.3105 20.9341 29.1161 21.2694C28.9217 21.6048 28.6786 21.8443 28.387 21.988C28.0467 22.1796 27.7065 22.2754 27.3176 22.2754ZM27.3176 21.8443C27.6093 21.8443 27.9009 21.7485 28.1439 21.6048C28.387 21.4611 28.5814 21.2694 28.7272 21.0299C28.8731 20.7904 28.9217 20.503 28.9217 20.1676C28.9217 19.8802 28.8731 19.5928 28.7272 19.3054C28.5814 19.0658 28.387 18.8742 28.1439 18.7305C27.9009 18.5868 27.6093 18.491 27.3176 18.491C27.026 18.491 26.7343 18.5868 26.4913 18.7305C26.2482 18.8742 26.0538 19.0658 25.908 19.3054C25.7622 19.5449 25.7136 19.8323 25.7136 20.1676C25.7136 20.4551 25.7622 20.7425 25.908 21.0299C26.0538 21.2694 26.2482 21.4611 26.4913 21.6048C26.7343 21.7964 26.9774 21.8443 27.3176 21.8443Z" fill="#4C002E"/>
<path d="M30.5257 22.2275C30.4771 22.2275 30.4285 22.2275 30.3799 22.1796C30.3313 22.1317 30.3313 22.0838 30.3313 22.0359V18.4431C30.3313 18.3952 30.3313 18.2994 30.3799 18.2994C30.4285 18.2515 30.4771 18.2515 30.5257 18.2515C30.5743 18.2515 30.6716 18.2515 30.6716 18.2994C30.7202 18.3473 30.7202 18.3952 30.7202 18.4431V22.0359C30.7202 22.0838 30.7202 22.1317 30.6716 22.1796C30.6229 22.1796 30.5743 22.2275 30.5257 22.2275ZM33.8311 22.2275C33.7825 22.2275 33.7339 22.2275 33.6852 22.1796C33.6366 22.1317 33.6366 22.0838 33.6366 22.0359V20.0239C33.6366 19.6886 33.588 19.4491 33.4422 19.2096C33.2964 19.018 33.1506 18.8263 32.9075 18.7305C32.7131 18.6347 32.4214 18.5868 32.1784 18.5868C31.8867 18.5868 31.6437 18.6347 31.4493 18.7305C31.2548 18.8263 31.0604 18.97 30.9146 19.1617C30.7688 19.3533 30.7202 19.5449 30.7202 19.7844H30.3313C30.3313 19.497 30.4285 19.2096 30.6229 18.97C30.7688 18.7305 31.0118 18.5389 31.2548 18.3952C31.4979 18.2515 31.7895 18.2036 32.1298 18.2036C32.47 18.2036 32.8103 18.2994 33.1019 18.4431C33.3936 18.5868 33.6366 18.7784 33.7825 19.0659C33.9283 19.3533 34.0255 19.6886 34.0255 20.1198V22.1317C34.0255 22.1796 34.0255 22.2275 33.9769 22.2754C33.9769 22.1796 33.8797 22.2275 33.8311 22.2275Z" fill="#4C002E"/>
<path d="M38.4488 22.1317C38.4002 22.1796 38.303 22.1796 38.2544 22.1317C38.2057 22.1317 38.1571 22.0838 38.1571 22.0359L36.5045 18.491C36.4559 18.4431 36.4559 18.3473 36.5045 18.2994C36.5045 18.2515 36.5531 18.2036 36.6017 18.2036C36.6503 18.1557 36.7475 18.1557 36.7961 18.2036C36.8447 18.2036 36.8933 18.2515 36.8933 18.2994L38.546 21.8443C38.5946 21.8922 38.5946 21.988 38.546 22.0359C38.5946 22.0359 38.546 22.0838 38.4488 22.1317ZM37.6711 24C37.6225 24 37.6225 24 37.5738 24C37.428 23.9521 37.3794 23.8563 37.4766 23.7126L40.0042 18.2994C40.0528 18.1557 40.1501 18.1557 40.2959 18.2036C40.4417 18.2515 40.4903 18.3473 40.3931 18.491L37.8655 23.9042C37.8169 23.9521 37.7683 24 37.6711 24Z" fill="#4C002E"/>
<path d="M42.6291 22.2755C42.2402 22.2755 41.8514 22.1797 41.5597 21.988C41.2194 21.7964 40.9764 21.5569 40.8306 21.2695C40.6362 20.9341 40.5389 20.5988 40.5389 20.2156C40.5389 19.8323 40.6362 19.4491 40.8306 19.1617C41.025 18.8264 41.2681 18.5868 41.5597 18.4431C41.9 18.2515 42.2402 18.1557 42.6291 18.1557C43.0179 18.1557 43.4068 18.2515 43.6984 18.4431C43.9901 18.6347 44.2817 18.8743 44.4276 19.1617C44.622 19.497 44.7192 19.8323 44.7192 20.2156C44.7192 20.5988 44.622 20.9341 44.4276 21.2695C44.2331 21.6048 43.9901 21.8443 43.6984 21.988C43.4068 22.1797 43.0179 22.2755 42.6291 22.2755ZM42.6291 21.8443C42.9207 21.8443 43.2124 21.7485 43.4554 21.6048C43.6984 21.4611 43.8929 21.2695 44.0387 21.03C44.1845 20.7904 44.2331 20.503 44.2331 20.1677C44.2331 19.8802 44.1845 19.5928 44.0387 19.3054C43.8929 19.0659 43.6984 18.8743 43.4554 18.7305C43.2124 18.5868 42.9207 18.491 42.6291 18.491C42.3374 18.491 42.0458 18.5868 41.8027 18.7305C41.5597 18.8743 41.3653 19.0659 41.2195 19.3054C41.0736 19.5449 41.025 19.8323 41.025 20.1677C41.025 20.4551 41.0736 20.7425 41.2195 21.03C41.3653 21.2695 41.5597 21.4611 41.8027 21.6048C42.0458 21.7964 42.3374 21.8443 42.6291 21.8443Z" fill="#4C002E"/>
<path d="M47.4412 22.2754C47.101 22.2754 46.7607 22.1796 46.4691 22.0359C46.1774 21.8922 45.9344 21.7006 45.7886 21.4132C45.6427 21.1257 45.5455 20.7904 45.5455 20.4072V18.3952C45.5455 18.3473 45.5455 18.2994 45.5941 18.2515C45.6428 18.2036 45.6914 18.2036 45.74 18.2036C45.7886 18.2036 45.8372 18.2036 45.8858 18.2515C45.9344 18.2994 45.9344 18.3473 45.9344 18.3952V20.4072C45.9344 20.7425 45.983 20.982 46.1288 21.2215C46.2747 21.4132 46.4205 21.6048 46.6635 21.7006C46.8579 21.7964 47.1496 21.8443 47.3926 21.8443C47.6843 21.8443 47.9273 21.7964 48.1217 21.7006C48.3162 21.6048 48.5106 21.4611 48.6564 21.2695C48.8023 21.0778 48.8509 20.8862 48.8509 20.6946H49.2397C49.2397 20.982 49.1425 21.2695 48.9481 21.509C48.8023 21.7485 48.5592 21.9401 48.3162 22.0838C48.0245 22.2275 47.7329 22.2754 47.4412 22.2754ZM49.0939 22.2275C49.0453 22.2275 48.9967 22.2275 48.9481 22.1796C48.8995 22.1317 48.8995 22.0838 48.8995 22.0359V18.4431C48.8995 18.3952 48.8995 18.2994 48.9481 18.2994C48.9967 18.2515 49.0453 18.2515 49.0939 18.2515C49.1425 18.2515 49.2397 18.2515 49.2397 18.2994C49.2883 18.3473 49.2883 18.3952 49.2883 18.4431V22.0359C49.2883 22.0838 49.2883 22.1317 49.2397 22.1796C49.1911 22.1796 49.1425 22.2275 49.0939 22.2275Z" fill="#4C002E"/>
<path d="M50.6494 22.2276C50.6008 22.2276 50.5522 22.2275 50.5036 22.1796C50.455 22.1317 50.455 22.0838 50.455 22.0359V18.4431C50.455 18.3952 50.455 18.2994 50.5036 18.2994C50.5522 18.2515 50.6008 18.2515 50.6494 18.2515C50.698 18.2515 50.7952 18.2515 50.7952 18.2994C50.8438 18.3473 50.8438 18.3952 50.8438 18.4431V22.0359C50.8438 22.0838 50.8438 22.1317 50.7952 22.1796C50.7466 22.1796 50.698 22.2276 50.6494 22.2276ZM50.5522 19.7365C50.6008 19.4012 50.6494 19.1617 50.7952 18.8743C50.941 18.6347 51.1355 18.4431 51.3785 18.2994C51.6215 18.1557 51.8646 18.1078 52.1562 18.1078C52.3507 18.1078 52.4965 18.1078 52.5937 18.1557C52.6909 18.2036 52.7395 18.2994 52.6909 18.3952C52.6909 18.491 52.6423 18.491 52.5937 18.5389C52.5451 18.5389 52.4479 18.5389 52.3993 18.5389C52.3021 18.5389 52.2534 18.5389 52.1562 18.5389C51.9132 18.5389 51.6702 18.5868 51.4757 18.6826C51.2813 18.7784 51.1355 18.9222 51.0382 19.1138C50.941 19.3054 50.8924 19.497 50.8924 19.7365H50.5522Z" fill="#4C002E"/>
<path d="M55.0727 18.7305C55.0241 18.7305 54.9754 18.7305 54.9268 18.6826C54.8782 18.6347 54.8782 18.5868 54.8782 18.5389C54.8782 18.491 54.8782 18.4431 54.9268 18.3952C54.9754 18.3473 55.0241 18.3473 55.0727 18.3473H57.1142C57.1628 18.3473 57.2114 18.3473 57.26 18.3952C57.3086 18.4431 57.3086 18.491 57.3086 18.5389C57.3086 18.5868 57.3086 18.6347 57.26 18.6826C57.2114 18.7305 57.1628 18.7305 57.1142 18.7305H55.0727ZM57.0656 22.2276C56.7739 22.2276 56.5309 22.1796 56.3365 22.0359C56.142 21.8922 55.9476 21.7485 55.8504 21.509C55.7532 21.3174 55.656 21.0299 55.656 20.7904V17.1018C55.656 17.0539 55.656 16.9581 55.7046 16.9581C55.7532 16.9102 55.8018 16.9102 55.8504 16.9102C55.899 16.9102 55.9962 16.9102 55.9962 16.9581C56.0448 17.006 56.0448 17.0539 56.0448 17.1018V20.7904C56.0448 21.0779 56.142 21.3174 56.3365 21.509C56.5309 21.7006 56.7739 21.7964 57.017 21.7964H57.1628C57.2114 21.7964 57.3086 21.7964 57.3086 21.8443C57.3572 21.8922 57.3572 21.9401 57.3572 21.988C57.3572 22.0359 57.3572 22.0838 57.3086 22.1317C57.26 22.1796 57.2114 22.1796 57.1628 22.1796H57.0656V22.2276Z" fill="#4C002E"/>
<path d="M59.9821 22.2754C59.5932 22.2754 59.253 22.1796 58.9127 22.0359C58.6211 21.8443 58.378 21.6048 58.1836 21.3174C57.9892 21.0299 57.9406 20.6467 57.9406 20.2635C57.9406 19.8802 58.0378 19.497 58.1836 19.2096C58.3294 18.9221 58.5725 18.6347 58.8641 18.491C59.1557 18.2994 59.496 18.2036 59.8849 18.2036C60.2737 18.2036 60.5654 18.2994 60.857 18.4431C61.1487 18.6347 61.3431 18.8263 61.5375 19.1617C61.6834 19.4491 61.7806 19.7844 61.7806 20.2156C61.7806 20.2635 61.7806 20.3114 61.732 20.3593C61.6834 20.4072 61.6348 20.4072 61.5861 20.4072H58.2808V20.0239H61.6834L61.3431 20.2635C61.3431 19.9281 61.2945 19.6407 61.1973 19.4012C61.1001 19.1617 60.9056 18.97 60.6626 18.8263C60.4196 18.6826 60.1765 18.6347 59.8849 18.6347C59.5932 18.6347 59.3502 18.6826 59.1071 18.8263C58.8641 18.97 58.7183 19.1617 58.5725 19.4012C58.4266 19.6407 58.378 19.9281 58.378 20.2635C58.378 20.5988 58.4266 20.8862 58.5725 21.1257C58.7183 21.3653 58.9127 21.5569 59.1557 21.7006C59.3988 21.8443 59.6904 21.8922 59.9821 21.8922C60.1765 21.8922 60.3709 21.8443 60.5654 21.7964C60.7598 21.7485 60.9056 21.6527 61.0515 21.5569C61.1001 21.509 61.1487 21.509 61.1973 21.509C61.2459 21.509 61.2945 21.509 61.3431 21.5569C61.3917 21.6048 61.4403 21.6527 61.4403 21.7006C61.4403 21.7485 61.4403 21.7964 61.3917 21.8443C61.2459 21.988 61.0028 22.0838 60.7598 22.1796C60.5168 22.2754 60.2251 22.2754 59.9821 22.2754Z" fill="#4C002E"/>
<path d="M62.7041 22.2276C62.6555 22.2276 62.6069 22.2275 62.5583 22.1796C62.5097 22.1317 62.5097 22.0838 62.5097 22.0359V18.4431C62.5097 18.3952 62.5097 18.2994 62.5583 18.2994C62.6069 18.2515 62.6555 18.2515 62.7041 18.2515C62.7527 18.2515 62.85 18.2515 62.85 18.2994C62.8986 18.3473 62.8986 18.3952 62.8986 18.4431V22.0359C62.8986 22.0838 62.8986 22.1317 62.85 22.1796C62.85 22.1796 62.8013 22.2276 62.7041 22.2276ZM62.6555 19.7365C62.7041 19.4012 62.7527 19.1617 62.8986 18.8743C63.0444 18.6347 63.2388 18.4431 63.4819 18.2994C63.7249 18.1557 63.9679 18.1078 64.2596 18.1078C64.454 18.1078 64.5998 18.1078 64.6971 18.1557C64.7943 18.2036 64.8429 18.2994 64.7943 18.3952C64.7943 18.491 64.7457 18.491 64.6971 18.5389C64.6484 18.5389 64.5512 18.5389 64.5026 18.5389C64.4054 18.5389 64.3568 18.5389 64.2596 18.5389C64.0165 18.5389 63.7735 18.5868 63.5791 18.6826C63.3846 18.7784 63.2388 18.9222 63.1416 19.1138C63.0444 19.3054 62.9958 19.497 62.9958 19.7365H62.6555Z" fill="#4C002E"/>
<path d="M65.7664 22.2276C65.7178 22.2276 65.6692 22.2276 65.6206 22.1797C65.572 22.1317 65.572 22.0838 65.572 22.0359V18.4431C65.572 18.3952 65.572 18.2994 65.6206 18.2994C65.6692 18.2515 65.7178 18.2515 65.7664 18.2515C65.815 18.2515 65.9122 18.2515 65.9122 18.2994C65.9608 18.3473 65.9608 18.3952 65.9608 18.4431V22.0359C65.9608 22.0838 65.9608 22.1317 65.9122 22.1797C65.9122 22.1797 65.8636 22.2276 65.7664 22.2276ZM68.4884 22.2276C68.4398 22.2276 68.3912 22.2276 68.3426 22.1797C68.294 22.1317 68.294 22.0838 68.294 22.0359V19.8803C68.294 19.497 68.1968 19.2096 68.0024 18.9701C67.8079 18.7305 67.5163 18.5868 67.2246 18.5868C66.8844 18.5868 66.5927 18.6826 66.3983 18.9222C66.1553 19.1617 66.058 19.4012 66.058 19.7844H65.6206C65.6206 19.4491 65.7178 19.2096 65.8636 18.9701C66.0094 18.7305 66.2039 18.5389 66.3983 18.3952C66.6413 18.2515 66.8844 18.2036 67.176 18.2036C67.4677 18.2036 67.7593 18.2994 68.0024 18.4431C68.2454 18.5868 68.3912 18.7785 68.537 19.0659C68.6829 19.3054 68.7315 19.6407 68.7315 19.9761V22.1317C68.7315 22.1797 68.7315 22.2276 68.6829 22.2755C68.6343 22.1797 68.5856 22.2276 68.4884 22.2276ZM71.2105 22.2276C71.1619 22.2276 71.1133 22.2276 71.0646 22.1797C71.016 22.1317 71.016 22.0838 71.016 22.0359V19.8803C71.016 19.497 70.9188 19.2096 70.7244 18.9701C70.53 18.7305 70.2383 18.5868 69.9467 18.5868C69.6064 18.5868 69.3148 18.6826 69.1203 18.9222C68.9259 19.1617 68.7801 19.4491 68.8287 19.8323H68.3912C68.3912 19.497 68.4884 19.2096 68.6343 18.9222C68.7801 18.6826 68.9745 18.491 69.2175 18.3473C69.4606 18.2036 69.7522 18.1557 70.0439 18.1557C70.3355 18.1557 70.6272 18.2515 70.8702 18.3952C71.1133 18.5389 71.2591 18.7306 71.4049 19.018C71.5507 19.2575 71.5993 19.5928 71.5993 19.9282V22.0838C71.5993 22.1317 71.5993 22.1797 71.5507 22.2276C71.3077 22.1797 71.2591 22.2276 71.2105 22.2276Z" fill="#4C002E"/>
<path d="M73.7867 22.2755C73.5436 22.2755 73.252 22.2275 72.9603 22.1317C72.6687 22.0359 72.4257 21.8922 72.2312 21.6527C72.1826 21.6048 72.1826 21.5569 72.1826 21.509C72.1826 21.4611 72.2312 21.4132 72.2798 21.3653C72.3284 21.3174 72.377 21.3174 72.4257 21.3174C72.4743 21.3174 72.5229 21.3653 72.5715 21.4132C72.7173 21.6048 72.9117 21.7006 73.1062 21.7485C73.3006 21.7964 73.5436 21.8443 73.7867 21.8443C74.2242 21.8443 74.5158 21.7485 74.6616 21.6048C74.8561 21.4611 74.9047 21.2695 74.9047 21.0778C74.9047 20.8862 74.8074 20.7425 74.613 20.5988C74.4186 20.4551 74.1269 20.3593 73.7381 20.3114C73.252 20.2635 72.8631 20.1198 72.6201 19.9281C72.377 19.7365 72.2798 19.497 72.2798 19.2575C72.2798 19.018 72.3284 18.7784 72.4743 18.6347C72.6201 18.4431 72.7659 18.3473 73.009 18.2515C73.2034 18.1557 73.495 18.1078 73.7381 18.1078C74.0783 18.1078 74.37 18.1557 74.613 18.2994C74.8561 18.4431 75.0505 18.5868 75.1963 18.7784C75.2449 18.8264 75.2449 18.8743 75.2449 18.9222C75.2449 18.9701 75.1963 19.018 75.1477 19.0659C75.0991 19.1138 75.0505 19.1138 75.0019 19.0659C74.9533 19.0659 74.9047 19.018 74.8561 18.9701C74.7102 18.8264 74.5644 18.6826 74.4186 18.6347C74.2242 18.5389 74.0297 18.491 73.7867 18.491C73.495 18.491 73.2034 18.5389 73.0576 18.6826C72.9117 18.8264 72.8145 18.9701 72.8145 19.1617C72.8145 19.3054 72.8631 19.4012 72.9117 19.497C72.9603 19.5928 73.1062 19.6886 73.252 19.7365C73.3978 19.7844 73.6409 19.8802 73.9325 19.8802C74.3214 19.9281 74.613 20.024 74.8074 20.1198C75.0019 20.2156 75.1963 20.3593 75.2935 20.5509C75.3907 20.6946 75.4393 20.8862 75.4393 21.0299C75.4393 21.2695 75.3421 21.4611 75.1963 21.6527C75.0505 21.8443 74.8561 21.9401 74.613 22.0359C74.37 22.2275 74.0783 22.2755 73.7867 22.2755Z" fill="#4C002E"/>
<path d="M76.2171 22.2275C76.1199 22.2275 76.0227 22.1796 75.9255 22.1317C75.8769 22.0838 75.8282 21.988 75.8282 21.8443C75.8282 21.7485 75.8769 21.6527 75.9255 21.5569C76.0227 21.509 76.0713 21.4611 76.2171 21.4611C76.3143 21.4611 76.4115 21.509 76.4602 21.5569C76.5088 21.6048 76.5574 21.7006 76.5574 21.7964C76.5574 21.8922 76.5088 21.988 76.4602 22.0838C76.4115 22.1796 76.3629 22.2275 76.2171 22.2275ZM76.2171 20.9341C76.1685 20.9341 76.1199 20.9341 76.0713 20.8862C76.0227 20.8383 76.0227 20.7904 76.0227 20.7425V16.6707C76.0227 16.6227 76.0227 16.5269 76.0713 16.5269C76.1199 16.479 76.1685 16.479 76.2171 16.479C76.2657 16.479 76.3143 16.479 76.3629 16.5269C76.4115 16.5748 76.4115 16.6227 76.4115 16.6707V20.7425C76.4115 20.7904 76.4115 20.8383 76.3629 20.8862C76.3143 20.9341 76.3143 20.9341 76.2171 20.9341Z" fill="#4C002E"/>
<path d="M77.2865 13.8922H77.2379V13.8443V13.7964H77.2865H78.1128H78.1614V13.8443V13.8922H78.1128H77.2865ZM77.6753 14.9461H77.6267V14.8982V13.7485H77.7725V14.8982V14.9461C77.7239 14.9461 77.7239 14.9461 77.6753 14.9461Z" fill="#4C002E"/>
<path d="M78.3559 14.9461H78.3073V14.8982V13.8443V13.7964H78.3559C78.4045 13.7964 78.4045 13.7964 78.4045 13.8443L78.8905 14.8024H78.8419L79.328 13.8443C79.328 13.7964 79.3766 13.7964 79.3766 13.7964H79.4252V13.8443V14.8982C79.4252 14.8982 79.4252 14.9461 79.3766 14.9461H79.328H79.2794V14.8982V14.0838H79.328L78.8905 14.8982C78.8905 14.9461 78.8419 14.9461 78.8419 14.9461C78.7933 14.9461 78.7933 14.9461 78.7447 14.8982L78.3559 14.0838H78.4045V14.8982V14.9461H78.3559Z" fill="#4C002E"/>
</g>
<defs>
<clipPath id="clip0">
<rect width="102" height="24" fill="white"/>
</clipPath>
</defs>
</svg>
