<svg width="18" height="14" viewBox="0 0 18 14" fill="none" xmlns="http://www.w3.org/2000/svg">
<path d="M2.7 6.1002C3.69281 6.1002 4.5 5.29301 4.5 4.3002C4.5 3.30738 3.69281 2.5002 2.7 2.5002C1.70719 2.5002 0.9 3.30738 0.9 4.3002C0.9 5.29301 1.70719 6.1002 2.7 6.1002ZM15.3 6.1002C16.2928 6.1002 17.1 5.29301 17.1 4.3002C17.1 3.30738 16.2928 2.5002 15.3 2.5002C14.3072 2.5002 13.5 3.30738 13.5 4.3002C13.5 5.29301 14.3072 6.1002 15.3 6.1002ZM16.2 7.0002H14.4C13.905 7.0002 13.4578 7.19988 13.1316 7.52332C14.265 8.14488 15.0694 9.26707 15.2437 10.6002H17.1C17.5978 10.6002 18 10.198 18 9.7002V8.8002C18 7.80738 17.1928 7.0002 16.2 7.0002ZM9 7.0002C10.7409 7.0002 12.15 5.59113 12.15 3.8502C12.15 2.10926 10.7409 0.700195 9 0.700195C7.25906 0.700195 5.85 2.10926 5.85 3.8502C5.85 5.59113 7.25906 7.0002 9 7.0002ZM11.16 7.9002H10.9266C10.3416 8.18145 9.69187 8.3502 9 8.3502C8.30812 8.3502 7.66125 8.18145 7.07344 7.9002H6.84C5.05125 7.9002 3.6 9.35145 3.6 11.1402V11.9502C3.6 12.6955 4.20469 13.3002 4.95 13.3002H13.05C13.7953 13.3002 14.4 12.6955 14.4 11.9502V11.1402C14.4 9.35145 12.9487 7.9002 11.16 7.9002ZM4.86844 7.52332C4.54219 7.19988 4.095 7.0002 3.6 7.0002H1.8C0.807187 7.0002 0 7.80738 0 8.8002V9.7002C0 10.198 0.402187 10.6002 0.9 10.6002H2.75344C2.93062 9.26707 3.735 8.14488 4.86844 7.52332Z" fill="#D2D2D2"/>
</svg>
