<svg xmlns="http://www.w3.org/2000/svg" width="13.557" height="20.509" viewBox="0 0 13.557 20.509">
  <g id="mic" transform="translate(-4.2 -0.2)">
    <path id="Path_2342" data-name="Path 2342" d="M11.5.2a3.306,3.306,0,0,1,3.3,3.3v6.952a3.3,3.3,0,1,1-6.6,0V3.5A3.306,3.306,0,0,1,11.5.2Zm0,12.167a1.914,1.914,0,0,0,1.912-1.912V3.5a1.912,1.912,0,0,0-3.824,0v6.952A1.914,1.914,0,0,0,11.5,12.367Z" transform="translate(-0.524 0)" fill="#fff"/>
    <path id="Path_2343" data-name="Path 2343" d="M10.979,18.412A6.786,6.786,0,0,1,4.2,11.633V9.9a.7.7,0,0,1,1.39,0v1.738a5.388,5.388,0,0,0,10.776,0V9.9a.7.7,0,0,1,1.39,0v1.738A6.786,6.786,0,0,1,10.979,18.412Z" transform="translate(0 -1.179)" fill="#fff"/>
    <path id="Line_1298" data-name="Line 1298" d="M-.1,4.067a.7.7,0,0,1-.7-.7V-.1A.7.7,0,0,1-.1-.8a.7.7,0,0,1,.7.7V3.371A.7.7,0,0,1-.1,4.067Z" transform="translate(11.083 16.643)" fill="#fff"/>
    <path id="Line_1299" data-name="Line 1299" d="M6.848.59H-.1A.7.7,0,0,1-.8-.1.7.7,0,0,1-.1-.8H6.848a.7.7,0,0,1,.7.7A.7.7,0,0,1,6.848.59Z" transform="translate(7.607 20.119)" fill="#fff"/>
  </g>
</svg>
