<svg id="Group_4247" data-name="Group 4247" xmlns="http://www.w3.org/2000/svg" xmlns:xlink="http://www.w3.org/1999/xlink" width="20.735" height="20.764" viewBox="0 0 20.735 20.764">
  <defs>
    <clipPath id="clip-path">
      <rect id="Rectangle_1647" data-name="Rectangle 1647" width="20.735" height="20.764" fill="#f76767"/>
    </clipPath>
  </defs>
  <g id="Group_4246" data-name="Group 4246" clip-path="url(#clip-path)">
    <path id="Path_2345" data-name="Path 2345" d="M11.425,12.148a1.9,1.9,0,0,1-.768.163,1.945,1.945,0,0,1-1.372-.566,1.921,1.921,0,0,1-.566-1.363v-.94L7.309,8.031v2.351a3.337,3.337,0,0,0,5.153,2.8Zm0,0a1.9,1.9,0,0,1-.768.163,1.945,1.945,0,0,1-1.372-.566,1.921,1.921,0,0,1-.566-1.363v-.94L7.309,8.031v2.351a3.337,3.337,0,0,0,5.153,2.8ZM10.658,0A3.378,3.378,0,0,0,8.537.748,3.427,3.427,0,0,0,7.376,2.677a.7.7,0,0,0,.518.844.713.713,0,0,0,.854-.528V2.955a1.959,1.959,0,0,1,1.9-1.554,1.949,1.949,0,0,1,1.938,1.938v4.7a.7.7,0,0,0,1.4,0H14V3.349A3.344,3.344,0,0,0,10.658,0m4.894,14.239a.913.913,0,0,0-.192-.144l.336.336a.912.912,0,0,0-.144-.192m1.257-6.323a.706.706,0,0,0-.7.71v1.756a5.327,5.327,0,0,1-.086.96.7.7,0,0,0,.566.816.59.59,0,0,0,.125.01.694.694,0,0,0,.692-.576,6.433,6.433,0,0,0,.1-1.209V8.626a.7.7,0,0,0-.7-.71" transform="translate(-0.296)" fill="#f76767"/>
    <path id="Path_2346" data-name="Path 2346" d="M14.723,20.388v.01a.7.7,0,0,1-.7.7H6.989a.705.705,0,1,1,0-1.411H9.8V17.6a6.9,6.9,0,0,1-6.16-6.889V8.96a.705.705,0,1,1,1.411,0v1.756A5.507,5.507,0,0,0,6.691,14.66a5.418,5.418,0,0,0,3.6,1.545.516.516,0,0,1,.211-.038.612.612,0,0,1,.23.038,5.333,5.333,0,0,0,3.128-1.142l1,1a6.8,6.8,0,0,1-3.646,1.526v2.1h2.811a.7.7,0,0,1,.7.7" transform="translate(-0.147 -0.334)" fill="#f76767"/>
    <path id="Path_2347" data-name="Path 2347" d="M20.533,20.554a.712.712,0,0,1-.5.211.68.68,0,0,1-.5-.211L14.71,15.728l-1-1L11.13,12.149l-2.7-2.706L7.013,8.032.182,1.2A.7.7,0,0,1,.23.212a.7.7,0,0,1,.949,0L8.213,7.255,12.7,11.736l2.7,2.7,5.133,5.133a.7.7,0,0,1,0,.988" transform="translate(0 -0.001)" fill="#f76767"/>
  </g>
</svg>
