<svg width="10" height="10" viewBox="0 0 10 10" fill="none" xmlns="http://www.w3.org/2000/svg">
<g clip-path="url(#clip0)">
<path d="M9.3276 8.88833L7.4907 7.0485C7.97442 6.47573 8.24061 5.7507 8.24243 5.001C8.24243 4.92343 8.21161 4.84903 8.15676 4.79417C8.1019 4.73932 8.0275 4.7085 7.94993 4.7085C7.87235 4.7085 7.79795 4.73932 7.7431 4.79417C7.68824 4.84903 7.65743 4.92343 7.65743 5.001C7.65431 5.59852 7.44801 6.1772 7.07243 6.64193L6.3207 5.8785C6.61297 5.55857 6.77655 5.14182 6.77993 4.7085V2.3685C6.77993 1.90305 6.59503 1.45666 6.2659 1.12753C5.93677 0.798403 5.49038 0.613501 5.02493 0.613501C4.55947 0.613501 4.11308 0.798403 3.78396 1.12753C3.45483 1.45666 3.26993 1.90305 3.26993 2.3685V2.83358L1.1376 0.698326C1.08252 0.643248 1.00782 0.612305 0.929927 0.612305C0.852034 0.612305 0.777331 0.643248 0.722252 0.698326C0.667173 0.753405 0.63623 0.828108 0.63623 0.906002C0.63623 0.983895 0.667173 1.0586 0.722252 1.11368L8.91225 9.30368C8.93945 9.33109 8.9718 9.35285 9.00744 9.3677C9.04308 9.38255 9.08132 9.3902 9.11993 9.3902C9.15854 9.3902 9.19677 9.38255 9.23242 9.3677C9.26806 9.35285 9.30041 9.33109 9.3276 9.30368C9.35502 9.27649 9.37678 9.24413 9.39163 9.20849C9.40648 9.17285 9.41412 9.13462 9.41412 9.096C9.41412 9.05739 9.40648 9.01916 9.39163 8.98351C9.37678 8.94787 9.35502 8.91552 9.3276 8.88833Z" fill="white"/>
<path d="M5.23854 6.46313L3.27002 4.48291V4.70814C3.27002 5.17359 3.45492 5.61998 3.78405 5.94911C4.11317 6.27823 4.55956 6.46313 5.02502 6.46313C5.09612 6.46759 5.16744 6.46759 5.23854 6.46313Z" fill="white"/>
<path d="M5.02515 7.63301C4.32696 7.63301 3.65738 7.35566 3.16369 6.86197C2.67 6.36828 2.39264 5.69869 2.39264 5.00051C2.39264 4.92293 2.36183 4.84853 2.30697 4.79368C2.25212 4.73882 2.17772 4.70801 2.10014 4.70801C2.02257 4.70801 1.94817 4.73882 1.89332 4.79368C1.83846 4.84853 1.80764 4.92293 1.80764 5.00051C1.80431 5.8055 2.10286 6.5825 2.64436 7.17815C3.18586 7.77381 3.93098 8.14483 4.73265 8.21801V9.09551C4.73265 9.17308 4.76346 9.24748 4.81832 9.30234C4.87317 9.35719 4.94757 9.38801 5.02515 9.38801C5.10272 9.38801 5.17712 9.35719 5.23197 9.30234C5.28683 9.24748 5.31765 9.17308 5.31765 9.09551V8.21801C5.76589 8.17609 6.20036 8.04057 6.59295 7.82021L6.16004 7.38731C5.80475 7.55266 5.41702 7.6366 5.02515 7.63301Z" fill="white"/>
</g>
<defs>
<clipPath id="clip0">
<rect width="9.36" height="9.36" fill="white" transform="translate(0.320312 0.320312)"/>
</clipPath>
</defs>
</svg>
