<svg xmlns="http://www.w3.org/2000/svg" width="23.745" height="19.012" viewBox="0 0 23.745 19.012">
  <path id="video-camera-slash" d="M21.293,23.132a.48.48,0,0,1-.481-.241l-2.006-2.166H3.644A1.438,1.438,0,0,1,2.2,19.281V8.051A1.438,1.438,0,0,1,3.644,6.607H5.97l-1.2-1.364a.628.628,0,0,1,0-.882.613.613,0,0,1,.4-.16.48.48,0,0,1,.481.241L21.694,22.089a.589.589,0,0,1,.16.481.693.693,0,0,1-.241.481.613.613,0,0,1-.4.16h0ZM3.484,19.442h14.2L7.174,7.89H3.484Zm21.82-.321c-.16,0-.241,0-.321-.08l-3.851-2.567v.321a.707.707,0,0,1-.642.722.69.69,0,0,1-.642-.642V7.89h-8.1a.69.69,0,0,1-.642-.642.69.69,0,0,1,.642-.642h7.942a1.438,1.438,0,0,1,1.444,1.444v2.808l3.851-2.567c.08,0,.241-.08.321-.08h.321a.537.537,0,0,1,.321.562V18.4a.69.69,0,0,1-.642.642h0Zm-4.171-6.739v2.487l3.53,2.326V9.976L21.132,12.3Z" transform="translate(-2.2 -4.2)" fill="#f76767"/>
</svg>
