<svg width="123" height="96" viewBox="0 0 123 96" fill="none" xmlns="http://www.w3.org/2000/svg">
<g clip-path="url(#clip0)">
<path d="M66.5999 0C55.7999 0 45.2999 3.7 36.7999 10.4H23.6999C21.9999 10.4 20.5999 11.8 20.5999 13.5C20.5999 15.2 21.9999 16.6 23.6999 16.6H32.3999C34.0999 16.6 35.4999 18 35.4999 19.7C35.4999 20.5 35.1999 21.3 34.5999 21.9C33.9999 22.5 33.1999 22.8 32.3999 22.8H14.4999C12.7999 22.8 11.3999 24.2 11.3999 25.9C11.3999 27.6 12.7999 29 14.4999 29H22.5999C20.0999 34.9 18.7999 41.3 18.7999 47.7C18.7999 50.1 18.9999 52.5 19.2999 54.8C19.3999 55.8 19.5999 56.7 19.7999 57.7C25.6999 56.8 31.8999 56.1 38.3999 55.5L38.8999 55.9L39.3999 55.4C47.1999 54.8 55.3999 54.5 63.8999 54.5C81.8999 54.5 98.6999 56 113.1 58.5C113.7 56.1 114 53.6 114.2 51.1C114.3 50 114.3 48.8 114.3 47.7C114.3 21.4 92.8999 0 66.5999 0Z" fill="#F6F6F6"/>
<path d="M5.1 22.7998H3.2C1.4 22.7998 0 24.1998 0 25.9998C0 27.7998 1.4 29.1998 3.2 29.1998H5.1C6.9 29.1998 8.3 27.7998 8.3 25.9998C8.3 24.1998 6.8 22.7998 5.1 22.7998Z" fill="#F6F6F6"/>
<path d="M112.7 85.6002C110.9 85.6002 109.5 84.2002 109.5 82.4002C109.5 80.6002 110.9 79.2002 112.7 79.2002C114.5 79.2002 115.9 80.6002 115.9 82.4002C115.9 84.1002 114.5 85.6002 112.7 85.6002Z" fill="#E8EAEF"/>
<path d="M122.9 70.5998C122.9 72.2998 121.5 73.6998 119.8 73.6998H99.9001C98.2001 73.6998 96.8 75.0998 96.8 76.7998C96.8 78.4998 98.2001 79.8998 99.9001 79.8998H103.6C105.3 79.8998 106.7 81.2998 106.7 82.9998C106.7 84.6998 105.3 86.0998 103.6 86.0998H95.1001C86.8 92.2998 76.8 95.5998 66.5 95.5998C44 95.5998 24.5 79.8998 19.8 57.8998C25.7 56.9998 31.9001 56.2998 38.4001 55.7998L38.9001 56.1998L39.4001 55.6998C47.2001 55.0998 55.4001 54.7998 63.9001 54.7998C81.9001 54.7998 98.7001 56.2998 113.1 58.7998C112.4 61.7998 111.4 64.6998 110.2 67.4998H120C121.5 67.4998 122.9 68.8998 122.9 70.5998Z" fill="#E8EAEF"/>
<path d="M42.9666 18.9668H83.5666V75.0335H42.9666V18.9668Z" fill="#10B4E3"/>
<path d="M78.7334 70.2002H80.6667V72.1335H78.7334V70.2002Z" fill="#2D75BB"/>
<path d="M74.8667 70.2002H76.8V72.1335H74.8667V70.2002Z" fill="#2D75BB"/>
<path d="M78.7334 49.8999L89.3667 39.2666L92.2667 42.1666L84.5334 49.8999H78.7334Z" fill="white"/>
<path d="M75.8333 53.7666L72.9333 56.6666L75.8333 59.5666L81.6333 53.7666H75.8333Z" fill="white"/>
<path d="M72.9334 56.6665L70.0334 61.4998L71.0001 62.4665L75.8334 59.5665L72.9334 56.6665Z" fill="#50B4F8"/>
<path d="M89.3599 39.2695L92.2597 36.3697L95.1595 39.2695L92.2597 42.1693L89.3599 39.2695Z" fill="#50B4F8"/>
<path d="M85.4999 43.1333L76.7999 45.0666L75.8333 49.9H78.7333L85.4999 43.1333Z" fill="#F9CC19"/>
<path d="M83.5667 53.7666H84.5333L87.4333 57.6333V58.5999C87.4333 59.1127 87.2296 59.6044 86.8671 59.967C86.5045 60.3296 86.0127 60.5333 85.5 60.5333C84.9872 60.5333 84.4955 60.3296 84.1329 59.967C83.7703 59.6044 83.5667 59.1127 83.5667 58.5999V53.7666Z" fill="#F9CC19"/>
<path d="M83.5666 53.7666V58.5999C83.5666 59.1127 83.3629 59.6044 83.0004 59.967C82.6378 60.3296 82.146 60.5333 81.6333 60.5333C81.1205 60.5333 80.6288 60.3296 80.2662 59.967C79.9036 59.6044 79.7 59.1127 79.7 58.5999V55.6999L81.6333 53.7666H83.5666Z" fill="#F9CC19"/>
<path d="M96.1332 50.8668L90.3332 44.1001L84.5332 49.9001H75.8332C75.3205 49.9001 74.8287 50.1038 74.4662 50.4664C74.1036 50.8289 73.8999 51.3207 73.8999 51.8334C73.8999 52.3462 74.1036 52.8379 74.4662 53.2005C74.8287 53.5631 75.3205 53.7668 75.8332 53.7668H84.5332L90.3332 61.5001H94.1999L99.0332 63.4334V50.8668H96.1332Z" fill="#F9CC19"/>
<path d="M63.2666 34.4335C66.4698 34.4335 69.0666 31.8367 69.0666 28.6335C69.0666 25.4302 66.4698 22.8335 63.2666 22.8335C60.0633 22.8335 57.4666 25.4302 57.4666 28.6335C57.4666 31.8367 60.0633 34.4335 63.2666 34.4335Z" fill="#F9CC19"/>
<path d="M50.7 37.3335H79.7V39.2668H50.7V37.3335Z" fill="#394D5C"/>
<path d="M46.8333 41.2002H64.2333V43.1335H46.8333V41.2002Z" fill="#394D5C"/>
<path d="M66.1665 41.2002H79.6998V43.1335H66.1665V41.2002Z" fill="#394D5C"/>
<path d="M46.8333 45.0669H54.5666V47.0002H46.8333V45.0669Z" fill="#394D5C"/>
<path d="M56.5 45.0669H73.9V47.0002H56.5V45.0669Z" fill="#394D5C"/>
<path d="M46.8333 48.9336H60.3666V50.8669H46.8333V48.9336Z" fill="#394D5C"/>
<path d="M62.2998 48.9336H70.9998V50.8669H62.2998V48.9336Z" fill="#394D5C"/>
<path d="M99.0333 49.9H96.578L91.648 44.1503L95.8482 39.9501C96.0294 39.7688 96.1312 39.523 96.1312 39.2667C96.1312 39.0103 96.0294 38.7645 95.8482 38.5832L92.9482 35.6832C92.7669 35.502 92.5211 35.4002 92.2647 35.4002C92.0084 35.4002 91.7626 35.502 91.5813 35.6832L85.0167 42.2498L84.5333 42.36V18H42V76H84.5333V61.3221C85.1732 61.56 85.8774 61.559 86.5167 61.3195C87.1559 61.0799 87.6873 60.6179 88.0133 60.0181L89.56 62.08C89.65 62.2001 89.7668 62.2975 89.901 62.3646C90.0353 62.4317 90.1833 62.4667 90.3333 62.4667H94.0144L98.6737 64.3314C98.8205 64.3902 98.9794 64.4121 99.1366 64.3952C99.2938 64.3783 99.4444 64.3231 99.5753 64.2345C99.7062 64.1459 99.8134 64.0265 99.8874 63.8868C99.9615 63.7471 100 63.5914 100 63.4333V50.8667C100 50.6103 99.8982 50.3644 99.7169 50.1831C99.5356 50.0018 99.2897 49.9 99.0333 49.9ZM92.2667 37.7335L93.7998 39.2667L92.2667 40.7998L90.7335 39.2667L92.2667 37.7335ZM89.3667 40.6335L90.8998 42.1667L84.1331 48.9333H81.0669L89.3667 40.6335ZM78.3331 48.9333H77.0127L77.6246 45.8738L82.4695 44.797L78.3331 48.9333ZM82.6 74.0667H43.9333V19.9333H82.6V42.7873L76.5902 44.1222C76.4073 44.163 76.2403 44.2561 76.1093 44.3902C75.9784 44.5242 75.8892 44.6934 75.8527 44.8772L75.0146 49.0658C74.4992 49.2138 74.0354 49.5031 73.6757 49.9008C73.316 50.2985 73.0747 50.7889 72.9789 51.3165C72.8832 51.8441 72.937 52.388 73.134 52.8868C73.3311 53.3855 73.6637 53.8192 74.0943 54.1388L72.2499 55.9832C72.1974 56.0417 72.149 56.1037 72.1049 56.1688L69.2049 61.0022C69.1197 61.1447 69.073 61.307 69.0692 61.473C69.0655 61.6391 69.1049 61.8032 69.1836 61.9495L68.3832 62.7499C68.3385 62.795 68.298 62.8442 68.2624 62.8968C68.0536 63.211 67.6418 63.7359 67.2348 63.7359C66.765 63.7359 66.2063 63.123 66.011 62.8301C65.9238 62.696 65.8047 62.5856 65.6643 62.5088C65.524 62.4321 65.3668 62.3913 65.2068 62.3903H65.2C65.0409 62.3903 64.8842 62.4295 64.7439 62.5046C64.6036 62.5796 64.484 62.6881 64.3957 62.8205C64.1831 63.1404 63.7626 63.6769 63.3411 63.6789C62.8771 63.6789 62.33 63.0989 62.1405 62.8205C62.0234 62.6435 61.8511 62.5103 61.6503 62.4415C61.4496 62.3728 61.2317 62.3725 61.0308 62.4406C60.2915 62.6717 59.5323 62.8335 58.763 62.9239C59.124 62.4812 59.4125 61.9839 59.6175 61.4507C59.8277 60.891 59.9053 60.2901 59.844 59.6953C59.7828 59.1005 59.5845 58.5281 59.2647 58.0229C58.9042 57.2777 58.327 56.6587 57.6088 56.2471C56.8905 55.8356 56.0647 55.6506 55.2395 55.7164C54.3124 55.8486 53.4392 56.2323 52.7149 56.8259C51.9906 57.4195 51.4428 58.2002 51.1311 59.0833C50.8603 59.7551 50.7935 60.4919 50.9391 61.2015C51.0847 61.911 51.4363 62.5619 51.9499 63.0728C52.4967 63.6155 53.1451 64.0452 53.8581 64.3372C52.4396 65.1175 50.9576 65.7762 49.4279 66.3063L50.0388 68.1429C52.3448 67.3654 54.5381 66.2869 56.5619 64.9355C58.0537 65.0039 59.5472 64.8448 60.9911 64.4638C61.2855 64.8029 61.6449 65.0795 62.048 65.2772C62.4512 65.475 62.8899 65.5899 63.3382 65.6151C64.0433 65.6048 64.7173 65.3234 65.2203 64.8292C65.764 65.3409 66.4735 65.6401 67.2194 65.6721H67.2358C67.767 65.6412 68.2818 65.4768 68.7326 65.1941C69.1834 64.9114 69.5556 64.5196 69.8149 64.0549L70.5573 63.3125C70.6928 63.3883 70.8448 63.4298 71 63.4333C71.1754 63.4333 71.3475 63.3855 71.4978 63.2951L76.3312 60.3951C76.3963 60.351 76.4583 60.3026 76.5168 60.2501L78.7333 58.0335V58.6C78.7333 59.3691 79.0389 60.1068 79.5827 60.6506C80.1266 61.1945 80.8642 61.5 81.6333 61.5C81.9634 61.4968 82.2904 61.4366 82.6 61.3221V74.0667ZM74.2741 59.3733L71.4021 61.0979L73.1267 58.2259L74.2741 59.3733ZM57.8021 60.7818C57.4062 61.6418 56.7903 62.3821 56.0167 62.9278C55.0093 62.82 54.063 62.3921 53.3168 61.7069C53.0664 61.4521 52.898 61.1283 52.833 60.7771C52.7681 60.4259 52.8096 60.0633 52.9523 59.7358C53.1431 59.1995 53.4727 58.7232 53.9074 58.3556C54.3421 57.988 54.8664 57.7421 55.427 57.643C55.4918 57.6372 55.5556 57.6333 55.6203 57.6333C56.0455 57.665 56.4542 57.8107 56.8036 58.055C57.153 58.2992 57.4301 58.6331 57.6059 59.0215C57.7778 59.2776 57.8855 59.5715 57.9196 59.8781C57.9538 60.1847 57.9135 60.4941 57.8021 60.7818ZM74.3002 56.6667L76.2335 54.7333H79.2998L75.8333 58.1998L74.3002 56.6667ZM82.6 58.6C82.6 58.8564 82.4982 59.1022 82.3169 59.2835C82.1356 59.4648 81.8897 59.5667 81.6333 59.5667C81.377 59.5667 81.1311 59.4648 80.9498 59.2835C80.7685 59.1022 80.6667 58.8564 80.6667 58.6V56.1002L82.0335 54.7333H82.6V58.6ZM86.4667 58.6C86.4667 58.8564 86.3648 59.1022 86.1835 59.2835C86.0023 59.4648 85.7564 59.5667 85.5 59.5667C85.2436 59.5667 84.9977 59.4648 84.8165 59.2835C84.6352 59.1022 84.5333 58.8564 84.5333 58.6V55.3781L86.4667 57.9552V58.6ZM98.0667 62.0056L94.5596 60.602C94.4451 60.5567 94.3231 60.5334 94.2 60.5333H90.8167L85.3067 53.1867C85.2166 53.0666 85.0999 52.9692 84.9656 52.9021C84.8314 52.8349 84.6834 52.8 84.5333 52.8H75.8333C75.577 52.8 75.3311 52.6982 75.1498 52.5169C74.9685 52.3356 74.8667 52.0897 74.8667 51.8333C74.8667 51.577 74.9685 51.3311 75.1498 51.1498C75.3311 50.9685 75.577 50.8667 75.8333 50.8667H84.5333C84.7897 50.8666 85.0355 50.7647 85.2168 50.5834L90.2782 45.522L95.4016 51.495C95.492 51.6007 95.6042 51.6857 95.7305 51.7441C95.8568 51.8025 95.9942 51.8329 96.1333 51.8333H98.0667V62.0056Z" fill="black"/>
<path d="M92.0733 50.2866L90.5266 51.4466L93.4266 55.3133C93.5167 55.4333 93.6334 55.5308 93.7676 55.5979C93.9019 55.665 94.0499 55.7 94.1999 55.7H96.1333V53.7666H94.6833L92.0733 50.2866Z" fill="black"/>
<path d="M78.7334 70.2002H80.6667V72.1335H78.7334V70.2002Z" fill="black"/>
<path d="M74.8667 70.2002H76.8V72.1335H74.8667V70.2002Z" fill="black"/>
<path d="M63.2667 35.4C64.605 35.4 65.9133 35.0032 67.026 34.2596C68.1388 33.5161 69.0061 32.4593 69.5183 31.2229C70.0304 29.9864 70.1644 28.6259 69.9033 27.3133C69.6422 26.0007 68.9978 24.7949 68.0514 23.8486C67.1051 22.9023 65.8994 22.2578 64.5868 21.9967C63.2742 21.7356 61.9136 21.8696 60.6772 22.3818C59.4407 22.8939 58.3839 23.7612 57.6404 24.874C56.8969 25.9868 56.5 27.295 56.5 28.6334C56.502 30.4274 57.2156 32.1473 58.4842 33.4159C59.7527 34.6844 61.4727 35.398 63.2667 35.4ZM63.2667 23.8C64.2226 23.8 65.1571 24.0835 65.9519 24.6146C66.7468 25.1457 67.3663 25.9006 67.7321 26.7837C68.0979 27.6669 68.1936 28.6387 68.0071 29.5763C67.8206 30.5139 67.3603 31.3751 66.6843 32.0511C66.0084 32.727 65.1472 33.1873 64.2096 33.3738C63.272 33.5603 62.3002 33.4646 61.417 33.0988C60.5339 32.733 59.779 32.1135 59.2479 31.3186C58.7168 30.5238 58.4333 29.5893 58.4333 28.6334C58.4349 27.352 58.9446 26.1235 59.8507 25.2174C60.7568 24.3113 61.9853 23.8016 63.2667 23.8Z" fill="black"/>
<path d="M50.7 37.3335H79.7V39.2668H50.7V37.3335Z" fill="black"/>
<path d="M46.8333 41.2002H64.2333V43.1335H46.8333V41.2002Z" fill="black"/>
<path d="M66.1667 41.2002H79.7001V43.1335H66.1667V41.2002Z" fill="black"/>
<path d="M46.8333 45.0669H54.5666V47.0002H46.8333V45.0669Z" fill="black"/>
<path d="M56.5 45.0669H73.9V47.0002H56.5V45.0669Z" fill="black"/>
<path d="M46.8333 48.9331H60.3666V50.8664H46.8333V48.9331Z" fill="black"/>
<path d="M62.3 48.9331H71V50.8664H62.3V48.9331Z" fill="black"/>
<path d="M30.5 57.2003V56.3003H29.9V57.2003H29V57.8003H29.9V58.7003H30.5V57.8003H31.4V57.2003H30.5Z" fill="#67DD5A"/>
<path d="M58.2 50.7V50H57.7V50.7H57V51.2H57.7V51.9H58.2V51.2H58.9V50.7H58.2Z" fill="white"/>
<path d="M89.2999 12.4002L88.9999 11.7002L88.5999 12.0002L88.8999 12.7002L88.3999 13.0002L88.5999 13.3002L89.1999 13.0002L89.4999 13.6002L89.7999 13.4002L89.4999 12.8002L90.1999 12.5002L89.9999 12.1002L89.2999 12.4002Z" fill="#AFAFAF"/>
<path d="M103.3 74.8002L103 74.2002L102.5 74.4002L102.8 75.0002L102.2 75.3002L102.4 75.8002L103 75.5002L103.3 76.1002L103.8 75.9002L103.5 75.3002L104.1 75.0002L103.9 74.5002L103.3 74.8002Z" fill="#67DD5A"/>
<path d="M109.5 47.3001C109.2 47.2001 109 46.8001 109.2 46.5001C109.2 46.5001 109.2 46.5001 109.2 46.4001C109.2 46.2001 109.1 46.1001 108.9 46.1001C108.8 46.1001 108.7 46.1001 108.6 46.2001C108.6 46.2001 108.6 46.2001 108.6 46.3001C108.5 46.6001 108.1 46.8001 107.8 46.6001C107.8 46.6001 107.8 46.6001 107.7 46.6001C107.5 46.6001 107.4 46.7001 107.4 46.9001C107.4 47.0001 107.4 47.1001 107.5 47.2001C107.5 47.2001 107.5 47.2001 107.6 47.2001C107.9 47.3001 108.1 47.7001 107.9 48.0001C107.9 48.0001 107.9 48.0001 107.9 48.1001C107.9 48.3001 108 48.4001 108.2 48.4001C108.3 48.4001 108.4 48.4001 108.5 48.3001C108.5 48.3001 108.5 48.3001 108.5 48.2001C108.6 47.9001 109 47.7001 109.3 47.9001C109.3 47.9001 109.3 47.9001 109.4 47.9001C109.6 47.9001 109.7 47.8001 109.7 47.6001C109.6 47.5001 109.6 47.4001 109.5 47.3001Z" fill="#67DD5A"/>
<path d="M41.0001 26.9001C40.8001 26.8001 40.7001 26.6001 40.8001 26.3001C40.8001 26.2001 40.7001 26.1001 40.6001 26.1001C40.5001 26.1001 40.5001 26.1001 40.4001 26.2001C40.3001 26.4001 40.1001 26.5001 39.8001 26.4001C39.7001 26.4001 39.6001 26.5001 39.6001 26.6001C39.6001 26.7001 39.6001 26.7001 39.7001 26.8001C39.9001 26.9001 40.0001 27.1001 39.9001 27.4001C39.9001 27.5001 40.0001 27.6001 40.1001 27.6001C40.2001 27.6001 40.2001 27.6001 40.3001 27.5001C40.4001 27.3001 40.6001 27.2001 40.9001 27.3001C41.0001 27.3001 41.1001 27.2001 41.1001 27.1001C41.2001 27.1001 41.1001 27.0001 41.0001 26.9001Z" fill="#AFAFAF"/>
<path d="M51.4 19.8003C51.2 19.7003 51.0999 19.5003 51.0999 19.1003C51.0999 19.1003 51.0999 19.1003 51.0999 19.0003C51.0999 18.9003 51 18.8003 50.9 18.8003C50.8 18.8003 50.7 18.8003 50.7 18.9003C50.6 19.1003 50.4 19.2003 50 19.2003C50 19.2003 50 19.2003 49.9 19.2003C49.8 19.2003 49.7 19.3003 49.7 19.4003C49.7 19.5003 49.6999 19.6003 49.7999 19.6003C50.0999 19.8003 50.2999 20.1003 50.2999 20.3003C50.2999 20.3003 50.2999 20.3003 50.2999 20.4003C50.2999 20.5003 50.4 20.6003 50.5 20.6003C50.6 20.6003 50.7 20.6003 50.7 20.5003C50.8 20.3003 51 20.2003 51.4 20.2003C51.4 20.2003 51.4 20.2003 51.5 20.2003C51.6 20.2003 51.7 20.1003 51.7 20.0003C51.6 20.0003 51.6 19.9003 51.4 19.8003Z" fill="white"/>
<path d="M38.7999 73.8C38.5999 73.7 38.4999 73.5 38.5999 73.2C38.5999 73.1 38.4999 73 38.3999 73C38.2999 73 38.2999 73 38.1999 73.1C38.0999 73.3 37.8999 73.4 37.5999 73.3C37.4999 73.3 37.3999 73.4 37.3999 73.5C37.3999 73.6 37.3999 73.6 37.4999 73.7C37.6999 73.8 37.7999 74 37.6999 74.3C37.6999 74.4 37.7999 74.5 37.8999 74.5C37.9999 74.5 37.9999 74.5 38.0999 74.4C38.1999 74.2 38.3999 74.1 38.6999 74.2C38.7999 74.2 38.8999 74.1 38.8999 74C39.0999 74 38.8999 73.9 38.7999 73.8C38.8999 73.9 38.8999 73.9 38.7999 73.8Z" fill="#67DD5A"/>
<path d="M34.9999 39.4002C34.8999 39.3002 34.7999 39.2002 34.7999 38.9002C34.7999 38.8002 34.6999 38.7002 34.6999 38.7002C34.5999 38.7002 34.5999 38.7002 34.5999 38.8002C34.4999 38.9002 34.3999 39.0002 34.0999 39.0002C33.9999 39.0002 33.8999 39.1002 33.8999 39.1002C33.8999 39.2002 33.8999 39.2002 33.9999 39.2002C33.9999 39.4002 34.0999 39.5002 34.0999 39.8002C34.0999 39.9002 34.0999 40.0002 34.1999 40.0002C34.2999 40.0002 34.2999 40.0002 34.2999 39.9002C34.3999 39.8002 34.4999 39.7002 34.7999 39.7002C34.8999 39.7002 34.9999 39.6002 34.9999 39.6002C35.1999 39.5002 34.9999 39.5002 34.9999 39.4002Z" fill="#67DD5A"/>
<path d="M48.6 45.6004C48.5 45.5004 48.4 45.4004 48.4 45.1004C48.4 45.0004 48.3 44.9004 48.3 44.9004C48.2 44.9004 48.2 44.9004 48.2 45.0004C48.1 45.1004 48 45.2004 47.7 45.2004C47.6 45.2004 47.5 45.3004 47.5 45.3004C47.5 45.4004 47.5 45.4004 47.6 45.4004C47.7 45.5004 47.8 45.6004 47.8 45.9004C47.8 46.0004 47.9 46.1004 47.9 46.1004C48 46.1004 48 46.1004 48 46.0004C48.1 45.9004 48.2 45.8004 48.5 45.8004C48.6 45.8004 48.7 45.7004 48.7 45.7004C48.7 45.7004 48.7 45.6004 48.6 45.6004Z" fill="white"/>
<path d="M89.3 33.3001C89.2 33.2001 89.1 33.1001 89.1 32.8001C89.1 32.7001 89 32.6001 89 32.6001C88.9 32.6001 88.9 32.6001 88.9 32.7001C88.8 32.8001 88.7 32.9001 88.4 32.9001C88.3 32.9001 88.2 33.0001 88.2 33.0001C88.2 33.1001 88.2 33.1001 88.3 33.1001C88.4 33.2001 88.5 33.3001 88.5 33.6001C88.5 33.7001 88.6 33.8001 88.6 33.8001C88.7 33.8001 88.7 33.8001 88.7 33.7001C88.8 33.6001 88.9 33.5001 89.2 33.5001C89.3 33.5001 89.4 33.4001 89.4 33.4001C89.4 33.4001 89.4 33.4001 89.3 33.3001Z" fill="white" stroke="white" stroke-width="0.2" stroke-miterlimit="10"/>
<path d="M104.4 30.3001C104.7 30.3001 105 30.0001 105 29.7001C105 29.4001 104.7 29.1001 104.4 29.1001C104.1 29.1001 103.8 29.4001 103.8 29.7001C103.9 30.1001 104.1 30.3001 104.4 30.3001Z" fill="#67DD5A"/>
<path d="M94.2001 47.0003C94.5001 47.0003 94.8001 46.7003 94.8001 46.4003C94.8001 46.1003 94.5001 45.8003 94.2001 45.8003C93.9001 45.8003 93.6001 46.1003 93.6001 46.4003C93.6001 46.7003 93.9001 47.0003 94.2001 47.0003Z" fill="white"/>
<path d="M41.2001 54.8001C41.5001 54.8001 41.8001 54.5001 41.8001 54.2001C41.8001 53.9001 41.5001 53.6001 41.2001 53.6001C40.9001 53.6001 40.6001 53.9001 40.6001 54.2001C40.6001 54.5001 40.9001 54.8001 41.2001 54.8001Z" fill="#AFAFAF"/>
<path d="M80.2001 19.8001C80.5001 19.8001 80.8001 19.5001 80.8001 19.2001C80.8001 18.9001 80.5001 18.6001 80.2001 18.6001C79.9001 18.6001 79.6001 18.9001 79.6001 19.2001C79.7001 19.5001 79.9001 19.8001 80.2001 19.8001Z" fill="white"/>
</g>
<defs>
<clipPath id="clip0">
<rect width="122.9" height="95.6" fill="white"/>
</clipPath>
</defs>
</svg>
