<svg width="123" height="96" viewBox="0 0 123 96" fill="none" xmlns="http://www.w3.org/2000/svg">
<path d="M66.6 0C55.8 0 45.3 3.7 36.8 10.4H23.7C22 10.4 20.6 11.8 20.6 13.5C20.6 15.2 22 16.6 23.7 16.6H32.4C34.1 16.6 35.5 18 35.5 19.7C35.5 20.5 35.2 21.3 34.6 21.9C34 22.5 33.2 22.8 32.4 22.8H14.5C12.8 22.8 11.4 24.2 11.4 25.9C11.4 27.6 12.8 29 14.5 29H22.6C20.1 34.9 18.8 41.3 18.8 47.7C18.8 50.1 19 52.5 19.3 54.8C19.4 55.8 19.6 56.7 19.8 57.7C25.7 56.8 31.9 56.1 38.4 55.5L38.9 55.9L39.4 55.4C47.2 54.8 55.4 54.5 63.9 54.5C81.9 54.5 98.7 56 113.1 58.5C113.7 56.1 114 53.6 114.2 51.1C114.3 50 114.3 48.8 114.3 47.7C114.3 21.4 92.9 0 66.6 0Z" fill="#F6F6F6"/>
<path d="M5.1 22.7998H3.2C1.4 22.7998 0 24.1998 0 25.9998C0 27.7998 1.4 29.1998 3.2 29.1998H5.1C6.9 29.1998 8.3 27.7998 8.3 25.9998C8.3 24.1998 6.8 22.7998 5.1 22.7998Z" fill="#F6F6F6"/>
<path d="M112.7 85.6002C110.9 85.6002 109.5 84.2002 109.5 82.4002C109.5 80.6002 110.9 79.2002 112.7 79.2002C114.5 79.2002 115.9 80.6002 115.9 82.4002C115.9 84.1002 114.5 85.6002 112.7 85.6002Z" fill="#E8EAEF"/>
<path d="M122.9 70.5998C122.9 72.2998 121.5 73.6998 119.8 73.6998H99.9001C98.2001 73.6998 96.8 75.0998 96.8 76.7998C96.8 78.4998 98.2001 79.8998 99.9001 79.8998H103.6C105.3 79.8998 106.7 81.2998 106.7 82.9998C106.7 84.6998 105.3 86.0998 103.6 86.0998H95.1001C86.8 92.2998 76.8 95.5998 66.5 95.5998C44 95.5998 24.5 79.8998 19.8 57.8998C25.7 56.9998 31.9001 56.2998 38.4001 55.7998L38.9001 56.1998L39.4001 55.6998C47.2001 55.0998 55.4001 54.7998 63.9001 54.7998C81.9001 54.7998 98.7001 56.2998 113.1 58.7998C112.4 61.7998 111.4 64.6998 110.2 67.4998H120C121.5 67.4998 122.9 68.8998 122.9 70.5998Z" fill="#E8EAEF"/>
<path d="M39.0547 40.127H90.9453V71.2356H39.0547V40.127Z" fill="#10B4E3"/>
<path d="M54.8854 54.8252L39.0547 69.2099V70.3334C39.0547 72.3282 40.6717 73.9452 42.6665 73.9452H87.3336C89.3283 73.9452 90.9453 72.3282 90.9453 70.3334V69.2099L75.1146 54.8252" fill="#10B4E3"/>
<path d="M87.3341 36.624H86.0042V45.4423L90.9454 41.3596V40.2353C90.9454 38.2409 89.3285 36.624 87.3341 36.624Z" fill="#10B4E3"/>
<path d="M42.6659 36.624C40.6715 36.624 39.0547 38.2409 39.0547 40.2353V41.3596L43.9959 45.4423V36.624H42.6659Z" fill="#10B4E3"/>
<path d="M86.0041 24.6623V45.4424L67.9858 60.3304H62.0141L43.9958 45.4424V24.6623C43.9958 23.2221 45.1633 22.0547 46.6035 22.0547H83.3964C84.8366 22.0547 86.0041 23.2221 86.0041 24.6623Z" fill="#F9CC19"/>
<path d="M65.6646 32.9453L67.5789 36.3837L71.4448 37.1393C71.9923 37.2463 72.2091 37.9123 71.829 38.3203L69.1461 41.201L69.6213 45.1064C69.6886 45.6594 69.1211 46.0711 68.6152 45.8363L65.0429 44.1782L61.4705 45.8363C60.9646 46.0711 60.3972 45.6594 60.4645 45.1064L60.9396 41.201L58.2567 38.3203C57.8767 37.9123 58.0934 37.2462 58.6409 37.1393L62.5069 36.3837L64.4211 32.9453C64.6922 32.4583 65.3934 32.4583 65.6646 32.9453Z" fill="white"/>
<path d="M70.1323 65.4404H59.9534C59.3709 65.4404 58.8987 64.9681 58.8987 64.3857C58.8987 63.8033 59.3709 63.3311 59.9534 63.3311H70.1323C70.7148 63.3311 71.187 63.8033 71.187 64.3857C71.187 64.9681 70.7148 65.4404 70.1323 65.4404Z" fill="black"/>
<path d="M73.2828 69.6367H56.8027C56.2202 69.6367 55.748 69.1644 55.748 68.582C55.748 67.9996 56.2202 67.5273 56.8027 67.5273H73.2828C73.8653 67.5273 74.3374 67.9996 74.3374 68.582C74.3374 69.1644 73.8653 69.6367 73.2828 69.6367Z" fill="black"/>
<path d="M65.0428 28.18C64.4603 28.18 63.9882 27.7077 63.9882 27.1253V26.0625C63.9882 25.4801 64.4603 25.0078 65.0428 25.0078C65.6254 25.0078 66.0975 25.4801 66.0975 26.0625V27.1253C66.0975 27.7078 65.6254 28.18 65.0428 28.18Z" fill="black"/>
<path d="M65.0427 53.475C64.4602 53.475 63.988 53.0027 63.988 52.4203V51.3574C63.988 50.775 64.4602 50.3027 65.0427 50.3027C65.6252 50.3027 66.0974 50.775 66.0974 51.3574V52.4203C66.0974 53.0028 65.6252 53.475 65.0427 53.475Z" fill="black"/>
<path d="M73.6101 31.7285C73.3401 31.7285 73.0703 31.6255 72.8643 31.4196C72.4525 31.0077 72.4525 30.3399 72.8643 29.9279L74.6516 28.1408C75.0634 27.7291 75.7313 27.7291 76.1431 28.1408C76.555 28.5526 76.555 29.2204 76.1431 29.6324L74.3559 31.4196C74.1499 31.6255 73.88 31.7285 73.6101 31.7285Z" fill="black"/>
<path d="M54.688 50.6504C54.418 50.6504 54.1482 50.5474 53.9422 50.3415C53.5303 49.9296 53.5303 49.2618 53.9422 48.8498L55.7295 47.0627C56.1413 46.6509 56.809 46.651 57.221 47.0627C57.6329 47.4745 57.6329 48.1424 57.221 48.5543L55.4337 50.3415C55.2278 50.5474 54.9579 50.6504 54.688 50.6504Z" fill="black"/>
<path d="M78.2218 40.2959H77.1589C76.5764 40.2959 76.1042 39.8236 76.1042 39.2412C76.1042 38.6588 76.5764 38.1865 77.1589 38.1865H78.2218C78.8044 38.1865 79.2765 38.6588 79.2765 39.2412C79.2765 39.8236 78.8044 40.2959 78.2218 40.2959Z" fill="black"/>
<path d="M52.9266 40.2959H51.8636C51.2811 40.2959 50.809 39.8236 50.809 39.2412C50.809 38.6588 51.2811 38.1865 51.8636 38.1865H52.9266C53.5091 38.1865 53.9812 38.6588 53.9812 39.2412C53.9812 39.8236 53.5091 40.2959 52.9266 40.2959Z" fill="black"/>
<path d="M56.4753 31.7286C56.2054 31.7286 55.9355 31.6255 55.7295 31.4197L53.9422 29.6325C53.5304 29.2206 53.5303 28.5528 53.9422 28.1408C54.3541 27.7291 55.0219 27.7291 55.4338 28.1408L57.221 29.928C57.6329 30.3399 57.633 31.0077 57.221 31.4197C57.0152 31.6255 56.7452 31.7286 56.4753 31.7286Z" fill="black"/>
<path d="M75.3974 50.6505C75.1275 50.6505 74.8576 50.5474 74.6516 50.3415L72.8644 48.5544C72.4525 48.1425 72.4524 47.4747 72.8644 47.0627C73.2762 46.651 73.944 46.651 74.3559 47.0627L76.1432 48.8499C76.555 49.2617 76.5551 49.9296 76.1432 50.3415C75.9373 50.5474 75.6674 50.6505 75.3974 50.6505Z" fill="black"/>
<path d="M61.171 46.9571C60.8036 46.9571 60.4387 46.8427 60.1317 46.6194C59.6138 46.243 59.3402 45.6144 59.4175 44.979L59.8332 41.5607L57.4847 39.0392C57.0482 38.5705 56.8998 37.9008 57.0977 37.2917C57.2955 36.6823 57.8094 36.2272 58.4386 36.1042L61.8236 35.4427L63.4995 32.4323C63.811 31.8729 64.4022 31.5254 65.0427 31.5254C65.6833 31.5254 66.2746 31.8728 66.5861 32.4323L68.262 35.4427L71.6471 36.1042C72.2763 36.2272 72.7902 36.6822 72.988 37.2918C73.1858 37.9009 73.0374 38.5705 72.6008 39.0392L70.2524 41.5607L70.6682 44.979C70.7455 45.6144 70.4719 46.2429 69.954 46.6196C69.4357 46.9963 68.7525 47.0628 68.1713 46.793L65.043 45.3411L61.9146 46.793C61.6776 46.9031 61.4237 46.9571 61.171 46.9571ZM65.0427 43.1237C65.1944 43.1237 65.346 43.1564 65.4868 43.2218L68.4995 44.6201L68.099 41.3285C68.0615 41.0196 68.1622 40.7099 68.3742 40.4823L70.6343 38.0557L67.3765 37.419C67.0714 37.3594 66.8084 37.1684 66.6573 36.8969L65.0427 33.9968L63.4282 36.8969C63.2771 37.1684 63.0139 37.3594 62.709 37.419L59.4512 38.0557L61.7113 40.4823C61.9233 40.7099 62.024 41.0197 61.9865 41.3285L61.5861 44.6201L64.5988 43.2218C64.7395 43.1563 64.8912 43.1237 65.0427 43.1237ZM64.7431 33.4583C64.7433 33.4587 64.7435 33.4592 64.7437 33.4595L64.7431 33.4583Z" fill="black"/>
<path d="M87.3341 35.5696H87.0588V24.6623C87.0588 22.6429 85.4159 21 83.3965 21H46.6035C44.5841 21 42.9412 22.6429 42.9412 24.6623V35.5696H42.6659C40.0931 35.5696 38 37.6626 38 40.2354V70.3336C38 72.9067 40.0933 75 42.6665 75H87.3336C89.9067 75 92 72.9067 92 70.3336V60.0525C92 59.4701 91.5278 58.9979 90.9453 58.9979C90.3628 58.9979 89.8906 59.4701 89.8906 60.0525V66.8266L76.5025 54.6614L89.8906 43.5992V50.5168C89.8906 51.0992 90.3628 51.5715 90.9453 51.5715C91.5278 51.5715 92 51.0992 92 50.5168V40.2354C92 37.6626 89.9069 35.5696 87.3341 35.5696ZM45.0506 24.6623C45.0506 23.806 45.7472 23.1094 46.6035 23.1094H83.3965C84.2528 23.1094 84.9494 23.806 84.9494 24.6623V44.9457L67.6065 59.2757H62.3934L45.0506 44.9457V24.6623ZM40.1094 43.5992L53.4975 54.6614L40.1094 66.8266V43.5992ZM40.1094 40.2354C40.1094 38.8258 41.2562 37.6789 42.6659 37.6789H42.9412V43.2029L40.1094 40.863V40.2354ZM89.8906 69.6767V70.3336C89.8906 71.7435 88.7435 72.8906 87.3335 72.8906H42.6665C41.2565 72.8906 40.1094 71.7435 40.1094 70.3336V69.6767L55.1403 56.0188L61.3423 61.1434C61.5313 61.2995 61.7689 61.385 62.0142 61.385H67.9858C68.231 61.385 68.4685 61.2995 68.6577 61.1434L74.8597 56.0188L89.8906 69.6767ZM87.0588 37.6789H87.3341C88.7438 37.6789 89.8906 38.8258 89.8906 40.2354V40.863L87.0588 43.2029V37.6789Z" fill="black"/>
<path d="M90.9453 56.3202C90.5043 56.3202 90.1019 56.0345 89.9534 55.6203C89.807 55.2121 89.9319 54.742 90.2631 54.4611C90.6084 54.1682 91.1172 54.1305 91.5019 54.3695C91.8704 54.5984 92.0647 55.0457 91.9789 55.4712C91.881 55.9578 91.443 56.3202 90.9453 56.3202Z" fill="black"/>
<path d="M30.5 57.1998V56.2998H29.9V57.1998H29V57.7998H29.9V58.6998H30.5V57.7998H31.4V57.1998H30.5Z" fill="#67DD5A"/>
<path d="M58.2 50.7V50H57.7V50.7H57V51.2H57.7V51.9H58.2V51.2H58.9V50.7H58.2Z" fill="white"/>
<path d="M89.3 12.4002L89 11.7002L88.6 12.0002L88.9 12.7002L88.4 13.0002L88.6 13.3002L89.2 13.0002L89.5 13.6002L89.8 13.4002L89.5 12.8002L90.2 12.5002L90 12.1002L89.3 12.4002Z" fill="#AFAFAF"/>
<path d="M103.3 74.8002L103 74.2002L102.5 74.4002L102.8 75.0002L102.2 75.3002L102.4 75.8002L103 75.5002L103.3 76.1002L103.8 75.9002L103.5 75.3002L104.1 75.0002L103.9 74.5002L103.3 74.8002Z" fill="#67DD5A"/>
<path d="M109.5 47.3006C109.2 47.2006 109 46.8006 109.2 46.5006C109.2 46.5006 109.2 46.5006 109.2 46.4006C109.2 46.2006 109.1 46.1006 108.9 46.1006C108.8 46.1006 108.7 46.1006 108.6 46.2006C108.6 46.2006 108.6 46.2006 108.6 46.3006C108.5 46.6006 108.1 46.8006 107.8 46.6006C107.8 46.6006 107.8 46.6006 107.7 46.6006C107.5 46.6006 107.4 46.7006 107.4 46.9006C107.4 47.0006 107.4 47.1006 107.5 47.2006C107.5 47.2006 107.5 47.2006 107.6 47.2006C107.9 47.3006 108.1 47.7006 107.9 48.0006C107.9 48.0006 107.9 48.0006 107.9 48.1006C107.9 48.3006 108 48.4006 108.2 48.4006C108.3 48.4006 108.4 48.4006 108.5 48.3006C108.5 48.3006 108.5 48.3006 108.5 48.2006C108.6 47.9006 109 47.7006 109.3 47.9006C109.3 47.9006 109.3 47.9006 109.4 47.9006C109.6 47.9006 109.7 47.8006 109.7 47.6006C109.6 47.5006 109.6 47.4006 109.5 47.3006Z" fill="#67DD5A"/>
<path d="M41 26.9006C40.8 26.8006 40.7 26.6006 40.8 26.3006C40.8 26.2006 40.7 26.1006 40.6 26.1006C40.5 26.1006 40.5 26.1006 40.4 26.2006C40.3 26.4006 40.1 26.5006 39.8 26.4006C39.7 26.4006 39.6 26.5006 39.6 26.6006C39.6 26.7006 39.6 26.7006 39.7 26.8006C39.9 26.9006 40 27.1006 39.9 27.4006C39.9 27.5006 40 27.6006 40.1 27.6006C40.2 27.6006 40.2 27.6006 40.3 27.5006C40.4 27.3006 40.6 27.2006 40.9 27.3006C41 27.3006 41.1 27.2006 41.1 27.1006C41.2 27.1006 41.1 27.0006 41 26.9006Z" fill="#AFAFAF"/>
<path d="M51.4 19.7998C51.2 19.6998 51.0999 19.4998 51.0999 19.0998C51.0999 19.0998 51.0999 19.0998 51.0999 18.9998C51.0999 18.8998 51 18.7998 50.9 18.7998C50.8 18.7998 50.7 18.7998 50.7 18.8998C50.6 19.0998 50.4 19.1998 50 19.1998C50 19.1998 50 19.1998 49.9 19.1998C49.8 19.1998 49.7 19.2998 49.7 19.3998C49.7 19.4998 49.6999 19.5998 49.7999 19.5998C50.0999 19.7998 50.2999 20.0998 50.2999 20.2998C50.2999 20.2998 50.2999 20.2998 50.2999 20.3998C50.2999 20.4998 50.4 20.5998 50.5 20.5998C50.6 20.5998 50.7 20.5998 50.7 20.4998C50.8 20.2998 51 20.1998 51.4 20.1998C51.4 20.1998 51.4 20.1998 51.5 20.1998C51.6 20.1998 51.7 20.0998 51.7 19.9998C51.6 19.9998 51.6 19.8998 51.4 19.7998Z" fill="white"/>
<path d="M38.8 73.8C38.6 73.7 38.5 73.5 38.6 73.2C38.6 73.1 38.5 73 38.4 73C38.3 73 38.3 73 38.2 73.1C38.1 73.3 37.9 73.4 37.6 73.3C37.5 73.3 37.4 73.4 37.4 73.5C37.4 73.6 37.4 73.6 37.5 73.7C37.7 73.8 37.8 74 37.7 74.3C37.7 74.4 37.8 74.5 37.9 74.5C38 74.5 38 74.5 38.1 74.4C38.2 74.2 38.4 74.1 38.7 74.2C38.8 74.2 38.9 74.1 38.9 74C39.1 74 38.9 73.9 38.8 73.8C38.9 73.9 38.9 73.9 38.8 73.8Z" fill="#67DD5A"/>
<path d="M35 39.4002C34.9 39.3002 34.8 39.2002 34.8 38.9002C34.8 38.8002 34.7 38.7002 34.7 38.7002C34.6 38.7002 34.6 38.7002 34.6 38.8002C34.5 38.9002 34.4 39.0002 34.1 39.0002C34 39.0002 33.9 39.1002 33.9 39.1002C33.9 39.2002 33.9 39.2002 34 39.2002C34 39.4002 34.1 39.5002 34.1 39.8002C34.1 39.9002 34.1 40.0002 34.2 40.0002C34.3 40.0002 34.3 40.0002 34.3 39.9002C34.4 39.8002 34.5 39.7002 34.8 39.7002C34.9 39.7002 35 39.6002 35 39.6002C35.2 39.5002 35 39.5002 35 39.4002Z" fill="#67DD5A"/>
<path d="M48.6 45.6004C48.5 45.5004 48.4 45.4004 48.4 45.1004C48.4 45.0004 48.3 44.9004 48.3 44.9004C48.2 44.9004 48.2 44.9004 48.2 45.0004C48.1 45.1004 48 45.2004 47.7 45.2004C47.6 45.2004 47.5 45.3004 47.5 45.3004C47.5 45.4004 47.5 45.4004 47.6 45.4004C47.7 45.5004 47.8 45.6004 47.8 45.9004C47.8 46.0004 47.9 46.1004 47.9 46.1004C48 46.1004 48 46.1004 48 46.0004C48.1 45.9004 48.2 45.8004 48.5 45.8004C48.6 45.8004 48.7 45.7004 48.7 45.7004C48.7 45.7004 48.7 45.6004 48.6 45.6004Z" fill="white"/>
<path d="M89.3 33.3006C89.2 33.2006 89.1 33.1006 89.1 32.8006C89.1 32.7006 89 32.6006 89 32.6006C88.9 32.6006 88.9 32.6006 88.9 32.7006C88.8 32.8006 88.7 32.9006 88.4 32.9006C88.3 32.9006 88.2 33.0006 88.2 33.0006C88.2 33.1006 88.2 33.1006 88.3 33.1006C88.4 33.2006 88.5 33.3006 88.5 33.6006C88.5 33.7006 88.6 33.8006 88.6 33.8006C88.7 33.8006 88.7 33.8006 88.7 33.7006C88.8 33.6006 88.9 33.5006 89.2 33.5006C89.3 33.5006 89.4 33.4006 89.4 33.4006C89.4 33.4006 89.4 33.4006 89.3 33.3006Z" fill="white" stroke="white" stroke-width="0.2" stroke-miterlimit="10"/>
<path d="M104.4 30.3006C104.7 30.3006 105 30.0006 105 29.7006C105 29.4006 104.7 29.1006 104.4 29.1006C104.1 29.1006 103.8 29.4006 103.8 29.7006C103.9 30.1006 104.1 30.3006 104.4 30.3006Z" fill="#67DD5A"/>
<path d="M94.2 46.9998C94.5 46.9998 94.8 46.6998 94.8 46.3998C94.8 46.0998 94.5 45.7998 94.2 45.7998C93.9 45.7998 93.6 46.0998 93.6 46.3998C93.6 46.6998 93.9 46.9998 94.2 46.9998Z" fill="white"/>
<path d="M41.2 54.8006C41.5 54.8006 41.8 54.5006 41.8 54.2006C41.8 53.9006 41.5 53.6006 41.2 53.6006C40.9 53.6006 40.6 53.9006 40.6 54.2006C40.6 54.5006 40.9 54.8006 41.2 54.8006Z" fill="#AFAFAF"/>
<path d="M80.2 19.8006C80.5 19.8006 80.8 19.5006 80.8 19.2006C80.8 18.9006 80.5 18.6006 80.2 18.6006C79.9 18.6006 79.6 18.9006 79.6 19.2006C79.7 19.5006 79.9 19.8006 80.2 19.8006Z" fill="white"/>
</svg>
