<svg width="71" height="68" viewBox="0 0 71 68" fill="none" xmlns="http://www.w3.org/2000/svg">
<path d="M37.6645 67.9144C56.0751 67.9144 70.9998 53.462 70.9998 35.634C70.9998 17.806 56.0751 3.35352 37.6645 3.35352C19.2539 3.35352 4.3291 17.806 4.3291 35.634C4.3291 53.462 19.2539 67.9144 37.6645 67.9144Z" fill="#EAEAEA"/>
<path d="M23.1607 33.7068H32.1563C32.539 33.7068 32.8483 33.4066 32.8483 33.0368C32.8483 32.6669 32.539 32.3667 32.1563 32.3667H23.1607C22.7781 32.3667 22.4688 32.6669 22.4688 33.0368C22.4688 33.4066 22.7781 33.7068 23.1607 33.7068Z" fill="black"/>
<path d="M41.1519 36.3867H23.1607C22.7781 36.3867 22.4688 36.6869 22.4688 37.0568C22.4688 37.4267 22.7781 37.7269 23.1607 37.7269H41.1519C41.5345 37.7269 41.8438 37.4267 41.8438 37.0568C41.8438 36.6869 41.5345 36.3867 41.1519 36.3867Z" fill="black"/>
<path d="M41.1519 40.4067H23.1607C22.7781 40.4067 22.4688 40.7069 22.4688 41.0768C22.4688 41.4467 22.7781 41.7469 23.1607 41.7469H41.1519C41.5345 41.7469 41.8438 41.4467 41.8438 41.0768C41.8438 40.7069 41.5345 40.4067 41.1519 40.4067Z" fill="black"/>
<path d="M53.6568 18.3413L30.0316 18.2944C27.7689 18.2944 25.9283 20.0768 25.9283 22.2679V25.7014L20.3441 25.7128C18.0814 25.7128 16.2407 27.4952 16.2407 29.6863V43.8522C16.2407 46.0434 18.0814 47.8251 20.3441 47.8251H24.5443V54.5258C24.5443 54.8025 24.7201 55.0511 24.9872 55.151C25.0682 55.1811 25.1526 55.1959 25.2363 55.1959C25.4273 55.1959 25.6148 55.1188 25.7484 54.9767L32.4632 47.8237L43.9679 47.7782C46.2306 47.7782 48.0712 45.9958 48.0712 43.8053V43.7296L51.711 47.6066C51.8445 47.7487 52.0321 47.8258 52.223 47.8258C52.3068 47.8258 52.3912 47.811 52.4721 47.7809C52.7392 47.681 52.915 47.4324 52.915 47.1557V40.455H53.6554C55.9181 40.455 57.7588 38.6726 57.7588 36.4821V22.3149C57.7588 20.1244 55.9188 18.342 53.6568 18.3413ZM46.6873 43.8047C46.6873 45.2567 45.4674 46.4374 43.9651 46.4374L32.1532 46.4843C31.9595 46.4849 31.774 46.5647 31.6439 46.7034L25.9283 52.7923V47.1543C25.9283 46.7845 25.619 46.4843 25.2363 46.4843H20.3441C18.8446 46.4843 17.6247 45.3029 17.6247 43.8516V29.6856C17.6247 28.2336 18.8446 27.0522 20.3455 27.0522L26.6202 27.0395C26.6209 27.0395 26.6209 27.0395 26.6216 27.0395L43.9679 27.0047C45.4674 27.0047 46.6873 28.186 46.6873 29.638V41.9948V43.8047ZM56.3748 36.4808C56.3748 37.9328 55.1549 39.1135 53.6554 39.1135H52.223C51.8404 39.1135 51.5311 39.4137 51.5311 39.7836V45.4215L48.0712 41.7362V29.6387C48.0712 27.4476 46.2306 25.6652 43.9665 25.6652L27.3122 25.698V22.2673C27.3122 20.8152 28.5321 19.6339 30.0303 19.6339L53.6547 19.6808C53.6554 19.6808 53.6554 19.6808 53.6561 19.6808C55.1556 19.6808 56.3755 20.8621 56.3755 22.3142V36.4808H56.3748Z" fill="black"/>
</svg>
