<svg width="123" height="96" viewBox="0 0 123 96" fill="none" xmlns="http://www.w3.org/2000/svg">
<g clip-path="url(#clip0)">
<path d="M66.6 0C55.8 0 45.3 3.7 36.8 10.4H23.7C22 10.4 20.6 11.8 20.6 13.5C20.6 15.2 22 16.6 23.7 16.6H32.4C34.1 16.6 35.5 18 35.5 19.7C35.5 20.5 35.2 21.3 34.6 21.9C34 22.5 33.2 22.8 32.4 22.8H14.5C12.8 22.8 11.4 24.2 11.4 25.9C11.4 27.6 12.8 29 14.5 29H22.6C20.1 34.9 18.8 41.3 18.8 47.7C18.8 50.1 19 52.5 19.3 54.8C19.4 55.8 19.6 56.7 19.8 57.7C25.7 56.8 31.9 56.1 38.4 55.5L38.9 55.9L39.4 55.4C47.2 54.8 55.4 54.5 63.9 54.5C81.9 54.5 98.7 56 113.1 58.5C113.7 56.1 114 53.6 114.2 51.1C114.3 50 114.3 48.8 114.3 47.7C114.3 21.4 92.9 0 66.6 0Z" fill="#F6F6F6"/>
<path d="M5.1 22.7998H3.2C1.4 22.7998 0 24.1998 0 25.9998C0 27.7998 1.4 29.1998 3.2 29.1998H5.1C6.9 29.1998 8.3 27.7998 8.3 25.9998C8.3 24.1998 6.8 22.7998 5.1 22.7998Z" fill="#F6F6F6"/>
<path d="M112.7 85.6002C110.9 85.6002 109.5 84.2002 109.5 82.4002C109.5 80.6002 110.9 79.2002 112.7 79.2002C114.5 79.2002 115.9 80.6002 115.9 82.4002C115.9 84.1002 114.5 85.6002 112.7 85.6002Z" fill="#E8EAEF"/>
<path d="M122.9 70.5998C122.9 72.2998 121.5 73.6998 119.8 73.6998H99.9C98.2 73.6998 96.8 75.0998 96.8 76.7998C96.8 78.4998 98.2 79.8998 99.9 79.8998H103.6C105.3 79.8998 106.7 81.2998 106.7 82.9998C106.7 84.6998 105.3 86.0998 103.6 86.0998H95.1C86.8 92.2998 76.8 95.5998 66.5 95.5998C44 95.5998 24.5 79.8998 19.8 57.8998C25.7 56.9998 31.9 56.2998 38.4 55.7998L38.9 56.1998L39.4 55.6998C47.2 55.0998 55.4 54.7998 63.9 54.7998C81.9 54.7998 98.7 56.2998 113.1 58.7998C112.4 61.7998 111.4 64.6998 110.2 67.4998H120C121.5 67.4998 122.9 68.8998 122.9 70.5998Z" fill="#E8EAEF"/>
<path d="M44.8819 31.1763H83.7054C84.4198 31.1763 84.9995 31.756 84.9995 32.4703V58.3527C84.9995 59.0671 84.4198 59.6468 83.7054 59.6468H44.8819C44.1676 59.6468 43.5878 59.0671 43.5878 58.3527V32.4705C43.5877 31.7561 44.1676 31.1763 44.8819 31.1763Z" fill="#27AAE1"/>
<path d="M91.4701 62.2353H90.176V32.4706C90.1722 28.8988 87.2772 26.0038 83.7055 26H44.8818C41.3101 26.0038 38.4151 28.8988 38.4113 32.4706V36.3529H40.9995V32.4706C40.9995 30.3262 42.7375 28.5882 44.8818 28.5882H83.7053C85.8497 28.5882 87.5877 30.3262 87.5877 32.4706V62.2353H40.9995V54.4705H38.4113V62.2353H37.1172C36.4028 62.2353 35.8231 62.815 35.8231 63.5293V67.4116C35.8231 68.8416 36.9814 69.9999 38.4114 69.9999H90.176C91.606 69.9999 92.7643 68.8416 92.7643 67.4116V63.5293C92.7642 62.815 92.1844 62.2353 91.4701 62.2353ZM38.4113 67.4118V64.8235H59.1171C59.1171 65.5379 59.6969 66.1176 60.4112 66.1176H68.176C68.8903 66.1176 69.47 65.5379 69.47 64.8235H90.1759V67.4118H38.4113Z" fill="black"/>
<path d="M43.5876 58.3526C43.5876 59.0669 44.1673 59.6467 44.8817 59.6467H83.7052C84.4195 59.6467 84.9993 59.0669 84.9993 58.3526V32.4703C84.9993 31.756 84.4195 31.1763 83.7052 31.1763H44.8818C44.1674 31.1763 43.5877 31.756 43.5877 32.4703V35.0586H46.176V33.7645H82.4112V57.0586H46.1759V55.7646H43.5876V58.3526Z" fill="black"/>
<rect x="45" y="39" width="23" height="13" fill="#F9CC19"/>
<path d="M68.176 53.1764C68.8904 53.1764 69.4701 52.5966 69.4701 51.8823V38.941C69.4649 38.9022 69.4572 38.8634 69.4468 38.8245C69.4468 38.7547 69.4403 38.6848 69.4287 38.6162C69.4196 38.5812 69.3964 38.5528 69.3848 38.5191C69.3641 38.4608 69.3381 38.4039 69.3097 38.3496C69.2657 38.2655 69.2126 38.1852 69.1505 38.1127C69.1142 38.0674 69.0741 38.0235 69.0314 37.9833C68.9525 37.916 68.8657 37.8578 68.7726 37.8113C68.7287 37.7841 68.6833 37.7595 68.6367 37.7388C68.4904 37.6806 68.3338 37.6483 68.176 37.647H44.8819C44.7215 37.6495 44.5636 37.6806 44.416 37.7415C44.3707 37.7622 44.328 37.7868 44.2866 37.8139C44.1935 37.8606 44.1068 37.9174 44.0278 37.9847C43.9851 38.0248 43.9463 38.0688 43.9087 38.1141C43.8467 38.1866 43.7935 38.2668 43.7496 38.351C43.7198 38.4053 43.6953 38.4622 43.6745 38.5205C43.6628 38.5541 43.6395 38.5826 43.6305 38.6176C43.6189 38.6862 43.6124 38.7561 43.6124 38.8259C43.602 38.8635 43.5942 38.9023 43.5878 38.9412V51.8823C43.5878 52.5966 44.1676 53.1764 44.8819 53.1764H68.176ZM46.176 50.5881V41.1411L55.9012 46.5441C56.292 46.7602 56.7657 46.7602 57.1566 46.5441L66.8818 41.1411V50.5881H46.176ZM63.182 40.2351L56.5289 43.9312L49.8758 40.2351H63.182Z" fill="black"/>
<path d="M42.2936 38.9414H39.7053V41.5297H42.2936V38.9414Z" fill="black"/>
<path d="M42.2936 44.1177H35.8231V46.7059H42.2936V44.1177Z" fill="black"/>
<path d="M42.2936 49.2939H33.2348V51.8822H42.2936V49.2939Z" fill="black"/>
<path d="M74.6466 44.1177H72.0583V46.7059H74.6466V44.1177Z" fill="black"/>
<path d="M30.5 57.2003V56.3003H29.9V57.2003H29V57.8003H29.9V58.7003H30.5V57.8003H31.4V57.2003H30.5Z" fill="#67DD5A"/>
<path d="M58.2 50.7V50H57.7V50.7H57V51.2H57.7V51.9H58.2V51.2H58.9V50.7H58.2Z" fill="white"/>
<path d="M89.3 12.4002L89 11.7002L88.6 12.0002L88.9 12.7002L88.4 13.0002L88.6 13.3002L89.2 13.0002L89.5 13.6002L89.8 13.4002L89.5 12.8002L90.2 12.5002L90 12.1002L89.3 12.4002Z" fill="#AFAFAF"/>
<path d="M103.3 74.8002L103 74.2002L102.5 74.4002L102.8 75.0002L102.2 75.3002L102.4 75.8002L103 75.5002L103.3 76.1002L103.8 75.9002L103.5 75.3002L104.1 75.0002L103.9 74.5002L103.3 74.8002Z" fill="#67DD5A"/>
<path d="M109.5 47.3001C109.2 47.2001 109 46.8001 109.2 46.5001C109.2 46.5001 109.2 46.5001 109.2 46.4001C109.2 46.2001 109.1 46.1001 108.9 46.1001C108.8 46.1001 108.7 46.1001 108.6 46.2001C108.6 46.2001 108.6 46.2001 108.6 46.3001C108.5 46.6001 108.1 46.8001 107.8 46.6001C107.8 46.6001 107.8 46.6001 107.7 46.6001C107.5 46.6001 107.4 46.7001 107.4 46.9001C107.4 47.0001 107.4 47.1001 107.5 47.2001C107.5 47.2001 107.5 47.2001 107.6 47.2001C107.9 47.3001 108.1 47.7001 107.9 48.0001C107.9 48.0001 107.9 48.0001 107.9 48.1001C107.9 48.3001 108 48.4001 108.2 48.4001C108.3 48.4001 108.4 48.4001 108.5 48.3001C108.5 48.3001 108.5 48.3001 108.5 48.2001C108.6 47.9001 109 47.7001 109.3 47.9001C109.3 47.9001 109.3 47.9001 109.4 47.9001C109.6 47.9001 109.7 47.8001 109.7 47.6001C109.6 47.5001 109.6 47.4001 109.5 47.3001Z" fill="#67DD5A"/>
<path d="M41 26.9001C40.8 26.8001 40.7 26.6001 40.8 26.3001C40.8 26.2001 40.7 26.1001 40.6 26.1001C40.5 26.1001 40.5 26.1001 40.4 26.2001C40.3 26.4001 40.1 26.5001 39.8 26.4001C39.7 26.4001 39.6 26.5001 39.6 26.6001C39.6 26.7001 39.6 26.7001 39.7 26.8001C39.9 26.9001 40 27.1001 39.9 27.4001C39.9 27.5001 40 27.6001 40.1 27.6001C40.2 27.6001 40.2 27.6001 40.3 27.5001C40.4 27.3001 40.6 27.2001 40.9 27.3001C41 27.3001 41.1 27.2001 41.1 27.1001C41.2 27.1001 41.1 27.0001 41 26.9001Z" fill="#AFAFAF"/>
<path d="M51.4 19.8003C51.2 19.7003 51.1 19.5003 51.1 19.1003C51.1 19.1003 51.1 19.1003 51.1 19.0003C51.1 18.9003 51 18.8003 50.9 18.8003C50.8 18.8003 50.7 18.8003 50.7 18.9003C50.6 19.1003 50.4 19.2003 50 19.2003C50 19.2003 50 19.2003 49.9 19.2003C49.8 19.2003 49.7 19.3003 49.7 19.4003C49.7 19.5003 49.7 19.6003 49.8 19.6003C50.1 19.8003 50.3 20.1003 50.3 20.3003C50.3 20.3003 50.3 20.3003 50.3 20.4003C50.3 20.5003 50.4 20.6003 50.5 20.6003C50.6 20.6003 50.7 20.6003 50.7 20.5003C50.8 20.3003 51 20.2003 51.4 20.2003C51.4 20.2003 51.4 20.2003 51.5 20.2003C51.6 20.2003 51.7 20.1003 51.7 20.0003C51.6 20.0003 51.6 19.9003 51.4 19.8003Z" fill="white"/>
<path d="M38.8 73.8C38.6 73.7 38.5 73.5 38.6 73.2C38.6 73.1 38.5 73 38.4 73C38.3 73 38.3 73 38.2 73.1C38.1 73.3 37.9 73.4 37.6 73.3C37.5 73.3 37.4 73.4 37.4 73.5C37.4 73.6 37.4 73.6 37.5 73.7C37.7 73.8 37.8 74 37.7 74.3C37.7 74.4 37.8 74.5 37.9 74.5C38 74.5 38 74.5 38.1 74.4C38.2 74.2 38.4 74.1 38.7 74.2C38.8 74.2 38.9 74.1 38.9 74C39.1 74 38.9 73.9 38.8 73.8C38.9 73.9 38.9 73.9 38.8 73.8Z" fill="#67DD5A"/>
<path d="M35 39.4002C34.9 39.3002 34.8 39.2002 34.8 38.9002C34.8 38.8002 34.7 38.7002 34.7 38.7002C34.6 38.7002 34.6 38.7002 34.6 38.8002C34.5 38.9002 34.4 39.0002 34.1 39.0002C34 39.0002 33.9 39.1002 33.9 39.1002C33.9 39.2002 33.9 39.2002 34 39.2002C34 39.4002 34.1 39.5002 34.1 39.8002C34.1 39.9002 34.1 40.0002 34.2 40.0002C34.3 40.0002 34.3 40.0002 34.3 39.9002C34.4 39.8002 34.5 39.7002 34.8 39.7002C34.9 39.7002 35 39.6002 35 39.6002C35.2 39.5002 35 39.5002 35 39.4002Z" fill="#67DD5A"/>
<path d="M48.6 45.6004C48.5 45.5004 48.4 45.4004 48.4 45.1004C48.4 45.0004 48.3 44.9004 48.3 44.9004C48.2 44.9004 48.2 44.9004 48.2 45.0004C48.1 45.1004 48 45.2004 47.7 45.2004C47.6 45.2004 47.5 45.3004 47.5 45.3004C47.5 45.4004 47.5 45.4004 47.6 45.4004C47.7 45.5004 47.8 45.6004 47.8 45.9004C47.8 46.0004 47.9 46.1004 47.9 46.1004C48 46.1004 48 46.1004 48 46.0004C48.1 45.9004 48.2 45.8004 48.5 45.8004C48.6 45.8004 48.7 45.7004 48.7 45.7004C48.7 45.7004 48.7 45.6004 48.6 45.6004Z" fill="white"/>
<path d="M89.3 33.3001C89.2 33.2001 89.1 33.1001 89.1 32.8001C89.1 32.7001 89 32.6001 89 32.6001C88.9 32.6001 88.9 32.6001 88.9 32.7001C88.8 32.8001 88.7 32.9001 88.4 32.9001C88.3 32.9001 88.2 33.0001 88.2 33.0001C88.2 33.1001 88.2 33.1001 88.3 33.1001C88.4 33.2001 88.5 33.3001 88.5 33.6001C88.5 33.7001 88.6 33.8001 88.6 33.8001C88.7 33.8001 88.7 33.8001 88.7 33.7001C88.8 33.6001 88.9 33.5001 89.2 33.5001C89.3 33.5001 89.4 33.4001 89.4 33.4001C89.4 33.4001 89.4 33.4001 89.3 33.3001Z" fill="white" stroke="white" stroke-width="0.2" stroke-miterlimit="10"/>
<path d="M104.4 30.3001C104.7 30.3001 105 30.0001 105 29.7001C105 29.4001 104.7 29.1001 104.4 29.1001C104.1 29.1001 103.8 29.4001 103.8 29.7001C103.9 30.1001 104.1 30.3001 104.4 30.3001Z" fill="#67DD5A"/>
<path d="M94.2 47.0003C94.5 47.0003 94.8 46.7003 94.8 46.4003C94.8 46.1003 94.5 45.8003 94.2 45.8003C93.9 45.8003 93.6 46.1003 93.6 46.4003C93.6 46.7003 93.9 47.0003 94.2 47.0003Z" fill="white"/>
<path d="M41.2 54.8001C41.5 54.8001 41.8 54.5001 41.8 54.2001C41.8 53.9001 41.5 53.6001 41.2 53.6001C40.9 53.6001 40.6 53.9001 40.6 54.2001C40.6 54.5001 40.9 54.8001 41.2 54.8001Z" fill="#AFAFAF"/>
<path d="M80.2 19.8001C80.5 19.8001 80.8 19.5001 80.8 19.2001C80.8 18.9001 80.5 18.6001 80.2 18.6001C79.9 18.6001 79.6 18.9001 79.6 19.2001C79.7 19.5001 79.9 19.8001 80.2 19.8001Z" fill="white"/>
</g>
<defs>
<clipPath id="clip0">
<rect width="122.9" height="95.6" fill="white"/>
</clipPath>
</defs>
</svg>
