<svg width="123" height="96" viewBox="0 0 123 96" fill="none" xmlns="http://www.w3.org/2000/svg">
<g clip-path="url(#clip0)">
<path d="M66.6 0C55.8 0 45.3 3.7 36.8 10.4H23.7C22 10.4 20.6 11.8 20.6 13.5C20.6 15.2 22 16.6 23.7 16.6H32.4C34.1 16.6 35.5 18 35.5 19.7C35.5 20.5 35.2 21.3 34.6 21.9C34 22.5 33.2 22.8 32.4 22.8H14.5C12.8 22.8 11.4 24.2 11.4 25.9C11.4 27.6 12.8 29 14.5 29H22.6C20.1 34.9 18.8 41.3 18.8 47.7C18.8 50.1 19 52.5 19.3 54.8C19.4 55.8 19.6 56.7 19.8 57.7C25.7 56.8 31.9 56.1 38.4 55.5L38.9 55.9L39.4 55.4C47.2 54.8 55.4 54.5 63.9 54.5C81.9 54.5 98.7 56 113.1 58.5C113.7 56.1 114 53.6 114.2 51.1C114.3 50 114.3 48.8 114.3 47.7C114.3 21.4 92.9 0 66.6 0Z" fill="#F6F6F6"/>
<path d="M5.1 22.7998H3.2C1.4 22.7998 0 24.1998 0 25.9998C0 27.7998 1.4 29.1998 3.2 29.1998H5.1C6.9 29.1998 8.3 27.7998 8.3 25.9998C8.3 24.1998 6.8 22.7998 5.1 22.7998Z" fill="#F6F6F6"/>
<path d="M112.7 85.6002C110.9 85.6002 109.5 84.2002 109.5 82.4002C109.5 80.6002 110.9 79.2002 112.7 79.2002C114.5 79.2002 115.9 80.6002 115.9 82.4002C115.9 84.1002 114.5 85.6002 112.7 85.6002Z" fill="#E8EAEF"/>
<path d="M122.9 70.5998C122.9 72.2998 121.5 73.6998 119.8 73.6998H99.9001C98.2001 73.6998 96.8 75.0998 96.8 76.7998C96.8 78.4998 98.2001 79.8998 99.9001 79.8998H103.6C105.3 79.8998 106.7 81.2998 106.7 82.9998C106.7 84.6998 105.3 86.0998 103.6 86.0998H95.1001C86.8 92.2998 76.8 95.5998 66.5 95.5998C44 95.5998 24.5 79.8998 19.8 57.8998C25.7 56.9998 31.9001 56.2998 38.4001 55.7998L38.9001 56.1998L39.4001 55.6998C47.2001 55.0998 55.4001 54.7998 63.9001 54.7998C81.9001 54.7998 98.7001 56.2998 113.1 58.7998C112.4 61.7998 111.4 64.6998 110.2 67.4998H120C121.5 67.4998 122.9 68.8998 122.9 70.5998Z" fill="#E8EAEF"/>
<path d="M86 32L41 33V62L70 62.5L77.5 70.5L80.5 69.5L81 62.5L86 61.5V32Z" fill="#10B4E3"/>
<ellipse cx="86" cy="32.5" rx="7" ry="7.5" fill="#F9CC19"/>
<path d="M80.3 61.6L79.7 68.2C79.7 68.5 79.6 68.8 79.4 69.1C79.2 69.4 78.9 69.5 78.6 69.6C78.3 69.7 78 69.7 77.7 69.6C77.4 69.5 77.1 69.3 76.9 69.1L70.8 61.6H43.6C43.2 61.6 42.8 61.4 42.5 61.1C42.2 60.8 42 60.4 42 60V42H40V60C40 61 40.4 61.9 41.1 62.5C41.8 63.2 42.7 63.6 43.6 63.6H69.8L75.3 70.3C75.6 70.7 76.1 71 76.5 71.3C77 71.5 77.5 71.6 78 71.6C78.4 71.6 78.7 71.6 79.1 71.4C79.8 71.2 80.4 70.8 80.8 70.2C81.3 69.6 81.5 69 81.6 68.3L82 63.5H83.5C84.5 63.5 85.4 63.1 86 62.4C86.7 61.7 87.1 60.8 87.1 59.9V44.9H85.1V59.9C85.1 60.3 84.9 60.7 84.6 61C84.3 61.3 83.9 61.5 83.5 61.5H80.3V61.6Z" fill="black"/>
<path d="M73.6 31.5H43.6C42.6 31.5 41.7 31.9 41.1 32.6C40.4 33.3 40 34.2 40 35.1V38H42V35.1C42 34.7 42.2 34.3 42.5 34C42.8 33.7 43.2 33.5 43.6 33.5H73.6V31.5Z" fill="black"/>
<path d="M76.6 40.5H52V42.5H76.6V40.5Z" fill="black"/>
<path d="M79.6 46.6001H47.5V48.6001H79.6V46.6001Z" fill="black"/>
<path d="M79.6 52.6001H77.6V54.6001H79.6V52.6001Z" fill="black"/>
<path d="M73.6 52.6001H47.5V54.6001H73.6V52.6001Z" fill="black"/>
<path d="M93.2 27.8001C92.3 26.4001 90.9 25.3001 89.4 24.7001C88.4 24.3001 87.3 24.1001 86.1 24.1001C85.5 24.1001 85 24.2001 84.4 24.3001C82.7 24.6001 81.2 25.4001 80 26.6001C78.8 27.8001 78 29.3001 77.7 31.0001C77.4 32.7001 77.5 34.4001 78.2 35.9001C78.8 37.5001 79.9 38.8001 81.3 39.7001C82.7 40.6001 84.3 41.1001 86 41.1001C88.3 41.1001 90.4 40.2001 92 38.6001C93.6 37.0001 94.5 34.8001 94.5 32.6001C94.7 30.8001 94.2 29.2001 93.2 27.8001ZM92.1 35.0001C91.6 36.2001 90.8 37.2001 89.7 37.9001C88.6 38.6001 87.4 39.0001 86.1 39.0001C84.4 39.0001 82.7 38.3001 81.5 37.1001C80.3 35.9001 79.6 34.2001 79.6 32.5001C79.6 31.2001 80 30.0001 80.7 28.9001C81.4 27.8001 82.4 27.0001 83.6 26.5001C84.8 26.0001 86.1 25.9001 87.4 26.1001C88.7 26.4001 89.8 27.0001 90.7 27.9001C91.6 28.8001 92.2 30.0001 92.5 31.2001C92.8 32.5001 92.6 33.8001 92.1 35.0001Z" fill="black"/>
<path d="M84.2001 31.4L85.1 30.4V36.5H87.1V28.5H84.2001L82.8 30L84.2001 31.4Z" fill="black"/>
<path d="M30.5 57.2003V56.3003H29.9V57.2003H29V57.8003H29.9V58.7003H30.5V57.8003H31.4V57.2003H30.5Z" fill="#67DD5A"/>
<path d="M58.2 50.7V50H57.7V50.7H57V51.2H57.7V51.9H58.2V51.2H58.9V50.7H58.2Z" fill="white"/>
<path d="M89.3 12.4002L89 11.7002L88.6 12.0002L88.9 12.7002L88.4 13.0002L88.6 13.3002L89.2 13.0002L89.5 13.6002L89.8 13.4002L89.5 12.8002L90.2 12.5002L90 12.1002L89.3 12.4002Z" fill="#AFAFAF"/>
<path d="M103.3 74.8002L103 74.2002L102.5 74.4002L102.8 75.0002L102.2 75.3002L102.4 75.8002L103 75.5002L103.3 76.1002L103.8 75.9002L103.5 75.3002L104.1 75.0002L103.9 74.5002L103.3 74.8002Z" fill="#67DD5A"/>
<path d="M109.5 47.3001C109.2 47.2001 109 46.8001 109.2 46.5001C109.2 46.5001 109.2 46.5001 109.2 46.4001C109.2 46.2001 109.1 46.1001 108.9 46.1001C108.8 46.1001 108.7 46.1001 108.6 46.2001C108.6 46.2001 108.6 46.2001 108.6 46.3001C108.5 46.6001 108.1 46.8001 107.8 46.6001C107.8 46.6001 107.8 46.6001 107.7 46.6001C107.5 46.6001 107.4 46.7001 107.4 46.9001C107.4 47.0001 107.4 47.1001 107.5 47.2001C107.5 47.2001 107.5 47.2001 107.6 47.2001C107.9 47.3001 108.1 47.7001 107.9 48.0001C107.9 48.0001 107.9 48.0001 107.9 48.1001C107.9 48.3001 108 48.4001 108.2 48.4001C108.3 48.4001 108.4 48.4001 108.5 48.3001C108.5 48.3001 108.5 48.3001 108.5 48.2001C108.6 47.9001 109 47.7001 109.3 47.9001C109.3 47.9001 109.3 47.9001 109.4 47.9001C109.6 47.9001 109.7 47.8001 109.7 47.6001C109.6 47.5001 109.6 47.4001 109.5 47.3001Z" fill="#67DD5A"/>
<path d="M41 26.9001C40.8 26.8001 40.7 26.6001 40.8 26.3001C40.8 26.2001 40.7 26.1001 40.6 26.1001C40.5 26.1001 40.5 26.1001 40.4 26.2001C40.3 26.4001 40.1 26.5001 39.8 26.4001C39.7 26.4001 39.6 26.5001 39.6 26.6001C39.6 26.7001 39.6 26.7001 39.7 26.8001C39.9 26.9001 40 27.1001 39.9 27.4001C39.9 27.5001 40 27.6001 40.1 27.6001C40.2 27.6001 40.2 27.6001 40.3 27.5001C40.4 27.3001 40.6 27.2001 40.9 27.3001C41 27.3001 41.1 27.2001 41.1 27.1001C41.2 27.1001 41.1 27.0001 41 26.9001Z" fill="#AFAFAF"/>
<path d="M51.4 19.8003C51.2 19.7003 51.0999 19.5003 51.0999 19.1003C51.0999 19.1003 51.0999 19.1003 51.0999 19.0003C51.0999 18.9003 51 18.8003 50.9 18.8003C50.8 18.8003 50.7 18.8003 50.7 18.9003C50.6 19.1003 50.4 19.2003 50 19.2003C50 19.2003 50 19.2003 49.9 19.2003C49.8 19.2003 49.7 19.3003 49.7 19.4003C49.7 19.5003 49.6999 19.6003 49.7999 19.6003C50.0999 19.8003 50.2999 20.1003 50.2999 20.3003C50.2999 20.3003 50.2999 20.3003 50.2999 20.4003C50.2999 20.5003 50.4 20.6003 50.5 20.6003C50.6 20.6003 50.7 20.6003 50.7 20.5003C50.8 20.3003 51 20.2003 51.4 20.2003C51.4 20.2003 51.4 20.2003 51.5 20.2003C51.6 20.2003 51.7 20.1003 51.7 20.0003C51.6 20.0003 51.6 19.9003 51.4 19.8003Z" fill="white"/>
<path d="M38.8 73.8C38.6 73.7 38.5 73.5 38.6 73.2C38.6 73.1 38.5 73 38.4 73C38.3 73 38.3 73 38.2 73.1C38.1 73.3 37.9 73.4 37.6 73.3C37.5 73.3 37.4 73.4 37.4 73.5C37.4 73.6 37.4 73.6 37.5 73.7C37.7 73.8 37.8 74 37.7 74.3C37.7 74.4 37.8 74.5 37.9 74.5C38 74.5 38 74.5 38.1 74.4C38.2 74.2 38.4 74.1 38.7 74.2C38.8 74.2 38.9 74.1 38.9 74C39.1 74 38.9 73.9 38.8 73.8C38.9 73.9 38.9 73.9 38.8 73.8Z" fill="#67DD5A"/>
<path d="M35 39.4002C34.9 39.3002 34.8 39.2002 34.8 38.9002C34.8 38.8002 34.7 38.7002 34.7 38.7002C34.6 38.7002 34.6 38.7002 34.6 38.8002C34.5 38.9002 34.4 39.0002 34.1 39.0002C34 39.0002 33.9 39.1002 33.9 39.1002C33.9 39.2002 33.9 39.2002 34 39.2002C34 39.4002 34.1 39.5002 34.1 39.8002C34.1 39.9002 34.1 40.0002 34.2 40.0002C34.3 40.0002 34.3 40.0002 34.3 39.9002C34.4 39.8002 34.5 39.7002 34.8 39.7002C34.9 39.7002 35 39.6002 35 39.6002C35.2 39.5002 35 39.5002 35 39.4002Z" fill="#67DD5A"/>
<path d="M48.6 45.6004C48.5 45.5004 48.4 45.4004 48.4 45.1004C48.4 45.0004 48.3 44.9004 48.3 44.9004C48.2 44.9004 48.2 44.9004 48.2 45.0004C48.1 45.1004 48 45.2004 47.7 45.2004C47.6 45.2004 47.5 45.3004 47.5 45.3004C47.5 45.4004 47.5 45.4004 47.6 45.4004C47.7 45.5004 47.8 45.6004 47.8 45.9004C47.8 46.0004 47.9 46.1004 47.9 46.1004C48 46.1004 48 46.1004 48 46.0004C48.1 45.9004 48.2 45.8004 48.5 45.8004C48.6 45.8004 48.7 45.7004 48.7 45.7004C48.7 45.7004 48.7 45.6004 48.6 45.6004Z" fill="white"/>
<path d="M89.3 33.3001C89.2 33.2001 89.1 33.1001 89.1 32.8001C89.1 32.7001 89 32.6001 89 32.6001C88.9 32.6001 88.9 32.6001 88.9 32.7001C88.8 32.8001 88.7 32.9001 88.4 32.9001C88.3 32.9001 88.2 33.0001 88.2 33.0001C88.2 33.1001 88.2 33.1001 88.3 33.1001C88.4 33.2001 88.5 33.3001 88.5 33.6001C88.5 33.7001 88.6 33.8001 88.6 33.8001C88.7 33.8001 88.7 33.8001 88.7 33.7001C88.8 33.6001 88.9 33.5001 89.2 33.5001C89.3 33.5001 89.4 33.4001 89.4 33.4001C89.4 33.4001 89.4 33.4001 89.3 33.3001Z" fill="white" stroke="white" stroke-width="0.2" stroke-miterlimit="10"/>
<path d="M104.4 30.3001C104.7 30.3001 105 30.0001 105 29.7001C105 29.4001 104.7 29.1001 104.4 29.1001C104.1 29.1001 103.8 29.4001 103.8 29.7001C103.9 30.1001 104.1 30.3001 104.4 30.3001Z" fill="#67DD5A"/>
<path d="M94.2 47.0003C94.5 47.0003 94.8 46.7003 94.8 46.4003C94.8 46.1003 94.5 45.8003 94.2 45.8003C93.9 45.8003 93.6 46.1003 93.6 46.4003C93.6 46.7003 93.9 47.0003 94.2 47.0003Z" fill="white"/>
<path d="M41.2 54.8001C41.5 54.8001 41.8 54.5001 41.8 54.2001C41.8 53.9001 41.5 53.6001 41.2 53.6001C40.9 53.6001 40.6 53.9001 40.6 54.2001C40.6 54.5001 40.9 54.8001 41.2 54.8001Z" fill="#AFAFAF"/>
<path d="M80.2 19.8001C80.5 19.8001 80.8 19.5001 80.8 19.2001C80.8 18.9001 80.5 18.6001 80.2 18.6001C79.9 18.6001 79.6 18.9001 79.6 19.2001C79.7 19.5001 79.9 19.8001 80.2 19.8001Z" fill="white"/>
</g>
<defs>
<clipPath id="clip0">
<rect width="122.9" height="95.6" fill="white"/>
</clipPath>
</defs>
</svg>
