<svg width="123" height="96" viewBox="0 0 123 96" fill="none" xmlns="http://www.w3.org/2000/svg">
<g clip-path="url(#clip0)">
<path d="M66.6004 0C55.8004 0 45.3004 3.7 36.8004 10.4H23.7004C22.0004 10.4 20.6004 11.8 20.6004 13.5C20.6004 15.2 22.0004 16.6 23.7004 16.6H32.4004C34.1004 16.6 35.5004 18 35.5004 19.7C35.5004 20.5 35.2004 21.3 34.6004 21.9C34.0004 22.5 33.2004 22.8 32.4004 22.8H14.5004C12.8004 22.8 11.4004 24.2 11.4004 25.9C11.4004 27.6 12.8004 29 14.5004 29H22.6004C20.1004 34.9 18.8004 41.3 18.8004 47.7C18.8004 50.1 19.0004 52.5 19.3004 54.8C19.4004 55.8 19.6004 56.7 19.8004 57.7C25.7004 56.8 31.9004 56.1 38.4004 55.5L38.9004 55.9L39.4004 55.4C47.2004 54.8 55.4004 54.5 63.9004 54.5C81.9004 54.5 98.7004 56 113.1 58.5C113.7 56.1 114 53.6 114.2 51.1C114.3 50 114.3 48.8 114.3 47.7C114.3 21.4 92.9004 0 66.6004 0Z" fill="#F6F6F6"/>
<path d="M5.1 22.7998H3.2C1.4 22.7998 0 24.1998 0 25.9998C0 27.7998 1.4 29.1998 3.2 29.1998H5.1C6.9 29.1998 8.3 27.7998 8.3 25.9998C8.3 24.1998 6.8 22.7998 5.1 22.7998Z" fill="#F6F6F6"/>
<path d="M112.7 85.6002C110.9 85.6002 109.5 84.2002 109.5 82.4002C109.5 80.6002 110.9 79.2002 112.7 79.2002C114.5 79.2002 115.9 80.6002 115.9 82.4002C115.9 84.1002 114.5 85.6002 112.7 85.6002Z" fill="#E8EAEF"/>
<path d="M122.9 70.5998C122.9 72.2998 121.5 73.6998 119.8 73.6998H99.8998C98.1998 73.6998 96.7998 75.0998 96.7998 76.7998C96.7998 78.4998 98.1998 79.8998 99.8998 79.8998H103.6C105.3 79.8998 106.7 81.2998 106.7 82.9998C106.7 84.6998 105.3 86.0998 103.6 86.0998H95.0998C86.7998 92.2998 76.7998 95.5998 66.4998 95.5998C43.9998 95.5998 24.4998 79.8998 19.7998 57.8998C25.6998 56.9998 31.8998 56.2998 38.3998 55.7998L38.8998 56.1998L39.3998 55.6998C47.1998 55.0998 55.3998 54.7998 63.8998 54.7998C81.8998 54.7998 98.6998 56.2998 113.1 58.7998C112.4 61.7998 111.4 64.6998 110.2 67.4998H120C121.5 67.4998 122.9 68.8998 122.9 70.5998Z" fill="#E8EAEF"/>
<path d="M60.0168 45.4989C66.1082 45.4989 71.0462 40.5608 71.0462 34.4694C71.0462 28.378 66.1082 23.4399 60.0168 23.4399C53.9254 23.4399 48.9873 28.378 48.9873 34.4694C48.9873 40.5608 53.9254 45.4989 60.0168 45.4989Z" fill="#10B4E3"/>
<path d="M60.0164 46.8042C53.229 46.8042 47.6816 41.2569 47.6816 34.4695C47.6816 27.6821 53.229 22.1348 60.0164 22.1348C66.8037 22.1348 72.3511 27.6821 72.3511 34.4695C72.3511 41.2569 66.8037 46.8042 60.0164 46.8042ZM60.0164 24.7453C54.6648 24.7453 50.2922 29.1179 50.2922 34.4695C50.2922 39.8211 54.5995 44.1937 60.0164 44.1937C65.4332 44.1937 69.7406 39.8211 69.7406 34.4695C69.7406 29.1179 65.3679 24.7453 60.0164 24.7453Z" fill="#222222"/>
<path d="M60.0172 45.499C47.4867 45.499 37.3057 56.7243 37.3057 70.56H82.7288C82.7288 56.7243 72.5477 45.499 60.0172 45.499Z" fill="white"/>
<path d="M83.9684 71.8654H36V70.5601C36 56.0065 46.7684 44.1938 60.0168 44.1938C73.2652 44.1938 83.9684 56.0717 83.9684 70.5601V71.8654ZM38.6105 69.2549H81.3578C80.7705 56.7896 71.4379 46.8044 60.0168 46.8044C48.5958 46.8044 39.1979 56.7896 38.6105 69.2549Z" fill="#222222"/>
<path d="M41.5469 66.644C43.1785 56.8545 50.8142 49.4146 60.0163 49.4146C69.2184 49.4146 76.7889 56.8545 78.4205 66.644H41.5469Z" fill="#F9CC19"/>
<path d="M85.5999 47.0653H85.3389C79.2041 47.0653 74.2441 42.1053 74.2441 35.9705V35.9053C74.2441 29.7705 79.2041 24.8105 85.3389 24.8105H85.5999C91.7346 24.8105 96.6946 29.7705 96.6946 35.9053V35.9705C96.6946 42.1053 91.7346 47.0653 85.5999 47.0653Z" fill="white"/>
<path d="M85.73 48.3706H85.2079C78.4206 48.3706 72.9385 42.8885 72.9385 36.1011V35.7748C72.9385 28.9875 78.4206 23.5054 85.2079 23.5054H85.73C92.5174 23.5054 97.9995 28.9875 97.9995 35.7748V36.1011C97.9995 42.8885 92.5174 48.3706 85.73 48.3706ZM85.2079 26.1159C79.8564 26.1159 75.549 30.4885 75.549 35.7748V36.1011C75.549 41.4527 79.9216 45.7601 85.2079 45.7601H85.73C91.0816 45.7601 95.389 41.3875 95.389 36.1011V35.7748C95.389 30.4233 91.0164 26.1159 85.73 26.1159H85.2079Z" fill="#222222"/>
<path d="M84.1641 29.3135H86.7746V42.5619H84.1641V29.3135Z" fill="#292D34"/>
<path d="M78.8779 34.6655H92.1263V37.276H78.8779V34.6655Z" fill="#292D34"/>
<path d="M30.5 57.2003V56.3003H29.9V57.2003H29V57.8003H29.9V58.7003H30.5V57.8003H31.4V57.2003H30.5Z" fill="#67DD5A"/>
<path d="M58.2 50.7V50H57.7V50.7H57V51.2H57.7V51.9H58.2V51.2H58.9V50.7H58.2Z" fill="white"/>
<path d="M89.3004 12.4002L89.0004 11.7002L88.6004 12.0002L88.9004 12.7002L88.4004 13.0002L88.6004 13.3002L89.2004 13.0002L89.5004 13.6002L89.8004 13.4002L89.5004 12.8002L90.2004 12.5002L90.0004 12.1002L89.3004 12.4002Z" fill="#AFAFAF"/>
<path d="M103.3 74.8002L103 74.2002L102.5 74.4002L102.8 75.0002L102.2 75.3002L102.4 75.8002L103 75.5002L103.3 76.1002L103.8 75.9002L103.5 75.3002L104.1 75.0002L103.9 74.5002L103.3 74.8002Z" fill="#67DD5A"/>
<path d="M109.5 47.3001C109.2 47.2001 109 46.8001 109.2 46.5001C109.2 46.5001 109.2 46.5001 109.2 46.4001C109.2 46.2001 109.1 46.1001 108.9 46.1001C108.8 46.1001 108.7 46.1001 108.6 46.2001C108.6 46.2001 108.6 46.2001 108.6 46.3001C108.5 46.6001 108.1 46.8001 107.8 46.6001C107.8 46.6001 107.8 46.6001 107.7 46.6001C107.5 46.6001 107.4 46.7001 107.4 46.9001C107.4 47.0001 107.4 47.1001 107.5 47.2001C107.5 47.2001 107.5 47.2001 107.6 47.2001C107.9 47.3001 108.1 47.7001 107.9 48.0001C107.9 48.0001 107.9 48.0001 107.9 48.1001C107.9 48.3001 108 48.4001 108.2 48.4001C108.3 48.4001 108.4 48.4001 108.5 48.3001C108.5 48.3001 108.5 48.3001 108.5 48.2001C108.6 47.9001 109 47.7001 109.3 47.9001C109.3 47.9001 109.3 47.9001 109.4 47.9001C109.6 47.9001 109.7 47.8001 109.7 47.6001C109.6 47.5001 109.6 47.4001 109.5 47.3001Z" fill="#67DD5A"/>
<path d="M40.9996 26.9001C40.7996 26.8001 40.6996 26.6001 40.7996 26.3001C40.7996 26.2001 40.6996 26.1001 40.5996 26.1001C40.4996 26.1001 40.4996 26.1001 40.3996 26.2001C40.2996 26.4001 40.0996 26.5001 39.7996 26.4001C39.6996 26.4001 39.5996 26.5001 39.5996 26.6001C39.5996 26.7001 39.5996 26.7001 39.6996 26.8001C39.8996 26.9001 39.9996 27.1001 39.8996 27.4001C39.8996 27.5001 39.9996 27.6001 40.0996 27.6001C40.1996 27.6001 40.1996 27.6001 40.2996 27.5001C40.3996 27.3001 40.5996 27.2001 40.8996 27.3001C40.9996 27.3001 41.0996 27.2001 41.0996 27.1001C41.1996 27.1001 41.0996 27.0001 40.9996 26.9001Z" fill="#AFAFAF"/>
<path d="M51.4002 19.8003C51.2002 19.7003 51.1002 19.5003 51.1002 19.1003C51.1002 19.1003 51.1002 19.1003 51.1002 19.0003C51.1002 18.9003 51.0002 18.8003 50.9002 18.8003C50.8002 18.8003 50.7002 18.8003 50.7002 18.9003C50.6002 19.1003 50.4002 19.2003 50.0002 19.2003C50.0002 19.2003 50.0002 19.2003 49.9002 19.2003C49.8002 19.2003 49.7002 19.3003 49.7002 19.4003C49.7002 19.5003 49.7002 19.6003 49.8002 19.6003C50.1002 19.8003 50.3002 20.1003 50.3002 20.3003C50.3002 20.3003 50.3002 20.3003 50.3002 20.4003C50.3002 20.5003 50.4002 20.6003 50.5002 20.6003C50.6002 20.6003 50.7002 20.6003 50.7002 20.5003C50.8002 20.3003 51.0002 20.2003 51.4002 20.2003C51.4002 20.2003 51.4002 20.2003 51.5002 20.2003C51.6002 20.2003 51.7002 20.1003 51.7002 20.0003C51.6002 20.0003 51.6002 19.9003 51.4002 19.8003Z" fill="white"/>
<path d="M38.8004 73.8C38.6004 73.7 38.5004 73.5 38.6004 73.2C38.6004 73.1 38.5004 73 38.4004 73C38.3004 73 38.3004 73 38.2004 73.1C38.1004 73.3 37.9004 73.4 37.6004 73.3C37.5004 73.3 37.4004 73.4 37.4004 73.5C37.4004 73.6 37.4004 73.6 37.5004 73.7C37.7004 73.8 37.8004 74 37.7004 74.3C37.7004 74.4 37.8004 74.5 37.9004 74.5C38.0004 74.5 38.0004 74.5 38.1004 74.4C38.2004 74.2 38.4004 74.1 38.7004 74.2C38.8004 74.2 38.9004 74.1 38.9004 74C39.1004 74 38.9004 73.9 38.8004 73.8C38.9004 73.9 38.9004 73.9 38.8004 73.8Z" fill="#67DD5A"/>
<path d="M35.0004 39.4002C34.9004 39.3002 34.8004 39.2002 34.8004 38.9002C34.8004 38.8002 34.7004 38.7002 34.7004 38.7002C34.6004 38.7002 34.6004 38.7002 34.6004 38.8002C34.5004 38.9002 34.4004 39.0002 34.1004 39.0002C34.0004 39.0002 33.9004 39.1002 33.9004 39.1002C33.9004 39.2002 33.9004 39.2002 34.0004 39.2002C34.0004 39.4002 34.1004 39.5002 34.1004 39.8002C34.1004 39.9002 34.1004 40.0002 34.2004 40.0002C34.3004 40.0002 34.3004 40.0002 34.3004 39.9002C34.4004 39.8002 34.5004 39.7002 34.8004 39.7002C34.9004 39.7002 35.0004 39.6002 35.0004 39.6002C35.2004 39.5002 35.0004 39.5002 35.0004 39.4002Z" fill="#67DD5A"/>
<path d="M48.6 45.6004C48.5 45.5004 48.4 45.4004 48.4 45.1004C48.4 45.0004 48.3 44.9004 48.3 44.9004C48.2 44.9004 48.2 44.9004 48.2 45.0004C48.1 45.1004 48 45.2004 47.7 45.2004C47.6 45.2004 47.5 45.3004 47.5 45.3004C47.5 45.4004 47.5 45.4004 47.6 45.4004C47.7 45.5004 47.8 45.6004 47.8 45.9004C47.8 46.0004 47.9 46.1004 47.9 46.1004C48 46.1004 48 46.1004 48 46.0004C48.1 45.9004 48.2 45.8004 48.5 45.8004C48.6 45.8004 48.7 45.7004 48.7 45.7004C48.7 45.7004 48.7 45.6004 48.6 45.6004Z" fill="white"/>
<path d="M89.3002 33.3001C89.2002 33.2001 89.1002 33.1001 89.1002 32.8001C89.1002 32.7001 89.0002 32.6001 89.0002 32.6001C88.9002 32.6001 88.9002 32.6001 88.9002 32.7001C88.8002 32.8001 88.7002 32.9001 88.4002 32.9001C88.3002 32.9001 88.2002 33.0001 88.2002 33.0001C88.2002 33.1001 88.2002 33.1001 88.3002 33.1001C88.4002 33.2001 88.5002 33.3001 88.5002 33.6001C88.5002 33.7001 88.6002 33.8001 88.6002 33.8001C88.7002 33.8001 88.7002 33.8001 88.7002 33.7001C88.8002 33.6001 88.9002 33.5001 89.2002 33.5001C89.3002 33.5001 89.4002 33.4001 89.4002 33.4001C89.4002 33.4001 89.4002 33.4001 89.3002 33.3001Z" fill="white" stroke="white" stroke-width="0.2" stroke-miterlimit="10"/>
<path d="M104.4 30.3001C104.7 30.3001 105 30.0001 105 29.7001C105 29.4001 104.7 29.1001 104.4 29.1001C104.1 29.1001 103.8 29.4001 103.8 29.7001C103.9 30.1001 104.1 30.3001 104.4 30.3001Z" fill="#67DD5A"/>
<path d="M94.1996 47.0003C94.4996 47.0003 94.7996 46.7003 94.7996 46.4003C94.7996 46.1003 94.4996 45.8003 94.1996 45.8003C93.8996 45.8003 93.5996 46.1003 93.5996 46.4003C93.5996 46.7003 93.8996 47.0003 94.1996 47.0003Z" fill="white"/>
<path d="M41.1996 54.8001C41.4996 54.8001 41.7996 54.5001 41.7996 54.2001C41.7996 53.9001 41.4996 53.6001 41.1996 53.6001C40.8996 53.6001 40.5996 53.9001 40.5996 54.2001C40.5996 54.5001 40.8996 54.8001 41.1996 54.8001Z" fill="#AFAFAF"/>
<path d="M80.1996 19.8001C80.4996 19.8001 80.7996 19.5001 80.7996 19.2001C80.7996 18.9001 80.4996 18.6001 80.1996 18.6001C79.8996 18.6001 79.5996 18.9001 79.5996 19.2001C79.6996 19.5001 79.8996 19.8001 80.1996 19.8001Z" fill="white"/>
</g>
<defs>
<clipPath id="clip0">
<rect width="122.9" height="95.6" fill="white"/>
</clipPath>
</defs>
</svg>
