<svg width="24" height="24" viewBox="0 0 24 24" fill="none" xmlns="http://www.w3.org/2000/svg">
<path d="M17.87 6.10185C16.8123 4.8828 15.3752 4.05507 13.79 3.75185C13.7997 3.63873 13.7997 3.52498 13.79 3.41185C13.7615 3.0321 13.5942 2.67613 13.32 2.41185C13.0305 2.14693 12.6524 2 12.26 2C11.8676 2 11.4895 2.14693 11.2 2.41185C10.9121 2.69107 10.7436 3.07102 10.73 3.47185C10.732 3.58359 10.7488 3.69456 10.78 3.80185C9.2142 4.09564 7.79189 4.90537 6.74 6.10185C5.64825 7.37379 5.03308 8.98596 5 10.6619V16.7219C5.01791 17.4579 5.32297 18.1577 5.85 18.6719C6.11286 18.9316 6.42556 19.1355 6.76926 19.2713C7.11297 19.407 7.48059 19.4719 7.85 19.4619H10.85V20.4619C10.85 20.8597 11.008 21.2412 11.2893 21.5225C11.5706 21.8038 11.9522 21.9619 12.35 21.9619C12.7478 21.9619 13.1294 21.8038 13.4107 21.5225C13.692 21.2412 13.85 20.8597 13.85 20.4619V19.4619H16.85C17.5754 19.4637 18.2723 19.1799 18.79 18.6719C19.0554 18.4206 19.2675 18.1184 19.4135 17.7834C19.5596 17.4484 19.6366 17.0873 19.64 16.7219V10.6619C19.6036 8.9812 18.977 7.36694 17.87 6.10185ZM7.08 16.7219V10.6619C7.07446 9.62599 7.37725 8.6119 7.94982 7.74865C8.52239 6.8854 9.33885 6.21202 10.2953 5.81421C11.2518 5.41641 12.3049 5.31217 13.3208 5.51475C14.3367 5.71734 15.2693 6.2176 16 6.95185C16.4866 7.43503 16.8724 8.01001 17.135 8.64344C17.3976 9.27687 17.5319 9.95614 17.53 10.6419V16.6419C17.523 16.8354 17.4405 17.0185 17.3 17.1519C17.2318 17.2199 17.1506 17.2735 17.0613 17.3096C16.972 17.3456 16.8763 17.3634 16.78 17.3619H7.83C7.73368 17.3634 7.63803 17.3456 7.54871 17.3096C7.45939 17.2735 7.37822 17.2199 7.31 17.1519C7.18758 17.0381 7.10663 16.8868 7.08 16.7219Z" fill="#222222"/>
</svg>
