<svg xmlns="http://www.w3.org/2000/svg" xmlns:xlink="http://www.w3.org/1999/xlink" xmlns:serif="http://www.serif.com/" viewBox="0 0 64 80" version="1.1" xml:space="preserve" style="" x="0px" y="0px" fill-rule="evenodd" clip-rule="evenodd" stroke-linejoin="round" stroke-miterlimit="2"><g transform="matrix(2,0,0,2,-936,-336)"><path d="M483.5,189.725L490.708,194.906C490.86,195.015 491.061,195.03 491.228,194.945C491.395,194.859 491.5,194.688 491.5,194.5L491.5,183C491.5,182.812 491.395,182.641 491.228,182.555C491.061,182.47 490.86,182.485 490.708,182.594L483.5,187.775L483.5,184.15C483.5,183.239 482.761,182.5 481.85,182.5L469.65,182.5C468.739,182.5 468,183.239 468,184.15L468,193.35C468,194.261 468.739,195 469.65,195L481.85,195C482.761,195 483.5,194.261 483.5,193.35L483.5,189.725ZM491,177C493.76,177 496,179.24 496,182C496,182.276 496.224,182.5 496.5,182.5C496.776,182.5 497,182.276 497,182C497,178.689 494.311,176 491,176C490.724,176 490.5,176.224 490.5,176.5C490.5,176.776 490.724,177 491,177ZM491,174C495.415,174 499,177.585 499,182C499,182.276 499.224,182.5 499.5,182.5C499.776,182.5 500,182.276 500,182C500,177.033 495.967,173 491,173C490.724,173 490.5,173.224 490.5,173.5C490.5,173.776 490.724,174 491,174ZM491,180C492.104,180 493,180.896 493,182C493,182.276 493.224,182.5 493.5,182.5C493.776,182.5 494,182.276 494,182C494,180.344 492.656,179 491,179C490.724,179 490.5,179.224 490.5,179.5C490.5,179.776 490.724,180 491,180Z"/></g><text x="0" y="79" fill="#000000" font-size="5px" font-weight="bold" font-family="'Helvetica Neue', Helvetica, Arial-Unicode, Arial, Sans-serif">Created by Warunk Icon</text><text x="0" y="84" fill="#000000" font-size="5px" font-weight="bold" font-family="'Helvetica Neue', Helvetica, Arial-Unicode, Arial, Sans-serif">from the Noun Project</text></svg>