<svg xmlns="http://www.w3.org/2000/svg" xmlns:xlink="http://www.w3.org/1999/xlink" version="1.1" x="0px" y="0px" viewBox="0 0 139 173.75" enable-background="new 0 0 139 139" xml:space="preserve"><g><path d="M69.499,11.787c-31.94,0-57.833,25.894-57.833,57.834c0,31.939,25.893,57.835,57.833,57.835s57.835-25.896,57.835-57.835   C127.334,37.681,101.439,11.787,69.499,11.787z M87.509,85.302c0,2.997-2.438,5.435-5.436,5.435H43.751   c-2.997,0-5.436-2.438-5.436-5.435V53.701c0-2.997,2.438-5.436,5.436-5.436h38.322c2.997,0,5.436,2.438,5.436,5.436V85.302z    M108.685,79.938c0,0.699-0.343,1.354-0.916,1.753c-0.363,0.251-0.788,0.38-1.219,0.38c-0.251,0-0.502-0.045-0.746-0.135   l-14.295-5.341V63.776l14.295-5.34c0.654-0.245,1.388-0.154,1.965,0.243c0.573,0.4,0.916,1.055,0.916,1.754V79.938z"/><path d="M74.163,67.889L55.661,57.207c-0.619-0.357-1.381-0.357-2,0c-0.619,0.357-1,1.018-1,1.732v21.365   c0,0.715,0.381,1.375,1,1.732c0.31,0.179,0.655,0.268,1,0.268s0.69-0.089,1-0.268l18.502-10.683c0.619-0.357,1-1.018,1-1.732   C75.163,68.907,74.782,68.246,74.163,67.889z"/></g><text x="0" y="154" fill="#000000" font-size="5px" font-weight="bold" font-family="'Helvetica Neue', Helvetica, Arial-Unicode, Arial, Sans-serif"></text><text x="0" y="159" fill="#000000" font-size="5px" font-weight="bold" font-family="'Helvetica Neue', Helvetica, Arial-Unicode, Arial, Sans-serif"></text></svg>