<svg width="48" height="62" viewBox="0 0 48 62" fill="none" xmlns="http://www.w3.org/2000/svg">
<path d="M14.6193 36.1681L14.6214 36.1807L20.8695 42.3681L23.9999 38.2348L19.826 35.1348L14.6086 36.1681L14.6214 36.1807L14.6193 36.1681Z" fill="#F2F2F2"/>
<path d="M33.379 36.1807L33.381 36.1681L33.379 36.1807L33.3912 36.1681L28.1739 35.1348L24 38.2348L27.1304 42.3681L33.379 36.1807Z" fill="#F2F2F2"/>
<path d="M24.6889 14.1163C25.5958 13.2147 26.2816 12.1188 26.6923 10.9129C26.6821 10.923 26.6923 10.923 26.6923 10.923C27.7271 13.0881 29.9292 14.4685 32.3478 14.4675H33.3913V16.5342H34.4348C35.5863 16.5306 36.5182 15.6073 36.5217 14.4675V11.3675C36.5217 5.66047 31.8501 1.03418 26.087 1.03418H21.9131C16.1501 1.03418 11.4784 5.66047 11.4784 11.3675V14.4675C11.4819 15.6073 12.4143 16.5306 13.5653 16.5342H19.8262C21.6792 16.3046 23.3963 15.4509 24.6889 14.1163Z" fill="#F2F2F2"/>
<path d="M33.3297 22.7342H33.3914C35.1202 22.7342 36.5218 21.3461 36.5218 19.6342C36.5218 17.9222 35.1202 16.5342 33.3914 16.5342V21.7008C33.3904 22.046 33.37 22.3911 33.3297 22.7342Z" fill="#F2F2F2"/>
<path d="M24 46.5012L21.8922 43.7185L20.8696 60.9678H27.1304L26.1715 43.6348L24 46.5012ZM21.882 44.5172L21.9029 43.7316L21.882 44.5172Z" fill="#F2F2F2"/>
<path d="M34.0175 36.3108L33.3913 36.168L33.3791 36.1806L29.2174 60.968H46.9565V52.4203C46.9565 44.7222 41.5918 38.0424 34.0175 36.3108Z" fill="#F2F2F2"/>
<path d="M14.6087 36.1676L13.9826 36.3104C6.40872 38.042 1.04359 44.7219 1.04359 52.4199V60.9676H18.7826L14.6215 36.1802L14.6087 36.1676Z" fill="#F2F2F2"/>
<path d="M11.4784 19.6342C11.4784 21.3461 12.88 22.7342 14.6088 22.7342H14.6704C14.6307 22.3911 14.6098 22.046 14.6088 21.7008V16.5342C12.88 16.5342 11.4784 17.9222 11.4784 19.6342Z" fill="#F2F2F2"/>
<path d="M21.8922 43.7174V43.7099V43.7174L24 46.5001L27.1304 42.3667L24 38.2334L20.8696 42.3667L21.8922 43.7174Z" fill="#F2F2F2"/>
<path d="M34.2493 35.3019L29.2174 34.2892V30.6352C31.825 29.1412 33.6547 26.6058 34.2376 23.6789C35.7146 23.3812 36.913 22.3156 37.3695 20.8932C37.8265 19.4714 37.4699 17.9158 36.4381 16.828C37.1494 16.2457 37.5621 15.3804 37.5652 14.4667V11.3667C37.558 5.09199 32.4232 0.00756837 26.0869 0H21.9131C15.5768 0.00756837 10.4425 5.09199 10.4348 11.3667V14.4667C10.4379 15.3804 10.8511 16.2457 11.5619 16.828C10.5352 17.9173 10.1816 19.4709 10.6381 20.8912C11.0942 22.311 12.2889 23.3771 13.7624 23.6789C14.3458 26.6058 16.1755 29.1412 18.7826 30.6352V34.2862L13.7512 35.3019C5.68521 37.1152 -0.0294373 44.229 0.00011408 52.42V60.9667C0.00011408 61.5373 0.467333 62 1.04359 62H46.9564C47.5327 62 47.9999 61.5373 47.9999 60.9667V52.42C48.0299 44.229 42.3153 37.1152 34.2493 35.3019ZM19.5759 36.2378L22.5392 38.4402L20.756 40.794L16.7334 36.8105L19.5759 36.2378ZM28.4266 36.2378L31.2753 36.8024L27.243 40.795L25.4608 38.4402L28.4266 36.2378ZM20.8288 44.0357L19.8857 59.9333H19.6666L16.1836 39.1869L20.8288 44.0357ZM22.1739 42.3667L24 39.9559L25.8261 42.3667L24 44.7774L22.1739 42.3667ZM31.8169 39.1869L28.3339 59.9333H28.1143L27.1819 44.0201L31.8169 39.1869ZM34.8658 21.0935C34.7374 21.2181 34.5922 21.3251 34.4347 21.4119V17.8538C34.9967 18.1721 35.3763 18.7322 35.4609 19.3679C35.5455 20.0037 35.3254 20.6419 34.8658 21.0935ZM12.5218 11.3667C12.5279 6.2328 16.7288 2.07222 21.9131 2.06667H26.0869C31.2712 2.07222 35.4726 6.2328 35.4782 11.3667V14.4667C35.4782 15.0373 35.011 15.5 34.4347 15.5V14.4667C34.4347 13.896 33.9675 13.4333 33.3913 13.4333H32.3478C30.3643 13.4288 28.554 12.3137 27.672 10.5543C27.5176 10.1376 27.1121 9.8651 26.6642 9.87721C26.2164 9.88882 25.8261 10.183 25.6946 10.6073C25.3334 11.6502 24.7383 12.5988 23.9541 13.3819C22.8505 14.5176 21.4 15.2618 19.8261 15.5H13.5653C12.989 15.5 12.5218 15.0373 12.5218 14.4667V11.3667ZM12.5218 19.6333C12.5243 18.8982 12.9218 18.2201 13.5653 17.8538V21.4129C12.9156 21.0527 12.5157 20.3705 12.5218 19.6333ZM15.6522 21.7V17.5667H19.8261C21.9564 17.3346 23.9373 16.3724 25.4266 14.8461C25.9764 14.3002 26.4548 13.6886 26.8507 13.0251C28.2396 14.5933 30.242 15.4944 32.3478 15.5V21.7C32.3478 26.2657 28.6105 29.9667 24 29.9667C19.39 29.9667 15.6522 26.2657 15.6522 21.7ZM24 32.0333C25.0618 32.0333 26.1175 31.8729 27.1304 31.557V34.6167L24 36.9417L20.8696 34.6167V31.557C21.8825 31.8729 22.9382 32.0333 24 32.0333ZM2.08706 52.42C2.06362 45.3663 6.87644 39.196 13.7742 37.4366L17.5517 59.9333H10.4348V50.6333C10.4348 50.0627 9.96763 49.6 9.39137 49.6C8.81512 49.6 8.3479 50.0627 8.3479 50.6333V59.9333H2.08706V52.42ZM21.9767 59.9333L22.7655 46.5918L23.1654 47.1201C23.3626 47.3799 23.6719 47.5333 24 47.5333C24.3286 47.5333 24.6379 47.3799 24.8351 47.1201L25.2417 46.5817L26.0243 59.9333H21.9767ZM45.9129 59.9333H39.6521V50.6333C39.6521 50.0627 39.1849 49.6 38.6086 49.6C38.0324 49.6 37.5652 50.0627 37.5652 50.6333V59.9333H30.4488L34.2263 37.4376C41.1236 39.197 45.9364 45.3668 45.9129 52.42V59.9333Z" fill="#222222"/>
</svg>
