<svg width="11" height="15" viewBox="0 0 11 15" fill="none" xmlns="http://www.w3.org/2000/svg">
<path d="M9.66397 13.7998H1.63599C1.47686 13.7998 1.32422 13.863 1.2117 13.9755C1.09918 14.0881 1.03598 14.2407 1.03598 14.3998C1.03598 14.5589 1.09918 14.7115 1.2117 14.8241C1.32422 14.9366 1.47686 14.9998 1.63599 14.9998H9.66397C9.8231 14.9998 9.97573 14.9366 10.0883 14.8241C10.2008 14.7115 10.264 14.5589 10.264 14.3998C10.264 14.2407 10.2008 14.0881 10.0883 13.9755C9.97573 13.863 9.8231 13.7998 9.66397 13.7998Z" fill="#10B4E3"/>
<path d="M4.94499 9.93787V11.9949C4.94841 12.1758 5.02332 12.3481 5.15336 12.474C5.2834 12.5999 5.45799 12.6693 5.63899 12.6669H5.66099C5.84216 12.6695 6.017 12.6003 6.14726 12.4744C6.27752 12.3484 6.35258 12.176 6.356 11.9949V9.93787C7.51579 9.76004 8.56564 9.15079 9.29545 8.23204C10.0253 7.31329 10.3812 6.15281 10.292 4.98286C10.2029 3.81292 9.67515 2.7198 8.81453 1.92227C7.9539 1.12474 6.82384 0.681641 5.65049 0.681641C4.47715 0.681641 3.34709 1.12474 2.48646 1.92227C1.62583 2.7198 1.09813 3.81292 1.00895 4.98286C0.919782 6.15281 1.27572 7.31329 2.00554 8.23204C2.73535 9.15079 3.7852 9.76004 4.94499 9.93787ZM5.65001 2.36386C6.26519 2.38468 6.86065 2.58613 7.3621 2.9431C7.86356 3.30008 8.24881 3.79677 8.46986 4.37125C8.69091 4.94573 8.73798 5.57257 8.60515 6.17361C8.47231 6.77464 8.16548 7.32328 7.72291 7.75109C7.28035 8.17891 6.72163 8.46697 6.11644 8.57937C5.51125 8.69176 4.88638 8.62351 4.31971 8.38313C3.75305 8.14275 3.26969 7.74086 2.92991 7.2276C2.59013 6.71434 2.40897 6.11241 2.40901 5.49687C2.42426 4.65175 2.77419 3.84721 3.382 3.25983C3.98982 2.67245 4.80587 2.35022 5.65101 2.36386H5.65001Z" fill="#10B4E3"/>
</svg>
