<svg width="15" height="15" viewBox="0 0 15 15" fill="none" xmlns="http://www.w3.org/2000/svg">
<path d="M14.592 13.9042L12.724 12.0352C13.8499 10.7332 14.4315 9.04786 14.3483 7.32861C14.265 5.60936 13.5233 3.9881 12.2769 2.801C11.0305 1.61389 9.375 0.952029 7.65374 0.952637C5.93247 0.953245 4.27748 1.61628 3.03191 2.80426C1.78634 3.99224 1.04573 5.61403 0.963705 7.33333C0.881675 9.05264 1.46449 10.7376 2.5913 12.0387C3.71811 13.3399 5.30247 14.1575 7.01586 14.322C8.72925 14.4865 10.4402 13.9852 11.794 12.9222L13.684 14.8122C13.8045 14.9326 13.968 15.0002 14.1384 15.0001C14.3087 15 14.4721 14.9322 14.5925 14.8117C14.7129 14.6911 14.7805 14.5277 14.7804 14.3573C14.7803 14.1869 14.7125 14.0236 14.592 13.9032V13.9042ZM11.701 11.1512L11.364 11.5402L10.958 11.8592C10.0243 12.5999 8.86681 13.0018 7.67498 12.9992C6.45639 13.002 5.27353 12.5878 4.32296 11.8253C3.37239 11.0628 2.71135 9.99802 2.44976 8.80783C2.18817 7.61764 2.34179 6.37378 2.88503 5.28297C3.42827 4.19216 4.32844 3.32011 5.43593 2.81175C6.54343 2.30339 7.79154 2.18935 8.97283 2.48857C10.1541 2.78779 11.1974 3.48225 11.9294 4.45654C12.6613 5.43083 13.0378 6.62626 12.9963 7.84414C12.9547 9.06203 12.4976 10.229 11.701 11.1512Z" fill="#10B4E3"/>
</svg>
