<svg width="14" height="14" viewBox="0 0 14 14" fill="none" xmlns="http://www.w3.org/2000/svg">
<path d="M13.8094 12.9041L11.911 11.0356C12.9385 9.86537 13.5649 8.34362 13.5649 6.67584C13.5649 2.98875 10.5284 0 6.78245 0C3.03648 0 0 2.98875 0 6.67584C0 10.3629 3.03648 13.3517 6.78245 13.3517C8.36284 13.3517 9.81343 12.8149 10.9666 11.9232L12.8863 13.8127C13.0134 13.9378 13.1803 14 13.3479 14C13.5154 14 13.6823 13.9378 13.8094 13.8127C14.0635 13.5633 14.0635 13.1543 13.8094 12.9041ZM10.8718 10.1513L10.5298 10.5407L10.1177 10.8598C9.15407 11.6055 8.00088 11.9996 6.78245 11.9996C3.80023 11.9996 1.37366 9.61118 1.37366 6.67584C1.37366 3.7405 3.80023 1.35207 6.78245 1.35207C9.76466 1.35207 12.1912 3.7405 12.1912 6.67584C12.1912 7.94881 11.7228 9.18325 10.8718 10.1513Z" fill="black"/>
</svg>
