<svg width="48" height="48" viewBox="0 0 48 48" fill="none" xmlns="http://www.w3.org/2000/svg">
<g filter="url(#filter0_d)">
<circle cx="24" cy="23" r="18" fill="#C6C6C6"/>
</g>
<g filter="url(#filter1_dd)">
<path fill-rule="evenodd" clip-rule="evenodd" d="M25.2502 30.5C25.2345 30.5 25.2195 30.4992 25.2045 30.4985C24.8655 30.4782 24.5827 30.2322 24.5152 29.8992L23.3617 24.224C23.3017 23.9285 23.0715 23.6982 22.776 23.6382L17.1007 22.484C16.7677 22.4172 16.5217 22.1345 16.5015 21.7955C16.4812 21.4557 16.6905 21.1452 17.013 21.0387L29.013 17.039C29.2822 16.9475 29.5792 17.018 29.7802 17.2197C29.9812 17.4207 30.051 17.7177 29.9617 17.987L25.9612 29.987C25.8592 30.2952 25.5712 30.5 25.2502 30.5Z" fill="#231F20"/>
<mask id="mask0" mask-type="alpha" maskUnits="userSpaceOnUse" x="16" y="16" width="14" height="15">
<path fill-rule="evenodd" clip-rule="evenodd" d="M25.2502 30.5C25.2345 30.5 25.2195 30.4992 25.2045 30.4985C24.8655 30.4782 24.5827 30.2322 24.5152 29.8992L23.3617 24.224C23.3017 23.9285 23.0715 23.6982 22.776 23.6382L17.1007 22.484C16.7677 22.4172 16.5217 22.1345 16.5015 21.7955C16.4812 21.4557 16.6905 21.1452 17.013 21.0387L29.013 17.039C29.2822 16.9475 29.5792 17.018 29.7802 17.2197C29.9812 17.4207 30.051 17.7177 29.9617 17.987L25.9612 29.987C25.8592 30.2952 25.5712 30.5 25.2502 30.5Z" fill="white"/>
</mask>
<g mask="url(#mask0)">
<rect x="15" y="14" width="18" height="18" fill="white"/>
</g>
</g>
<defs>
<filter id="filter0_d" x="0" y="0" width="48" height="48" filterUnits="userSpaceOnUse" color-interpolation-filters="sRGB">
<feFlood flood-opacity="0" result="BackgroundImageFix"/>
<feColorMatrix in="SourceAlpha" type="matrix" values="0 0 0 0 0 0 0 0 0 0 0 0 0 0 0 0 0 0 127 0"/>
<feOffset dy="1"/>
<feGaussianBlur stdDeviation="3"/>
<feColorMatrix type="matrix" values="0 0 0 0 0 0 0 0 0 0 0 0 0 0 0 0 0 0 0.102 0"/>
<feBlend mode="normal" in2="BackgroundImageFix" result="effect1_dropShadow"/>
<feBlend mode="normal" in="SourceGraphic" in2="effect1_dropShadow" result="shape"/>
</filter>
<filter id="filter1_dd" x="13" y="13" width="22" height="22" filterUnits="userSpaceOnUse" color-interpolation-filters="sRGB">
<feFlood flood-opacity="0" result="BackgroundImageFix"/>
<feColorMatrix in="SourceAlpha" type="matrix" values="0 0 0 0 0 0 0 0 0 0 0 0 0 0 0 0 0 0 127 0"/>
<feOffset dy="1"/>
<feGaussianBlur stdDeviation="0.5"/>
<feColorMatrix type="matrix" values="0 0 0 0 0 0 0 0 0 0 0 0 0 0 0 0 0 0 0.03 0"/>
<feBlend mode="normal" in2="BackgroundImageFix" result="effect1_dropShadow"/>
<feColorMatrix in="SourceAlpha" type="matrix" values="0 0 0 0 0 0 0 0 0 0 0 0 0 0 0 0 0 0 127 0"/>
<feOffset dy="1"/>
<feGaussianBlur stdDeviation="1"/>
<feColorMatrix type="matrix" values="0 0 0 0 0 0 0 0 0 0 0 0 0 0 0 0 0 0 0.03 0"/>
<feBlend mode="normal" in2="effect1_dropShadow" result="effect2_dropShadow"/>
<feBlend mode="normal" in="SourceGraphic" in2="effect2_dropShadow" result="shape"/>
</filter>
</defs>
</svg>
