<svg width="18" height="18" viewBox="0 0 18 18" fill="none" xmlns="http://www.w3.org/2000/svg">
<path d="M17.135 11.0988L15.6373 10.2339C15.7885 9.41829 15.7885 8.58158 15.6373 7.76595L17.135 6.90111C17.3072 6.80267 17.3846 6.59876 17.3283 6.40892C16.9381 5.15736 16.2736 4.02533 15.4053 3.08314C15.2717 2.939 15.0537 2.90384 14.885 3.00228L13.3873 3.86712C12.758 3.32572 12.0338 2.90736 11.2498 2.63314V0.906966C11.2498 0.710091 11.1127 0.537826 10.9194 0.495638C9.62912 0.207357 8.30724 0.22142 7.08029 0.495638C6.88693 0.537826 6.74982 0.710091 6.74982 0.906966V2.63665C5.96935 2.91439 5.24513 3.33275 4.61232 3.87064L3.11818 3.00579C2.94592 2.90736 2.73146 2.939 2.59787 3.08665C1.72951 4.02533 1.06506 5.15736 0.674825 6.41243C0.615059 6.60228 0.695918 6.80618 0.868184 6.90462L2.36584 7.76947C2.21467 8.58509 2.21467 9.42181 2.36584 10.2374L0.868184 11.1023C0.695918 11.2007 0.618575 11.4046 0.674825 11.5945C1.06506 12.846 1.72951 13.9781 2.59787 14.9202C2.73146 15.0644 2.94943 15.0995 3.11818 15.0011L4.61584 14.1363C5.24513 14.6777 5.96935 15.096 6.75334 15.3702V17.0999C6.75334 17.2968 6.89045 17.4691 7.08381 17.5113C8.37404 17.7995 9.69591 17.7855 10.9229 17.5113C11.1162 17.4691 11.2533 17.2968 11.2533 17.0999V15.3702C12.0338 15.0925 12.758 14.6742 13.3908 14.1363L14.8885 15.0011C15.0608 15.0995 15.2752 15.0679 15.4088 14.9202C16.2772 13.9816 16.9416 12.8495 17.3318 11.5945C17.3846 11.4011 17.3072 11.1972 17.135 11.0988ZM8.99982 11.8124C7.44943 11.8124 6.18732 10.5503 6.18732 8.99993C6.18732 7.44954 7.44943 6.18743 8.99982 6.18743C10.5502 6.18743 11.8123 7.44954 11.8123 8.99993C11.8123 10.5503 10.5502 11.8124 8.99982 11.8124Z" fill="#D2D2D2"/>
</svg>
