<svg width="62" height="62" viewBox="0 0 62 62" fill="none" xmlns="http://www.w3.org/2000/svg">
<path d="M53.3781 57.6057L59.0162 59.0162L57.6057 53.3781C56.5833 53.6318 55.6494 54.1596 54.9045 54.9045C54.1596 55.6494 53.6319 56.5832 53.3781 57.6057Z" fill="#E0E0E0"/>
<path d="M14.5128 17.2527L11.7703 19.9952L22.785 31.0002L31 39.2152L48.0568 56.272V50.7966L14.5128 17.2527Z" fill="#E0E0E0"/>
<path d="M31 39.215L22.785 31L19.7528 34.0322C19.3446 34.4528 18.8472 34.7764 18.2972 34.9793C17.7473 35.1822 17.1589 35.2591 16.5753 35.2044C14.6917 34.9884 12.7839 35.2361 11.0179 35.9259C9.25189 36.6156 7.68121 37.7265 6.44257 39.1619C5.20393 40.5972 4.33486 42.3136 3.911 44.1615C3.48714 46.0095 3.52134 47.933 4.01062 49.7647L11.1309 42.6444L17.98 44.02L19.3556 50.8691L12.2353 57.9894C14.067 58.4787 15.9905 58.5129 17.8385 58.089C19.6864 57.6651 21.4028 56.7961 22.8381 55.5574C24.2735 54.3188 25.3844 52.7481 26.0741 50.9821C26.7639 49.2161 27.0116 47.3083 26.7956 45.4247C26.7409 44.8411 26.8178 44.2527 27.0207 43.7028C27.2236 43.1528 27.5472 42.6554 27.9678 42.2472L31 39.215Z" fill="#E0E0E0"/>
<path d="M56.2718 48.0569L39.215 31.0001L31 22.7851L19.995 11.7704L17.2525 14.5129L50.7964 48.0569H56.2718Z" fill="#E0E0E0"/>
<path d="M57.9894 12.2356L50.8691 19.3559L44.02 17.9803L42.6444 11.1312L49.7647 4.0109C47.933 3.52162 46.0095 3.48742 44.1615 3.91128C42.3136 4.33513 40.5972 5.2042 39.1619 6.44284C37.7265 7.68149 36.6156 9.25216 35.9259 11.0182C35.2361 12.7842 34.9884 14.692 35.2044 16.5756C35.2591 17.1592 35.1822 17.7476 34.9793 18.2975C34.7764 18.8474 34.4528 19.3448 34.0322 19.7531L31 22.7853L39.215 31.0003L42.2472 27.9681C42.6554 27.5475 43.1528 27.2238 43.7028 27.021C44.2527 26.8181 44.8411 26.7412 45.4247 26.7959C47.3083 27.0118 49.2161 26.7642 50.9821 26.0744C52.7481 25.3847 54.3188 24.2738 55.5574 22.8384C56.7961 21.403 57.6651 19.6867 58.089 17.8387C58.5128 15.9908 58.4787 14.0673 57.9894 12.2356Z" fill="#E0E0E0"/>
<path d="M14.5075 17.2513L17.2471 14.5117L17.2485 14.5131L14.5088 17.2527L14.5075 17.2513Z" fill="#E0E0E0"/>
<path d="M19.9911 11.7715L15.8807 7.66113L7.66086 15.881L11.7713 19.9914L14.5109 17.2518L17.2515 14.5112L19.9911 11.7715Z" fill="#E0E0E0"/>
<path d="M59.7068 58.7809L56.9652 47.8243C56.9239 47.6535 56.8368 47.4971 56.7133 47.3719L40.3357 31.0001L42.6829 28.6528C42.9881 28.3354 43.3605 28.0904 43.7727 27.9356C44.1849 27.7809 44.6265 27.7204 45.0651 27.7586C47.1057 27.9926 49.1725 27.7243 51.0857 26.9771C52.9989 26.2298 54.7005 25.0263 56.0423 23.4712C57.3841 21.9161 58.3255 20.0567 58.7846 18.0546C59.2436 16.0526 59.2063 13.9688 58.676 11.9845C58.632 11.8202 58.5455 11.6705 58.4252 11.5503C58.305 11.4301 58.1552 11.3436 57.9909 11.2997C57.8267 11.2557 57.6538 11.2557 57.4895 11.2997C57.3253 11.3438 57.1755 11.4302 57.0553 11.5505L50.3022 18.3036L44.5943 17.1566L43.4463 11.4487L50.2004 4.69559C50.3207 4.57537 50.4072 4.42561 50.4512 4.26138C50.4952 4.09714 50.4952 3.92421 50.4512 3.75996C50.4073 3.59572 50.3208 3.44594 50.2006 3.32568C50.0804 3.20543 49.9307 3.11893 49.7664 3.07487C47.7821 2.54473 45.6983 2.50762 43.6963 2.96678C41.6943 3.42594 39.8349 4.36745 38.28 5.70936C36.725 7.05127 35.5216 8.7529 34.7744 10.6661C34.0273 12.5794 33.7591 14.6462 33.9933 16.6868C34.031 17.1253 33.9702 17.5667 33.8154 17.9787C33.6605 18.3908 33.4154 18.7629 33.0981 19.068L30.7508 21.4152L13.5768 4.23641C12.9471 3.60668 12.1995 3.10715 11.3767 2.76634C10.554 2.42553 9.67211 2.25012 8.78154 2.25012C7.89096 2.25012 7.00911 2.42553 6.18633 2.76634C5.36355 3.10715 4.61595 3.60668 3.98622 4.23641C3.35649 4.86613 2.85696 5.61373 2.51616 6.43651C2.17535 7.25929 1.99994 8.14115 1.99994 9.03172C1.99994 9.92229 2.17535 10.8041 2.51616 11.6269C2.85696 12.4497 3.35649 13.1973 3.98622 13.827L21.1651 31.0001L18.8188 33.3464C18.5143 33.6646 18.142 33.9103 17.7296 34.0651C17.3173 34.2199 16.8753 34.2798 16.4366 34.2405C14.3959 34.0065 12.3289 34.2748 10.4156 35.0221C8.50234 35.7694 6.80069 36.973 5.45885 38.5282C4.11701 40.0834 3.17564 41.943 2.71671 43.9452C2.25777 45.9473 2.29517 48.0313 2.82566 50.0157C2.86971 50.1799 2.95621 50.3296 3.07647 50.4498C3.19673 50.57 3.3465 50.6565 3.51075 50.7005C3.675 50.7444 3.84793 50.7444 4.01216 50.7004C4.1764 50.6564 4.32615 50.5699 4.44638 50.4497L11.1995 43.6965L16.9074 44.8435L18.0602 50.5514L11.3061 57.3045C11.1859 57.4248 11.0994 57.5745 11.0554 57.7387C11.0113 57.903 11.0113 58.0759 11.0553 58.2402C11.0993 58.4044 11.1857 58.5542 11.3059 58.6744C11.4261 58.7947 11.5759 58.8812 11.7401 58.9252C13.7241 59.4544 15.8074 59.4908 17.8087 59.0312C19.81 58.5716 21.6687 57.63 23.223 56.2882C24.7774 54.9464 25.9803 53.2451 26.7272 51.3324C27.4741 49.4196 27.7423 47.3534 27.5084 45.3133C27.4707 44.8748 27.5314 44.4334 27.6863 44.0214C27.8412 43.6094 28.0863 43.2372 28.4036 42.9322L30.7508 40.5849L47.1227 56.9626C47.2467 57.0866 47.4021 57.1747 47.5722 57.2173L58.5288 59.9589C58.6058 59.9781 58.6848 59.9879 58.7642 59.988C58.9114 59.988 59.0568 59.9544 59.1891 59.8898C59.3214 59.8252 59.4373 59.7313 59.5279 59.6152C59.6185 59.4991 59.6814 59.3639 59.7119 59.2198C59.7424 59.0758 59.7397 58.9267 59.7039 58.7838L59.7068 58.7809ZM52.4983 56.4491L48.7754 55.5172V51.9783L51.0423 52.4317C51.1987 52.4631 51.3605 52.4553 51.5132 52.4091C51.6659 52.3629 51.8048 52.2797 51.9177 52.1669C52.0305 52.054 52.1137 51.9151 52.1599 51.7624C52.2061 51.6097 52.2139 51.4479 52.1825 51.2915L51.7282 49.0246H55.268L56.1989 52.7466C55.3655 53.0842 54.6084 53.586 53.9726 54.222C53.3369 54.8581 52.8355 55.6155 52.4983 56.4491ZM49.6541 48.5344L49.997 50.2472L48.2852 49.9042L15.6383 17.2574L17.0033 15.8876L49.6541 48.5344ZM34.4679 20.4407C34.9915 19.9292 35.3937 19.307 35.6452 18.6196C35.8967 17.9323 35.9909 17.1974 35.9211 16.4688C35.7399 14.8908 35.9134 13.2922 36.4289 11.7899C36.9445 10.2875 37.789 8.91918 38.901 7.7849C40.0129 6.65061 41.3641 5.77897 42.8559 5.2336C44.3477 4.68823 45.9425 4.48291 47.5238 4.63262L41.7113 10.4451C41.5983 10.5581 41.5151 10.6973 41.4689 10.8503C41.4228 11.0032 41.4152 11.1652 41.4468 11.3218L42.8234 18.1699C42.8609 18.3572 42.9529 18.5292 43.0879 18.6643C43.2228 18.7995 43.3947 18.8917 43.5819 18.9294L50.43 20.3041C50.5866 20.3357 50.7486 20.3281 50.9016 20.282C51.0546 20.2358 51.1938 20.1526 51.3068 20.0396L57.1193 14.2271C57.2695 15.8084 57.0647 17.4032 56.5198 18.8952C55.9749 20.3872 55.1037 21.7387 53.9698 22.851C52.8359 23.9632 51.4679 24.8082 49.9657 25.3243C48.4635 25.8403 46.865 26.0144 45.2869 25.8337C44.5584 25.7641 43.8236 25.8585 43.1363 26.11C42.449 26.3614 41.8267 26.7635 41.3151 27.2868L38.9658 29.6302L36.2175 26.8819C36.2369 26.8654 36.2611 26.8596 36.2795 26.8412L40.1545 22.9662C40.331 22.7835 40.4286 22.5388 40.4264 22.2848C40.4242 22.0308 40.3223 21.7878 40.1427 21.6082C39.9631 21.4286 39.7201 21.3267 39.4661 21.3245C39.2121 21.3223 38.9674 21.4199 38.7847 21.5964L34.9097 25.4714C34.8913 25.4898 34.8855 25.514 34.869 25.5334L32.1207 22.7851L34.4679 20.4407ZM19.7429 13.1431L53.6831 47.0871H50.9483L18.3731 14.5129L19.7429 13.1431ZM5.357 12.4562C4.90399 12.0072 4.54413 11.4731 4.29809 10.8845C4.05205 10.296 3.92468 9.66471 3.92328 9.02684C3.92188 8.38897 4.04649 7.7571 4.28995 7.16751C4.53341 6.57792 4.89093 6.04223 5.34197 5.59119C5.79302 5.14014 6.32871 4.78262 6.9183 4.53917C7.50788 4.29571 8.13975 4.1711 8.77763 4.1725C9.4155 4.17389 10.0468 4.30127 10.6353 4.5473C11.2238 4.79334 11.758 5.1532 12.207 5.60622L14.2618 7.66094L7.41172 14.511L5.357 12.4562ZM8.78154 15.8817L15.6325 9.03075L18.3722 11.7713L11.5212 18.6214L8.78154 15.8817ZM27.0338 41.5594C26.5102 42.0709 26.108 42.6931 25.8565 43.3805C25.605 44.0678 25.5108 44.8028 25.5806 45.5313C25.7618 47.1093 25.5883 48.7079 25.0728 50.2103C24.5572 51.7126 23.7127 53.0809 22.6007 54.2152C21.4888 55.3495 20.1376 56.2212 18.6458 56.7665C17.154 57.3119 15.5592 57.5172 13.9779 57.3675L19.7904 51.555C19.9035 51.4421 19.987 51.303 20.0333 51.15C20.0796 50.997 20.0874 50.835 20.0558 50.6783L18.6802 43.8292C18.6427 43.6419 18.5507 43.4699 18.4158 43.3348C18.2808 43.1997 18.1089 43.1074 17.9217 43.0697L11.0726 41.6951C10.9168 41.6643 10.7557 41.6723 10.6037 41.7184C10.4516 41.7645 10.3132 41.8473 10.2008 41.9595L4.38825 47.772C4.2382 46.1909 4.4431 44.5963 4.98799 43.1045C5.53288 41.6127 6.40401 40.2614 7.53779 39.1493C8.67157 38.0371 10.0394 37.1922 11.5414 36.6761C13.0434 36.1601 14.6417 35.9859 16.2196 36.1664C16.9482 36.237 17.6833 36.143 18.3708 35.8915C19.0582 35.64 19.6804 35.2374 20.1915 34.7133L22.5388 32.366L25.2861 35.1143C25.2677 35.1308 25.2435 35.1366 25.2251 35.155L21.3501 39.03C21.2576 39.1194 21.1838 39.2263 21.133 39.3445C21.0822 39.4627 21.0555 39.5898 21.0544 39.7184C21.0533 39.847 21.0778 39.9746 21.1265 40.0937C21.1752 40.2127 21.2471 40.3209 21.3381 40.4118C21.4291 40.5028 21.5372 40.5747 21.6563 40.6235C21.7753 40.6722 21.9029 40.6967 22.0315 40.6956C22.1601 40.6944 22.2873 40.6677 22.4055 40.6169C22.5237 40.5662 22.6305 40.4924 22.7199 40.3998L26.5949 36.5248C26.6133 36.5064 26.6191 36.4822 26.6356 36.4638L29.3839 39.2112L27.0338 41.5594ZM12.891 19.9951L14.2637 18.6223L46.8379 51.1975V53.9323L12.891 19.9951ZM54.4116 56.9277C54.8731 55.9262 55.677 55.1224 56.6785 54.6608L57.4351 57.6843L54.4116 56.9277Z" fill="#222222"/>
</svg>
